Cambay Devanagari-Oblique.ufo
<glyph name="exclam" format="1">
  <advance width="205"/>
  <unicode hex="0021"/>
  <outline>
    <contour>
      <point x="83" y="90" type="line"/>
      <point x="132" y="90" type="line"/>
      <point x="219" y="493" type="line"/>
      <point x="152" y="493" type="line"/>
    </contour>
    <contour>
      <point x="109" y="-39"/>
      <point x="123" y="-25"/>
      <point x="127" y="-6" type="curve" smooth="yes"/>
      <point x="132" y="19"/>
      <point x="120" y="37"/>
      <point x="93" y="37" type="curve" smooth="yes"/>
      <point x="70" y="37"/>
      <point x="57" y="23"/>
      <point x="53" y="4" type="curve" smooth="yes"/>
      <point x="48" y="-21"/>
      <point x="60" y="-39"/>
      <point x="87" y="-39" type="curve" smooth="yes"/>
    </contour>
  </outline>
</glyph>
<glyph name="dollar" format="1">
  <advance width="368"/>
  <unicode hex="0024"/>
  <outline>
    <contour>
      <point x="110" y="-50" type="line"/>
      <point x="165" y="-50" type="line"/>
      <point x="187" y="63" type="line"/>
      <point x="132" y="63" type="line"/>
    </contour>
    <contour>
      <point x="197" y="400" type="line"/>
      <point x="252" y="400" type="line"/>
      <point x="274" y="513" type="line"/>
      <point x="219" y="513" type="line"/>
    </contour>
    <component base="s" xOffset="12" yOffset="40"/>
  </outline>
</glyph>
<glyph name="ampersand" format="1">
  <advance width="599"/>
  <unicode hex="0026"/>
  <outline>
    <contour>
      <point x="233" y="435" type="curve" smooth="yes"/>
      <point x="233" y="404"/>
      <point x="258" y="370"/>
      <point x="282" y="334" type="curve"/>
      <point x="291" y="322" type="line"/>
      <point x="514" y="0" type="line"/>
      <point x="433" y="0" type="line"/>
      <point x="233" y="289" type="line" smooth="yes"/>
      <point x="231" y="292"/>
      <point x="230" y="297"/>
      <point x="226" y="298" type="curve" smooth="yes"/>
      <point x="198" y="345"/>
      <point x="167" y="386"/>
      <point x="167" y="433" type="curve" smooth="yes"/>
      <point x="167" y="503"/>
      <point x="218" y="558"/>
      <point x="320" y="558" type="curve" smooth="yes"/>
      <point x="383" y="558"/>
      <point x="433" y="522"/>
      <point x="433" y="456" type="curve" smooth="yes"/>
      <point x="433" y="399"/>
      <point x="384" y="350"/>
      <point x="282" y="277" type="curve"/>
      <point x="272" y="277" type="line"/>
      <point x="184" y="210"/>
      <point x="112" y="171"/>
      <point x="112" y="107" type="curve" smooth="yes"/>
      <point x="111" y="64"/>
      <point x="137" y="42"/>
      <point x="188" y="42" type="curve" smooth="yes"/>
      <point x="244" y="42"/>
      <point x="298" y="81"/>
      <point x="365" y="136" type="curve"/>
      <point x="388" y="158" type="line"/>
      <point x="516" y="272" type="line"/>
      <point x="557" y="226" type="line"/>
      <point x="422" y="105" type="line"/>
      <point x="399" y="84" type="line"/>
      <point x="323" y="24"/>
      <point x="266" y="-18"/>
      <point x="176" y="-18" type="curve" smooth="yes"/>
      <point x="103" y="-18"/>
      <point x="47" y="18"/>
      <point x="47" y="101" type="curve" smooth="yes"/>
      <point x="47" y="169"/>
      <point x="97" y="232"/>
      <point x="243" y="326" type="curve"/>
      <point x="252" y="329" type="line"/>
      <point x="308" y="365"/>
      <point x="368" y="409"/>
      <point x="368" y="455" type="curve" smooth="yes"/>
      <point x="368" y="483"/>
      <point x="347" y="503"/>
      <point x="311" y="503" type="curve" smooth="yes"/>
      <point x="259" y="503"/>
      <point x="233" y="470"/>
    </contour>
  </outline>
</glyph>
<glyph name="quotesingle" format="1">
  <advance width="173"/>
  <unicode hex="0027"/>
  <outline>
    <contour>
      <point x="119" y="524"/>
      <point x="115" y="501" type="curve"/>
      <point x="106" y="375" type="line"/>
      <point x="138" y="375" type="line"/>
      <point x="177" y="497" type="line"/>
      <point x="183" y="521"/>
      <point x="176" y="540"/>
      <point x="149" y="540" type="curve"/>
      <point x="126" y="540"/>
    </contour>
  </outline>
</glyph>
<glyph name="parenleft" format="1">
  <advance width="269"/>
  <unicode hex="0028"/>
  <outline>
    <contour>
      <point x="141" y="277"/>
      <point x="162" y="335"/>
      <point x="190" y="393" type="curve" smooth="yes"/>
      <point x="221" y="457"/>
      <point x="259" y="515"/>
      <point x="303" y="572" type="curve"/>
      <point x="262" y="600" type="line"/>
      <point x="181" y="500"/>
      <point x="97" y="372"/>
      <point x="70" y="229" type="curve" smooth="yes"/>
      <point x="41" y="80"/>
      <point x="77" y="-48"/>
      <point x="119" y="-148" type="curve"/>
      <point x="165" y="-128" type="line"/>
      <point x="143" y="-71"/>
      <point x="128" y="-13"/>
      <point x="121" y="45" type="curve" smooth="yes"/>
      <point x="116" y="109"/>
      <point x="120" y="167"/>
      <point x="129" y="217" type="curve" smooth="yes"/>
    </contour>
  </outline>
</glyph>
<glyph name="parenright" format="1">
  <advance width="271"/>
  <unicode hex="0029"/>
  <outline>
    <contour>
      <point x="141" y="171"/>
      <point x="120" y="113"/>
      <point x="92" y="55" type="curve" smooth="yes"/>
      <point x="61" y="-9"/>
      <point x="23" y="-67"/>
      <point x="-21" y="-124" type="curve"/>
      <point x="21" y="-152" type="line"/>
      <point x="101" y="-52"/>
      <point x="185" y="76"/>
      <point x="213" y="219" type="curve" smooth="yes"/>
      <point x="242" y="368"/>
      <point x="206" y="496"/>
      <point x="163" y="596" type="curve"/>
      <point x="117" y="576" type="line"/>
      <point x="139" y="519"/>
      <point x="155" y="461"/>
      <point x="161" y="403" type="curve" smooth="yes"/>
      <point x="166" y="339"/>
      <point x="163" y="281"/>
      <point x="152" y="227" type="curve" smooth="yes"/>
    </contour>
  </outline>
</glyph>
<glyph name="asterisk" format="1">
  <advance width="445"/>
  <unicode hex="002A"/>
  <outline>
    <contour>
      <point x="242" y="424" type="line"/>
      <point x="157" y="487" type="line"/>
      <point x="118" y="436" type="line"/>
      <point x="211" y="383" type="line"/>
      <point x="97" y="329" type="line"/>
      <point x="118" y="279" type="line"/>
      <point x="225" y="341" type="line"/>
      <point x="199" y="225" type="line"/>
      <point x="257" y="225" type="line"/>
      <point x="279" y="341" type="line"/>
      <point x="363" y="278" type="line"/>
      <point x="400" y="327" type="line"/>
      <point x="309" y="380" type="line"/>
      <point x="422" y="436" type="line"/>
      <point x="401" y="487" type="line"/>
      <point x="294" y="424" type="line"/>
      <point x="318" y="540" type="line"/>
      <point x="260" y="540" type="line"/>
    </contour>
  </outline>
</glyph>
<glyph name="comma" format="1">
  <advance width="192"/>
  <unicode hex="002C"/>
  <outline>
    <contour>
      <point x="38" y="-27"/>
      <point x="0" y="-76"/>
      <point x="-10" y="-90" type="curve"/>
      <point x="13" y="-110" type="line"/>
      <point x="52" y="-81"/>
      <point x="103" y="-33"/>
      <point x="112" y="14" type="curve" smooth="yes"/>
      <point x="119" y="49"/>
      <point x="102" y="70"/>
      <point x="72" y="70" type="curve" smooth="yes"/>
      <point x="45" y="70"/>
      <point x="26" y="53"/>
      <point x="22" y="32" type="curve" smooth="yes"/>
      <point x="17" y="6"/>
      <point x="29" y="-14"/>
      <point x="53" y="-19" type="curve"/>
      <point x="50" y="-6" type="line"/>
    </contour>
  </outline>
</glyph>
<glyph name="hyphen" format="1">
  <advance width="346"/>
  <unicode hex="002D"/>
  <outline>
    <contour>
      <point x="37" y="190" type="line"/>
      <point x="283" y="190" type="line"/>
      <point x="292" y="237" type="line"/>
      <point x="46" y="237" type="line"/>
    </contour>
  </outline>
</glyph>
<glyph name="three" format="1">
  <advance width="387"/>
  <unicode hex="0033"/>
  <outline>
    <contour>
      <point x="113" y="466"/>
      <point x="69" y="453"/>
      <point x="12" y="427" type="curve"/>
      <point x="27" y="372" type="line"/>
      <point x="77" y="393"/>
      <point x="110" y="408"/>
      <point x="153" y="408" type="curve" smooth="yes"/>
      <point x="198" y="408"/>
      <point x="231" y="396"/>
      <point x="222" y="347" type="curve" smooth="yes"/>
      <point x="212" y="300"/>
      <point x="170" y="265"/>
      <point x="73" y="261" type="curve"/>
      <point x="64" y="205" type="line"/>
      <point x="166" y="205"/>
      <point x="213" y="191"/>
      <point x="202" y="132" type="curve" smooth="yes"/>
      <point x="192" y="84"/>
      <point x="155" y="54"/>
      <point x="81" y="54" type="curve" smooth="yes"/>
      <point x="40" y="54"/>
      <point x="2" y="68"/>
      <point x="-40" y="90" type="curve"/>
      <point x="-69" y="35" type="line"/>
      <point x="-24" y="13"/>
      <point x="16" y="-5"/>
      <point x="82" y="-5" type="curve" smooth="yes"/>
      <point x="175" y="-5"/>
      <point x="246" y="39"/>
      <point x="263" y="119" type="curve" smooth="yes"/>
      <point x="277" y="183"/>
      <point x="240" y="219"/>
      <point x="194" y="234" type="curve"/>
      <point x="236" y="255"/>
      <point x="273" y="294"/>
      <point x="283" y="342" type="curve" smooth="yes"/>
      <point x="299" y="425"/>
      <point x="246" y="466"/>
      <point x="161" y="466" type="curve" smooth="yes"/>
    </contour>
  </outline>
</glyph>
<glyph name="colon" format="1">
  <advance width="234"/>
  <unicode hex="003A"/>
  <outline>
    <contour>
      <point x="108" y="-6"/>
      <point x="125" y="11"/>
      <point x="129" y="32" type="curve" smooth="yes"/>
      <point x="135" y="59"/>
      <point x="121" y="80"/>
      <point x="92" y="80" type="curve" smooth="yes"/>
      <point x="67" y="80"/>
      <point x="49" y="63"/>
      <point x="45" y="42" type="curve" smooth="yes"/>
      <point x="40" y="15"/>
      <point x="54" y="-6"/>
      <point x="83" y="-6" type="curve" smooth="yes"/>
    </contour>
    <contour>
      <point x="155" y="234"/>
      <point x="172" y="251"/>
      <point x="176" y="272" type="curve" smooth="yes"/>
      <point x="181" y="299"/>
      <point x="167" y="320"/>
      <point x="138" y="320" type="curve" smooth="yes"/>
      <point x="113" y="320"/>
      <point x="96" y="303"/>
      <point x="92" y="282" type="curve" smooth="yes"/>
      <point x="87" y="255"/>
      <point x="101" y="234"/>
      <point x="130" y="234" type="curve" smooth="yes"/>
    </contour>
  </outline>
</glyph>
<glyph name="B" format="1">
  <advance width="504"/>
  <unicode hex="0042"/>
  <outline>
    <contour>
      <point x="395" y="373"/>
      <point x="395" y="428" type="curve" smooth="yes"/>
      <point x="396" y="476"/>
      <point x="357" y="493"/>
      <point x="296" y="493" type="curve" smooth="yes"/>
      <point x="192" y="493" type="line"/>
      <point x="158" y="321" type="line"/>
      <point x="234" y="321" type="line" smooth="yes"/>
      <point x="355" y="321"/>
    </contour>
    <contour>
      <point x="389" y="111"/>
      <point x="389" y="178" type="curve" smooth="yes"/>
      <point x="389" y="246"/>
      <point x="319" y="266"/>
      <point x="242" y="266" type="curve" smooth="yes"/>
      <point x="148" y="266" type="line"/>
      <point x="107" y="58" type="line"/>
      <point x="212" y="58" type="line" smooth="yes"/>
      <point x="322" y="58"/>
    </contour>
    <contour>
      <point x="416" y="280"/>
      <point x="459" y="251"/>
      <point x="459" y="179" type="curve" smooth="yes"/>
      <point x="459" y="88"/>
      <point x="385" y="0"/>
      <point x="207" y="0" type="curve" smooth="yes"/>
      <point x="30" y="0" type="line"/>
      <point x="137" y="550" type="line"/>
      <point x="333" y="550" type="line" smooth="yes"/>
      <point x="414" y="550"/>
      <point x="462" y="503"/>
      <point x="462" y="438" type="curve" smooth="yes"/>
      <point x="462" y="380"/>
      <point x="434" y="326"/>
      <point x="363" y="294" type="curve"/>
    </contour>
  </outline>
</glyph>
<glyph name="C" format="1">
  <advance width="518"/>
  <unicode hex="0043"/>
  <outline>
    <contour>
      <point x="514" y="474" type="line"/>
      <point x="474" y="489"/>
      <point x="445" y="498"/>
      <point x="388" y="498" type="curve" smooth="yes"/>
      <point x="209" y="498"/>
      <point x="121" y="348"/>
      <point x="128" y="227" type="curve" smooth="yes"/>
      <point x="128" y="110"/>
      <point x="213" y="57"/>
      <point x="318" y="57" type="curve" smooth="yes"/>
      <point x="364" y="57"/>
      <point x="402" y="68"/>
      <point x="450" y="83" type="curve"/>
      <point x="456" y="20" type="line"/>
      <point x="401" y="1"/>
      <point x="359" y="-9"/>
      <point x="296" y="-9" type="curve" smooth="yes"/>
      <point x="161" y="-9"/>
      <point x="57" y="85"/>
      <point x="57" y="223" type="curve" smooth="yes"/>
      <point x="57" y="422"/>
      <point x="201" y="558"/>
      <point x="389" y="558" type="curve" smooth="yes"/>
      <point x="453" y="558"/>
      <point x="480" y="555"/>
      <point x="549" y="530" type="curve"/>
    </contour>
    <contour>
      <point x="389" y="550" type="move" name="top.cap"/>
    </contour>
  </outline>
</glyph>
<glyph name="E" format="1">
  <advance width="442"/>
  <unicode hex="0045"/>
  <outline>
    <contour>
      <point x="137" y="550" type="line"/>
      <point x="459" y="550" type="line"/>
      <point x="448" y="494" type="line"/>
      <point x="192" y="494" type="line"/>
      <point x="157" y="313" type="line"/>
      <point x="393" y="313" type="line"/>
      <point x="382" y="256" type="line"/>
      <point x="146" y="256" type="line"/>
      <point x="107" y="58" type="line"/>
      <point x="363" y="58" type="line"/>
      <point x="352" y="0" type="line"/>
      <point x="30" y="0" type="line"/>
    </contour>
    <contour>
      <point x="298" y="550" type="move" name="top.cap"/>
    </contour>
  </outline>
</glyph>
<glyph name="J" format="1">
  <advance width="316"/>
  <unicode hex="004A"/>
  <outline>
    <contour>
      <point x="325" y="550" type="line"/>
      <point x="251" y="167" type="line" smooth="yes"/>
      <point x="229" y="56"/>
      <point x="175" y="-7"/>
      <point x="43" y="-7" type="curve" smooth="yes"/>
      <point x="20" y="-7"/>
      <point x="-5" y="-5"/>
      <point x="-28" y="1" type="curve"/>
      <point x="-2" y="62" type="line"/>
      <point x="18" y="57"/>
      <point x="36" y="55"/>
      <point x="53" y="55" type="curve"/>
      <point x="140" y="55"/>
      <point x="168" y="93"/>
      <point x="192" y="200" type="curve"/>
      <point x="260" y="550" type="line"/>
    </contour>
    <contour>
      <point x="292" y="550" type="move" name="top.cap"/>
    </contour>
  </outline>
</glyph>
<glyph name="L" format="1">
  <advance width="400"/>
  <unicode hex="004C"/>
  <outline>
    <contour>
      <point x="203" y="550" type="line"/>
      <point x="110" y="58" type="line"/>
      <point x="354" y="58" type="line"/>
      <point x="343" y="0" type="line"/>
      <point x="30" y="0" type="line"/>
      <point x="137" y="550" type="line"/>
    </contour>
    <contour>
      <point x="246" y="550" type="move" name="top.cap"/>
    </contour>
    <contour>
      <point x="186" y="0" type="move" name="bottom"/>
    </contour>
  </outline>
</glyph>
<glyph name="N" format="1">
  <advance width="585"/>
  <unicode hex="004E"/>
  <outline>
    <contour>
      <point x="219" y="550" type="line"/>
      <point x="419" y="89" type="line"/>
      <point x="520" y="550" type="line"/>
      <point x="588" y="550" type="line"/>
      <point x="469" y="0" type="line"/>
      <point x="386" y="0" type="line"/>
      <point x="185" y="463" type="line"/>
      <point x="96" y="0" type="line"/>
      <point x="30" y="0" type="line"/>
      <point x="137" y="550" type="line"/>
    </contour>
    <contour>
      <point x="370" y="550" type="move" name="top.cap"/>
    </contour>
    <contour>
      <point x="245" y="0" type="move" name="bottom"/>
    </contour>
  </outline>
</glyph>
<glyph name="Z" format="1">
  <advance width="475"/>
  <unicode hex="005A"/>
  <outline>
    <contour>
      <point x="507" y="550" type="line"/>
      <point x="498" y="509" type="line"/>
      <point x="104" y="58" type="line"/>
      <point x="413" y="58" type="line"/>
      <point x="402" y="0" type="line"/>
      <point x="-1" y="0" type="line"/>
      <point x="8" y="43" type="line"/>
      <point x="400" y="494" type="line"/>
      <point x="106" y="494" type="line"/>
      <point x="117" y="550" type="line"/>
    </contour>
    <contour>
      <point x="302" y="550" type="move" name="top.cap"/>
    </contour>
  </outline>
</glyph>
<glyph name="backslash" format="1">
  <advance width="295"/>
  <unicode hex="005C"/>
  <outline>
    <contour>
      <point x="236" y="-35" type="line"/>
      <point x="177" y="-35" type="line"/>
      <point x="100" y="550" type="line"/>
      <point x="158" y="550" type="line"/>
    </contour>
  </outline>
</glyph>
<glyph name="asciicircum" format="1">
  <advance width="397"/>
  <unicode hex="005E"/>
  <outline>
    <contour>
      <point x="140" y="407" type="line"/>
      <point x="105" y="449" type="line"/>
      <point x="276" y="601" type="line"/>
      <point x="390" y="441" type="line"/>
      <point x="344" y="407" type="line"/>
      <point x="263" y="517" type="line"/>
    </contour>
  </outline>
</glyph>
<glyph name="underscore" format="1">
  <advance width="452"/>
  <unicode hex="005F"/>
  <outline>
    <contour>
      <point x="350" y="-25" type="line"/>
      <point x="339" y="-83" type="line"/>
      <point x="7" y="-83" type="line"/>
      <point x="18" y="-25" type="line"/>
    </contour>
  </outline>
</glyph>
<glyph name="grave" format="1">
  <advance width="193"/>
  <unicode hex="0060"/>
  <outline>
    <contour>
      <point x="5" y="550" type="line"/>
      <point x="132" y="427" type="line"/>
      <point x="171" y="465" type="line"/>
      <point x="47" y="593" type="line"/>
    </contour>
    <contour>
      <point x="73" y="384" type="move" name="_top"/>
    </contour>
  </outline>
</glyph>
<glyph name="b" format="1">
  <advance width="439"/>
  <unicode hex="0062"/>
  <outline>
    <contour>
      <point x="141" y="47"/>
      <point x="121" y="55"/>
      <point x="97" y="69" type="curve"/>
      <point x="151" y="323" type="line"/>
      <point x="181" y="334"/>
      <point x="210" y="339"/>
      <point x="241" y="339" type="curve" smooth="yes"/>
      <point x="325" y="339"/>
      <point x="350" y="280"/>
      <point x="334" y="197" type="curve" smooth="yes"/>
      <point x="314" y="93"/>
      <point x="264" y="47"/>
      <point x="177" y="47" type="curve" smooth="yes"/>
    </contour>
    <contour>
      <point x="115" y="6"/>
      <point x="149" y="-8"/>
      <point x="190" y="-8" type="curve" smooth="yes"/>
      <point x="304" y="-8"/>
      <point x="378" y="71"/>
      <point x="399" y="183" type="curve" smooth="yes"/>
      <point x="424" y="310"/>
      <point x="364" y="392"/>
      <point x="251" y="392" type="curve" smooth="yes"/>
      <point x="222" y="392"/>
      <point x="189" y="389"/>
      <point x="157" y="375" type="curve"/>
      <point x="189" y="532" type="line"/>
      <point x="124" y="532" type="line"/>
      <point x="21" y="0" type="line"/>
      <point x="68" y="0" type="line"/>
      <point x="86" y="28" type="line"/>
    </contour>
  </outline>
</glyph>
<glyph name="e" format="1">
  <advance width="402"/>
  <unicode hex="0065"/>
  <outline>
    <contour>
      <point x="145" y="389"/>
      <point x="62" y="308"/>
      <point x="38" y="190" type="curve" smooth="yes"/>
      <point x="13" y="64"/>
      <point x="68" y="-8"/>
      <point x="194" y="-8" type="curve" smooth="yes"/>
      <point x="235" y="-8"/>
      <point x="279" y="-1"/>
      <point x="319" y="12" type="curve"/>
      <point x="312" y="62" type="line"/>
      <point x="279" y="51"/>
      <point x="246" y="46"/>
      <point x="215" y="46" type="curve" smooth="yes"/>
      <point x="124" y="46"/>
      <point x="80" y="86"/>
      <point x="97" y="170" type="curve"/>
      <point x="359" y="172" type="line"/>
      <point x="364" y="180" type="line"/>
      <point x="369" y="213" type="line" smooth="yes"/>
      <point x="385" y="324"/>
      <point x="349" y="389"/>
      <point x="244" y="389" type="curve" smooth="yes"/>
    </contour>
    <contour>
      <point x="108" y="222" type="line"/>
      <point x="127" y="282"/>
      <point x="172" y="338"/>
      <point x="249" y="338" type="curve" smooth="yes"/>
      <point x="306" y="338"/>
      <point x="321" y="288"/>
      <point x="309" y="226" type="curve"/>
    </contour>
    <contour>
      <point x="241" y="384" type="move" name="top"/>
    </contour>
  </outline>
</glyph>
<glyph name="l" format="1">
  <advance width="224"/>
  <unicode hex="006C"/>
  <outline>
    <contour>
      <point x="93" y="51"/>
      <point x="98" y="76"/>
      <point x="104" y="104" type="curve" smooth="yes"/>
      <point x="187" y="533" type="line"/>
      <point x="124" y="533" type="line"/>
      <point x="35" y="85" type="line" smooth="yes"/>
      <point x="24" y="31"/>
      <point x="53" y="-9"/>
      <point x="105" y="-9" type="curve" smooth="yes"/>
      <point x="141" y="-9"/>
      <point x="168" y="3"/>
      <point x="184" y="9" type="curve"/>
      <point x="177" y="58" type="line"/>
      <point x="164" y="54"/>
      <point x="153" y="51"/>
      <point x="140" y="51" type="curve" smooth="yes"/>
    </contour>
    <contour>
      <point x="236" y="533" type="move" name="top"/>
    </contour>
    <contour>
      <point x="102" y="0" type="move" name="bottom"/>
    </contour>
  </outline>
</glyph>
<glyph name="m" format="1">
  <advance width="634"/>
  <unicode hex="006D"/>
  <outline>
    <contour>
      <point x="478" y="0" type="line"/>
      <point x="545" y="0" type="line"/>
      <point x="595" y="258" type="line" smooth="yes"/>
      <point x="610" y="334"/>
      <point x="578" y="390"/>
      <point x="495" y="390" type="curve" smooth="yes"/>
      <point x="445" y="390"/>
      <point x="403" y="370"/>
      <point x="357" y="340" type="curve"/>
      <point x="344" y="368"/>
      <point x="313" y="390"/>
      <point x="266" y="390" type="curve" smooth="yes"/>
      <point x="252" y="390"/>
      <point x="234" y="390"/>
      <point x="212" y="386" type="curve" smooth="yes"/>
      <point x="196" y="380"/>
      <point x="174" y="371"/>
      <point x="144" y="353" type="curve"/>
      <point x="137" y="384" type="line"/>
      <point x="93" y="384" type="line"/>
      <point x="19" y="0" type="line"/>
      <point x="84" y="0" type="line"/>
      <point x="146" y="308" type="line"/>
      <point x="184" y="327"/>
      <point x="216" y="338"/>
      <point x="242" y="338" type="curve" smooth="yes"/>
      <point x="294" y="338"/>
      <point x="308" y="304"/>
      <point x="297" y="246" type="curve" smooth="yes"/>
      <point x="249" y="0" type="line"/>
      <point x="314" y="0" type="line"/>
      <point x="364" y="258" type="line" smooth="yes"/>
      <point x="367" y="276"/>
      <point x="369" y="291"/>
      <point x="370" y="300" type="curve"/>
      <point x="413" y="326"/>
      <point x="443" y="338"/>
      <point x="472" y="338" type="curve" smooth="yes"/>
      <point x="524" y="338"/>
      <point x="537" y="304"/>
      <point x="526" y="246" type="curve" smooth="yes"/>
    </contour>
  </outline>
</glyph>
<glyph name="p" format="1">
  <advance width="440"/>
  <unicode hex="0070"/>
  <outline>
    <contour>
      <point x="323" y="335"/>
      <point x="350" y="278"/>
      <point x="334" y="194" type="curve" smooth="yes"/>
      <point x="317" y="107"/>
      <point x="260" y="42"/>
      <point x="175" y="42" type="curve" smooth="yes"/>
      <point x="149" y="42"/>
      <point x="120" y="46"/>
      <point x="95" y="59" type="curve"/>
      <point x="148" y="311" type="line"/>
      <point x="178" y="327"/>
      <point x="201" y="335"/>
      <point x="241" y="335" type="curve" smooth="yes"/>
    </contour>
    <contour>
      <point x="89" y="10" type="line"/>
      <point x="117" y="-3"/>
      <point x="147" y="-10"/>
      <point x="180" y="-10" type="curve" smooth="yes"/>
      <point x="292" y="-10"/>
      <point x="379" y="66"/>
      <point x="403" y="191" type="curve" smooth="yes"/>
      <point x="427" y="318"/>
      <point x="351" y="389"/>
      <point x="259" y="389" type="curve" smooth="yes"/>
      <point x="222" y="389"/>
      <point x="184" y="379"/>
      <point x="147" y="356" type="curve"/>
      <point x="140" y="384" type="line"/>
      <point x="95" y="384" type="line"/>
      <point x="-20" y="-208" type="line"/>
      <point x="45" y="-208" type="line"/>
    </contour>
  </outline>
</glyph>
<glyph name="r" format="1">
  <advance width="292"/>
  <unicode hex="0072"/>
  <outline>
    <contour>
      <point x="222" y="389"/>
      <point x="185" y="378"/>
      <point x="147" y="353" type="curve"/>
      <point x="140" y="384" type="line"/>
      <point x="94" y="384" type="line"/>
      <point x="19" y="0" type="line"/>
      <point x="84" y="0" type="line"/>
      <point x="145" y="303" type="line"/>
      <point x="177" y="322"/>
      <point x="208" y="332"/>
      <point x="236" y="332" type="curve" smooth="yes"/>
      <point x="255" y="332"/>
      <point x="273" y="329"/>
      <point x="288" y="321" type="curve"/>
      <point x="319" y="377" type="line"/>
      <point x="303" y="385"/>
      <point x="289" y="389"/>
      <point x="257" y="389" type="curve" smooth="yes"/>
    </contour>
    <contour>
      <point x="220" y="384" type="move" name="top"/>
    </contour>
    <contour>
      <point x="47" y="0" type="move" name="bottom"/>
    </contour>
  </outline>
</glyph>
<glyph name="braceright" format="1">
  <advance width="310"/>
  <unicode hex="007D"/>
  <outline>
    <contour>
      <point x="221" y="180"/>
      <point x="170" y="140"/>
      <point x="159" y="86" type="curve" smooth="yes"/>
      <point x="145" y="11" type="line" smooth="yes"/>
      <point x="122" y="-112"/>
      <point x="45" y="-148"/>
      <point x="-31" y="-158" type="curve"/>
      <point x="-32" y="-98" type="line"/>
      <point x="31" y="-84"/>
      <point x="70" y="-68"/>
      <point x="90" y="30" type="curve" smooth="yes"/>
      <point x="101" y="91" type="line" smooth="yes"/>
      <point x="112" y="153"/>
      <point x="155" y="196"/>
      <point x="195" y="222" type="curve"/>
      <point x="166" y="246"/>
      <point x="141" y="284"/>
      <point x="153" y="343" type="curve" smooth="yes"/>
      <point x="163" y="395" type="line" smooth="yes"/>
      <point x="181" y="492"/>
      <point x="153" y="518"/>
      <point x="91" y="533" type="curve"/>
      <point x="119" y="586" type="line"/>
      <point x="180" y="576"/>
      <point x="245" y="525"/>
      <point x="225" y="421" type="curve" smooth="yes"/>
      <point x="210" y="346" type="line" smooth="yes"/>
      <point x="199" y="292"/>
      <point x="238" y="248"/>
      <point x="285" y="240" type="curve"/>
      <point x="271" y="188" type="line"/>
    </contour>
  </outline>
</glyph>
<glyph name="currency" format="1">
  <advance width="476"/>
  <unicode hex="00A4"/>
  <outline>
    <contour>
      <point x="307" y="83"/>
      <point x="363" y="138"/>
      <point x="377" y="212" type="curve" smooth="yes"/>
      <point x="392" y="291"/>
      <point x="355" y="350"/>
      <point x="267" y="350" type="curve" smooth="yes"/>
      <point x="192" y="350"/>
      <point x="126" y="295"/>
      <point x="112" y="222" type="curve" smooth="yes"/>
      <point x="96" y="142"/>
      <point x="144" y="83"/>
      <point x="223" y="83" type="curve" smooth="yes"/>
    </contour>
    <contour>
      <point x="184" y="140"/>
      <point x="160" y="170"/>
      <point x="168" y="213" type="curve" smooth="yes"/>
      <point x="177" y="261"/>
      <point x="218" y="295"/>
      <point x="266" y="295" type="curve" smooth="yes"/>
      <point x="309" y="295"/>
      <point x="333" y="265"/>
      <point x="325" y="223" type="curve" smooth="yes"/>
      <point x="316" y="174"/>
      <point x="275" y="140"/>
      <point x="228" y="140" type="curve" smooth="yes"/>
    </contour>
    <contour>
      <point x="336" y="149" type="line"/>
      <point x="292" y="113" type="line"/>
      <point x="356" y="38" type="line"/>
      <point x="398" y="76" type="line"/>
    </contour>
    <contour>
      <point x="45" y="80" type="line"/>
      <point x="81" y="39" type="line"/>
      <point x="163" y="109" type="line"/>
      <point x="126" y="152" type="line"/>
    </contour>
    <contour>
      <point x="319" y="323" type="line"/>
      <point x="356" y="282" type="line"/>
      <point x="437" y="352" type="line"/>
      <point x="401" y="395" type="line"/>
    </contour>
    <contour>
      <point x="132" y="396" type="line"/>
      <point x="88" y="360" type="line"/>
      <point x="153" y="285" type="line"/>
      <point x="195" y="323" type="line"/>
    </contour>
  </outline>
</glyph>
<glyph name="section" format="1">
  <advance width="407"/>
  <unicode hex="00A7"/>
  <outline>
    <contour>
      <point x="125" y="46"/>
      <point x="82" y="58"/>
      <point x="47" y="71" type="curve"/>
      <point x="22" y="21" type="line"/>
      <point x="55" y="7"/>
      <point x="104" y="-9"/>
      <point x="165" y="-9" type="curve" smooth="yes"/>
      <point x="255" y="-9"/>
      <point x="313" y="38"/>
      <point x="323" y="89" type="curve" smooth="yes"/>
      <point x="335" y="148"/>
      <point x="311" y="176"/>
      <point x="243" y="206" type="curve" smooth="yes"/>
      <point x="184" y="232"/>
      <point x="140" y="244"/>
      <point x="147" y="282" type="curve" smooth="yes"/>
      <point x="154" y="316"/>
      <point x="199" y="335"/>
      <point x="257" y="335" type="curve"/>
      <point x="189" y="383" type="line"/>
      <point x="137" y="372"/>
      <point x="93" y="345"/>
      <point x="83" y="291" type="curve"/>
      <point x="70" y="223"/>
      <point x="121" y="198"/>
      <point x="150" y="185" type="curve"/>
      <point x="237" y="144"/>
      <point x="265" y="137"/>
      <point x="262" y="104" type="curve" smooth="yes"/>
      <point x="258" y="64"/>
      <point x="207" y="46"/>
      <point x="163" y="46" type="curve" smooth="yes"/>
    </contour>
    <contour>
      <point x="258" y="157" type="line"/>
      <point x="317" y="172"/>
      <point x="355" y="209"/>
      <point x="363" y="249" type="curve" smooth="yes"/>
      <point x="375" y="308"/>
      <point x="351" y="332"/>
      <point x="283" y="366" type="curve" smooth="yes"/>
      <point x="223" y="396"/>
      <point x="180" y="404"/>
      <point x="187" y="442" type="curve" smooth="yes"/>
      <point x="194" y="476"/>
      <point x="239" y="495"/>
      <point x="297" y="495" type="curve" smooth="yes"/>
      <point x="332" y="495"/>
      <point x="361" y="485"/>
      <point x="379" y="477" type="curve"/>
      <point x="402" y="526" type="line"/>
      <point x="372" y="540"/>
      <point x="338" y="549"/>
      <point x="293" y="549" type="curve" smooth="yes"/>
      <point x="218" y="549"/>
      <point x="138" y="526"/>
      <point x="123" y="451" type="curve"/>
      <point x="110" y="383"/>
      <point x="161" y="358"/>
      <point x="190" y="345" type="curve"/>
      <point x="277" y="304"/>
      <point x="304" y="297"/>
      <point x="302" y="264" type="curve" smooth="yes"/>
      <point x="300" y="230"/>
      <point x="261" y="206"/>
      <point x="210" y="206" type="curve"/>
    </contour>
  </outline>
</glyph>
<glyph name="logicalnot" format="1">
  <advance width="482"/>
  <unicode hex="00AC"/>
  <outline>
    <contour>
      <point x="427" y="238" type="line"/>
      <point x="427" y="72" type="line"/>
      <point x="377" y="72" type="line"/>
      <point x="377" y="190" type="line"/>
      <point x="55" y="190" type="line"/>
      <point x="55" y="238" type="line"/>
    </contour>
  </outline>
</glyph>
<glyph name="macron" format="1">
  <advance width="217"/>
  <unicode hex="00AF"/>
  <outline>
    <contour>
      <point x="-11" y="466" type="line"/>
      <point x="196" y="466" type="line"/>
      <point x="206" y="518" type="line"/>
      <point x="-1" y="518" type="line"/>
    </contour>
    <contour>
      <point x="78" y="384" type="move" name="_top"/>
    </contour>
  </outline>
</glyph>
<glyph name="cedilla" format="1">
  <advance width="194"/>
  <unicode hex="00B8"/>
  <outline>
    <contour>
      <point x="-56" y="-160"/>
      <point x="-71" y="-157"/>
      <point x="-116" y="-142" type="curve"/>
      <point x="-137" y="-185" type="line"/>
      <point x="-89" y="-201"/>
      <point x="-75" y="-207"/>
      <point x="-43" y="-207" type="curve" smooth="yes"/>
      <point x="14" y="-207"/>
      <point x="47" y="-180"/>
      <point x="55" y="-141" type="curve" smooth="yes"/>
      <point x="66" y="-84"/>
      <point x="35" y="-63"/>
      <point x="-15" y="-49" type="curve"/>
      <point x="13" y="11" type="line"/>
      <point x="-38" y="11" type="line"/>
      <point x="-79" y="-81" type="line"/>
      <point x="-24" y="-95" type="line"/>
      <point x="-7" y="-99"/>
      <point x="11" y="-107"/>
      <point x="8" y="-126" type="curve" smooth="yes"/>
      <point x="3" y="-151"/>
      <point x="-12" y="-164"/>
      <point x="-43" y="-161" type="curve"/>
    </contour>
    <contour>
      <point x="-17" y="0" type="move" name="_bottom"/>
    </contour>
  </outline>
</glyph>
<glyph name="ordmasculine" format="1">
  <advance width="305"/>
  <unicode hex="00BA"/>
  <outline>
    <contour>
      <point x="155" y="506"/>
      <point x="132" y="447"/>
      <point x="131" y="406" type="curve" smooth="yes"/>
      <point x="132" y="368"/>
      <point x="152" y="344"/>
      <point x="186" y="344" type="curve" smooth="yes"/>
      <point x="242" y="344"/>
      <point x="264" y="397"/>
      <point x="264" y="445" type="curve" smooth="yes"/>
      <point x="264" y="483"/>
      <point x="243" y="506"/>
      <point x="209" y="506" type="curve" smooth="yes"/>
    </contour>
    <contour>
      <point x="118" y="307"/>
      <point x="84" y="348"/>
      <point x="84" y="398" type="curve" smooth="yes"/>
      <point x="84" y="465"/>
      <point x="115" y="543"/>
      <point x="220" y="543" type="curve" smooth="yes"/>
      <point x="278" y="543"/>
      <point x="312" y="502"/>
      <point x="312" y="452" type="curve" smooth="yes"/>
      <point x="312" y="387"/>
      <point x="282" y="307"/>
      <point x="176" y="307" type="curve" smooth="yes"/>
    </contour>
  </outline>
</glyph>
<glyph name="questiondown" format="1">
  <advance width="398"/>
  <unicode hex="00BF"/>
  <outline>
    <contour>
      <point x="276" y="483"/>
      <point x="261" y="469"/>
      <point x="258" y="450" type="curve" smooth="yes"/>
      <point x="253" y="425"/>
      <point x="264" y="407"/>
      <point x="291" y="407" type="curve" smooth="yes"/>
      <point x="314" y="407"/>
      <point x="328" y="421"/>
      <point x="332" y="440" type="curve" smooth="yes"/>
      <point x="336" y="465"/>
      <point x="325" y="483"/>
      <point x="298" y="483" type="curve" smooth="yes"/>
    </contour>
    <contour>
      <point x="240" y="-55"/>
      <point x="287" y="-38"/>
      <point x="326" y="-22" type="curve"/>
      <point x="312" y="34" type="line"/>
      <point x="278" y="19"/>
      <point x="241" y="3"/>
      <point x="185" y="3" type="curve" smooth="yes"/>
      <point x="128" y="3"/>
      <point x="99" y="26"/>
      <point x="109" y="77" type="curve" smooth="yes"/>
      <point x="122" y="142"/>
      <point x="199" y="179"/>
      <point x="253" y="229" type="curve"/>
      <point x="289" y="271"/>
      <point x="301" y="319"/>
      <point x="307" y="349" type="curve"/>
      <point x="245" y="353" type="line"/>
      <point x="231" y="280"/>
      <point x="200" y="261"/>
      <point x="143" y="217" type="curve"/>
      <point x="100" y="180"/>
      <point x="61" y="146"/>
      <point x="49" y="82" type="curve" smooth="yes"/>
      <point x="31" y="-10"/>
      <point x="93" y="-55"/>
      <point x="177" y="-55" type="curve" smooth="yes"/>
    </contour>
  </outline>
</glyph>
<glyph name="Aring" format="1">
  <advance width="492"/>
  <unicode hex="00C5"/>
  <outline>
    <contour>
      <point x="360" y="539" type="line"/>
      <point x="397" y="556"/>
      <point x="424" y="587"/>
      <point x="430" y="622" type="curve" smooth="yes"/>
      <point x="441" y="679"/>
      <point x="401" y="727"/>
      <point x="343" y="727" type="curve" smooth="yes"/>
      <point x="288" y="727"/>
      <point x="236" y="683"/>
      <point x="226" y="632" type="curve" smooth="yes"/>
      <point x="219" y="591"/>
      <point x="238" y="556"/>
      <point x="267" y="539" type="curve"/>
      <point x="-22" y="0" type="line"/>
      <point x="54" y="0" type="line"/>
      <point x="137" y="161" type="line"/>
      <point x="347" y="161" type="line"/>
      <point x="368" y="0" type="line"/>
      <point x="440" y="0" type="line"/>
    </contour>
    <contour>
      <point x="276" y="658"/>
      <point x="305" y="684"/>
      <point x="342" y="684" type="curve" smooth="yes"/>
      <point x="372" y="684"/>
      <point x="392" y="660"/>
      <point x="386" y="632" type="curve" smooth="yes"/>
      <point x="379" y="598"/>
      <point x="346" y="570"/>
      <point x="311" y="570" type="curve" smooth="yes"/>
      <point x="279" y="570"/>
      <point x="263" y="593"/>
      <point x="269" y="622" type="curve" smooth="yes"/>
    </contour>
    <contour>
      <point x="167" y="218" type="line"/>
      <point x="304" y="481" type="line"/>
      <point x="339" y="218" type="line"/>
    </contour>
  </outline>
</glyph>
<glyph name="Ccedilla" format="1">
  <advance width="518"/>
  <unicode hex="00C7"/>
  <outline>
    <contour>
      <point x="265" y="-173"/>
      <point x="288" y="-166"/>
      <point x="292" y="-141" type="curve" smooth="yes"/>
      <point x="296" y="-123"/>
      <point x="284" y="-111"/>
      <point x="259" y="-105" type="curve" smooth="yes"/>
      <point x="194" y="-91" type="line"/>
      <point x="245" y="22" type="line"/>
      <point x="302" y="11" type="line"/>
      <point x="271" y="-52" type="line"/>
      <point x="324" y="-67"/>
      <point x="361" y="-86"/>
      <point x="348" y="-154" type="curve" smooth="yes"/>
      <point x="340" y="-196"/>
      <point x="296" y="-226"/>
      <point x="245" y="-226" type="curve" smooth="yes"/>
      <point x="209" y="-226"/>
      <point x="181" y="-216"/>
      <point x="144" y="-205" type="curve"/>
      <point x="167" y="-153" type="line"/>
      <point x="196" y="-162"/>
      <point x="217" y="-171"/>
      <point x="240" y="-172" type="curve" smooth="yes"/>
    </contour>
    <component base="C"/>
  </outline>
</glyph>
<glyph name="Eth" format="1">
  <advance width="594"/>
  <unicode hex="00D0"/>
  <outline>
    <contour>
      <point x="342" y="308" type="line"/>
      <point x="331" y="256" type="line"/>
      <point x="26" y="256" type="line"/>
      <point x="36" y="308" type="line"/>
    </contour>
    <component base="D" xOffset="36"/>
  </outline>
</glyph>
<glyph name="multiply" format="1">
  <advance width="436"/>
  <unicode hex="00D7"/>
  <outline>
    <contour>
      <point x="312" y="80" type="line"/>
      <point x="215" y="177" type="line"/>
      <point x="119" y="80" type="line"/>
      <point x="80" y="120" type="line"/>
      <point x="175" y="217" type="line"/>
      <point x="81" y="312" type="line"/>
      <point x="123" y="355" type="line"/>
      <point x="220" y="260" type="line"/>
      <point x="315" y="356" type="line"/>
      <point x="356" y="317" type="line"/>
      <point x="259" y="220" type="line"/>
      <point x="355" y="123" type="line"/>
    </contour>
  </outline>
</glyph>
<glyph name="Thorn" format="1">
  <advance width="469"/>
  <unicode hex="00DE"/>
  <outline>
    <contour>
      <point x="249" y="450"/>
      <point x="220" y="448"/>
      <point x="181" y="445" type="curve"/>
      <point x="203" y="550" type="line"/>
      <point x="137" y="550" type="line"/>
      <point x="30" y="0" type="line"/>
      <point x="96" y="0" type="line"/>
      <point x="123" y="129" type="line"/>
      <point x="147" y="127"/>
      <point x="169" y="126"/>
      <point x="192" y="126" type="curve" smooth="yes"/>
      <point x="322" y="126"/>
      <point x="427" y="153"/>
      <point x="453" y="287" type="curve" smooth="yes"/>
      <point x="474" y="394"/>
      <point x="405" y="450"/>
      <point x="277" y="450" type="curve" smooth="yes"/>
    </contour>
    <contour>
      <point x="371" y="207"/>
      <point x="309" y="185"/>
      <point x="208" y="185" type="curve" smooth="yes"/>
      <point x="188" y="185"/>
      <point x="161" y="185"/>
      <point x="131" y="188" type="curve"/>
      <point x="174" y="388" type="line"/>
      <point x="205" y="389"/>
      <point x="232" y="390"/>
      <point x="257" y="390" type="curve" smooth="yes"/>
      <point x="344" y="390"/>
      <point x="403" y="372"/>
      <point x="389" y="297" type="curve" smooth="yes"/>
    </contour>
  </outline>
</glyph>
<glyph name="ae" format="1">
  <advance width="630"/>
  <unicode hex="00E6"/>
  <outline>
    <contour>
      <point x="420" y="389"/>
      <point x="378" y="372"/>
      <point x="338" y="333" type="curve"/>
      <point x="321" y="365"/>
      <point x="288" y="388"/>
      <point x="223" y="388" type="curve" smooth="yes"/>
      <point x="184" y="388"/>
      <point x="139" y="380"/>
      <point x="95" y="366" type="curve"/>
      <point x="104" y="316" type="line"/>
      <point x="136" y="326"/>
      <point x="182" y="333"/>
      <point x="211" y="333" type="curve" smooth="yes"/>
      <point x="291" y="333"/>
      <point x="300" y="297"/>
      <point x="283" y="225" type="curve"/>
      <point x="224" y="225"/>
      <point x="172" y="219"/>
      <point x="130" y="209" type="curve" smooth="yes"/>
      <point x="79" y="197"/>
      <point x="31" y="161"/>
      <point x="20" y="101" type="curve" smooth="yes"/>
      <point x="7" y="35"/>
      <point x="55" y="-10"/>
      <point x="125" y="-10" type="curve" smooth="yes"/>
      <point x="187" y="-10"/>
      <point x="244" y="12"/>
      <point x="287" y="58" type="curve"/>
      <point x="305" y="16"/>
      <point x="348" y="-8"/>
      <point x="421" y="-8" type="curve" smooth="yes"/>
      <point x="461" y="-8"/>
      <point x="504" y="-1"/>
      <point x="545" y="12" type="curve"/>
      <point x="538" y="62" type="line"/>
      <point x="504" y="51"/>
      <point x="472" y="46"/>
      <point x="441" y="46" type="curve" smooth="yes"/>
      <point x="344" y="46"/>
      <point x="314" y="91"/>
      <point x="330" y="170" type="curve"/>
      <point x="586" y="172" type="line"/>
      <point x="592" y="180" type="line"/>
      <point x="597" y="213" type="line" smooth="yes"/>
      <point x="619" y="323"/>
      <point x="574" y="389"/>
      <point x="471" y="389" type="curve" smooth="yes"/>
    </contour>
    <contour>
      <point x="89" y="42"/>
      <point x="76" y="65"/>
      <point x="82" y="98" type="curve" smooth="yes"/>
      <point x="98" y="178"/>
      <point x="212" y="177"/>
      <point x="275" y="178" type="curve"/>
      <point x="253" y="88" type="line"/>
      <point x="220" y="58"/>
      <point x="185" y="42"/>
      <point x="136" y="42" type="curve" smooth="yes"/>
    </contour>
    <contour>
      <point x="341" y="222" type="line"/>
      <point x="361" y="282"/>
      <point x="399" y="338"/>
      <point x="475" y="338" type="curve" smooth="yes"/>
      <point x="533" y="338"/>
      <point x="547" y="288"/>
      <point x="535" y="226" type="curve"/>
    </contour>
  </outline>
</glyph>
<glyph name="oslash" format="1">
  <advance width="462"/>
  <unicode hex="00F8"/>
  <outline>
    <contour>
      <point x="342" y="338"/>
      <point x="369" y="274"/>
      <point x="354" y="195" type="curve" smooth="yes"/>
      <point x="338" y="111"/>
      <point x="282" y="44"/>
      <point x="203" y="44" type="curve" smooth="yes"/>
      <point x="126" y="44"/>
      <point x="99" y="107"/>
      <point x="114" y="185" type="curve" smooth="yes"/>
      <point x="131" y="270"/>
      <point x="188" y="338"/>
      <point x="268" y="338" type="curve" smooth="yes"/>
    </contour>
    <contour>
      <point x="312" y="-9"/>
      <point x="396" y="70"/>
      <point x="418" y="186" type="curve" smooth="yes"/>
      <point x="442" y="310"/>
      <point x="391" y="389"/>
      <point x="270" y="389" type="curve" smooth="yes"/>
      <point x="151" y="389"/>
      <point x="72" y="313"/>
      <point x="49" y="195" type="curve" smooth="yes"/>
      <point x="25" y="73"/>
      <point x="78" y="-9"/>
      <point x="197" y="-9" type="curve" smooth="yes"/>
    </contour>
    <contour>
      <point x="-3" y="28" type="line"/>
      <point x="34" y="-12" type="line"/>
      <point x="465" y="355" type="line"/>
      <point x="428" y="399" type="line"/>
    </contour>
  </outline>
</glyph>
<glyph name="eogonek" format="1">
  <advance width="405"/>
  <unicode hex="0119"/>
  <outline>
    <contour>
      <point x="138" y="-45"/>
      <point x="104" y="-90"/>
      <point x="96" y="-130" type="curve" smooth="yes"/>
      <point x="88" y="-174"/>
      <point x="109" y="-211"/>
      <point x="170" y="-211" type="curve" smooth="yes"/>
      <point x="203" y="-211"/>
      <point x="230" y="-203"/>
      <point x="271" y="-176" type="curve"/>
      <point x="256" y="-141" type="line"/>
      <point x="239" y="-152"/>
      <point x="209" y="-164"/>
      <point x="187" y="-164" type="curve" smooth="yes"/>
      <point x="161" y="-164"/>
      <point x="151" y="-151"/>
      <point x="156" y="-125" type="curve" smooth="yes"/>
      <point x="163" y="-93"/>
      <point x="191" y="-61"/>
      <point x="237" y="-29" type="curve" smooth="yes"/>
      <point x="257" y="-12"/>
      <point x="290" y="4"/>
      <point x="319" y="12" type="curve"/>
      <point x="312" y="62" type="line"/>
      <point x="279" y="51"/>
      <point x="246" y="46"/>
      <point x="215" y="46" type="curve" smooth="yes"/>
      <point x="124" y="46"/>
      <point x="80" y="86"/>
      <point x="97" y="170" type="curve"/>
      <point x="361" y="172" type="line"/>
      <point x="367" y="180" type="line"/>
      <point x="372" y="213" type="line" smooth="yes"/>
      <point x="393" y="323"/>
      <point x="349" y="389"/>
      <point x="251" y="389" type="curve" smooth="yes"/>
      <point x="135" y="389"/>
      <point x="62" y="308"/>
      <point x="38" y="190" type="curve" smooth="yes"/>
      <point x="4" y="18"/>
      <point x="122" y="-8"/>
      <point x="195" y="-6" type="curve"/>
    </contour>
    <contour>
      <point x="108" y="222" type="line"/>
      <point x="127" y="282"/>
      <point x="172" y="338"/>
      <point x="249" y="338" type="curve" smooth="yes"/>
      <point x="306" y="338"/>
      <point x="321" y="288"/>
      <point x="309" y="226" type="curve"/>
    </contour>
  </outline>
</glyph>
<glyph name="ij" format="1">
  <advance width="320"/>
  <unicode hex="0133"/>
  <outline>
    <contour>
      <point x="305" y="456"/>
      <point x="325" y="472"/>
      <point x="329" y="493" type="curve" smooth="yes"/>
      <point x="334" y="519"/>
      <point x="317" y="540"/>
      <point x="292" y="540" type="curve" smooth="yes"/>
      <point x="271" y="540"/>
      <point x="251" y="524"/>
      <point x="247" y="503" type="curve" smooth="yes"/>
      <point x="242" y="477"/>
      <point x="259" y="456"/>
      <point x="284" y="456" type="curve" smooth="yes"/>
    </contour>
    <contour>
      <point x="142" y="-106"/>
      <point x="113" y="-140"/>
      <point x="67" y="-160" type="curve"/>
      <point x="86" y="-209" type="line"/>
      <point x="170" y="-185"/>
      <point x="197" y="-148"/>
      <point x="216" y="-52" type="curve" smooth="yes"/>
      <point x="301" y="384" type="line"/>
      <point x="238" y="384" type="line"/>
      <point x="153" y="-53" type="line"/>
      <point x="151" y="-60" type="line" smooth="yes"/>
    </contour>
    <component base="i"/>
  </outline>
</glyph>
<glyph name="Lslash" format="1">
  <advance width="418"/>
  <unicode hex="0141"/>
  <outline>
    <contour>
      <point x="103" y="282" type="line"/>
      <point x="18" y="238" type="line"/>
      <point x="5" y="170" type="line"/>
      <point x="90" y="215" type="line"/>
      <point x="48" y="0" type="line"/>
      <point x="361" y="0" type="line"/>
      <point x="372" y="58" type="line"/>
      <point x="126" y="58" type="line"/>
      <point x="163" y="253" type="line"/>
      <point x="276" y="312" type="line"/>
      <point x="289" y="380" type="line"/>
      <point x="176" y="321" type="line"/>
      <point x="221" y="550" type="line"/>
      <point x="155" y="550" type="line"/>
    </contour>
  </outline>
</glyph>
<glyph name="Tcedilla" format="1">
  <advance width="451"/>
  <unicode hex="0162"/>
  <outline>
    <contour>
      <point x="144" y="-171"/>
      <point x="119" y="-164"/>
      <point x="92" y="-153" type="curve"/>
      <point x="68" y="-205" type="line"/>
      <point x="106" y="-219"/>
      <point x="135" y="-226"/>
      <point x="164" y="-226" type="curve" smooth="yes"/>
      <point x="242" y="-226"/>
      <point x="273" y="-172"/>
      <point x="273" y="-126" type="curve" smooth="yes"/>
      <point x="273" y="-79"/>
      <point x="236" y="-64"/>
      <point x="207" y="-55" type="curve"/>
      <point x="197" y="-52" type="line"/>
      <point x="220" y="0" type="line"/>
      <point x="316" y="494" type="line"/>
      <point x="501" y="494" type="line"/>
      <point x="512" y="550" type="line"/>
      <point x="79" y="550" type="line"/>
      <point x="68" y="494" type="line"/>
      <point x="250" y="494" type="line"/>
      <point x="154" y="0" type="line"/>
      <point x="116" y="-91" type="line"/>
      <point x="183" y="-105" type="line" smooth="yes"/>
      <point x="199" y="-109"/>
      <point x="216" y="-117"/>
      <point x="216" y="-133" type="curve" smooth="yes"/>
      <point x="216" y="-155"/>
      <point x="203" y="-171"/>
      <point x="163" y="-171" type="curve" smooth="yes"/>
    </contour>
  </outline>
</glyph>
<glyph name="circumflex" format="1">
  <advance width="244"/>
  <unicode hex="02C6"/>
  <outline>
    <contour>
      <point x="-11" y="470" type="line"/>
      <point x="23" y="433" type="line"/>
      <point x="121" y="515" type="line"/>
      <point x="188" y="432" type="line"/>
      <point x="227" y="466" type="line"/>
      <point x="128" y="592" type="line"/>
    </contour>
    <contour>
      <point x="90" y="384" type="move" name="_top"/>
    </contour>
  </outline>
</glyph>
<glyph name="caron" format="1">
  <advance width="244"/>
  <unicode hex="02C7"/>
  <outline>
    <contour>
      <point x="233" y="591" type="line"/>
      <point x="135" y="509" type="line"/>
      <point x="68" y="592" type="line"/>
      <point x="29" y="558" type="line"/>
      <point x="128" y="432" type="line"/>
      <point x="267" y="554" type="line"/>
    </contour>
    <contour>
      <point x="122" y="384" type="move" name="_top"/>
    </contour>
  </outline>
</glyph>
<glyph name="firsttonechinese" format="1">
  <advance width="317"/>
  <unicode hex="02C9"/>
  <outline>
    <contour>
      <point x="325" y="518" type="line"/>
      <point x="315" y="466" type="line"/>
      <point x="108" y="466" type="line"/>
      <point x="118" y="518" type="line"/>
    </contour>
  </outline>
</glyph>
<glyph name="ogonek" format="1">
  <advance width="206"/>
  <unicode hex="02DB"/>
  <outline>
    <contour>
      <point x="92" y="22"/>
      <point x="-40" y="-38"/>
      <point x="-57" y="-125" type="curve" smooth="yes"/>
      <point x="-66" y="-172"/>
      <point x="-45" y="-211"/>
      <point x="16" y="-211" type="curve" smooth="yes"/>
      <point x="49" y="-211"/>
      <point x="85" y="-196"/>
      <point x="118" y="-176" type="curve"/>
      <point x="103" y="-141" type="line"/>
      <point x="86" y="-152"/>
      <point x="56" y="-164"/>
      <point x="34" y="-164" type="curve" smooth="yes"/>
      <point x="8" y="-164"/>
      <point x="-2" y="-151"/>
      <point x="3" y="-125" type="curve" smooth="yes"/>
      <point x="15" y="-64"/>
      <point x="111" y="-18"/>
      <point x="166" y="12" type="curve"/>
      <point x="146" y="51" type="line"/>
    </contour>
  </outline>
</glyph>
<glyph name="uni0326" format="1">
  <advance width="146"/>
  <unicode hex="0326"/>
  <outline>
    <contour>
      <point x="-61" y="-199" type="line"/>
      <point x="-5" y="-199" type="line"/>
      <point x="104" y="-48" type="line"/>
      <point x="34" y="-48" type="line"/>
    </contour>
    <contour>
      <point x="73" y="0" type="move" name="_bottom"/>
    </contour>
  </outline>
</glyph>
<glyph name="pi" format="1">
  <advance width="436"/>
  <unicode hex="03C0"/>
  <outline>
    <contour>
      <point x="43" y="384" type="line"/>
      <point x="439" y="384" type="line"/>
      <point x="427" y="324" type="line"/>
      <point x="362" y="324" type="line"/>
      <point x="320" y="108" type="line" smooth="yes"/>
      <point x="314" y="76"/>
      <point x="314" y="51"/>
      <point x="364" y="51" type="curve" smooth="yes"/>
      <point x="375" y="51"/>
      <point x="384" y="52"/>
      <point x="397" y="56" type="curve"/>
      <point x="396" y="11" type="line"/>
      <point x="380" y="5"/>
      <point x="356" y="-9"/>
      <point x="312" y="-9" type="curve" smooth="yes"/>
      <point x="265" y="-9"/>
      <point x="242" y="26"/>
      <point x="252" y="81" type="curve"/>
      <point x="299" y="324" type="line"/>
      <point x="157" y="324" type="line"/>
      <point x="94" y="0" type="line"/>
      <point x="27" y="0" type="line"/>
      <point x="90" y="324" type="line"/>
      <point x="31" y="324" type="line"/>
    </contour>
  </outline>
</glyph>
<glyph name="ideva" format="1">
  <advance width="381"/>
  <unicode hex="0907"/>
  <outline>
    <contour>
      <point x="259" y="294"/>
      <point x="275" y="289"/>
      <point x="309" y="285" type="curve"/>
      <point x="320" y="292" type="line"/>
      <point x="341" y="408" type="line"/>
      <point x="446" y="408" type="line"/>
      <point x="456" y="456" type="line"/>
      <point x="28" y="456" type="line"/>
      <point x="18" y="408" type="line"/>
      <point x="285" y="408" type="line"/>
      <point x="270" y="341" type="line"/>
      <point x="245" y="344"/>
      <point x="239" y="345"/>
      <point x="204" y="345" type="curve" smooth="yes"/>
      <point x="130" y="345"/>
      <point x="74" y="321"/>
      <point x="63" y="260" type="curve" smooth="yes"/>
      <point x="45" y="169"/>
      <point x="135" y="164"/>
      <point x="167" y="164" type="curve" smooth="yes"/>
      <point x="180" y="164"/>
      <point x="194" y="165"/>
      <point x="209" y="165" type="curve" smooth="yes"/>
      <point x="256" y="165"/>
      <point x="268" y="146"/>
      <point x="264" y="121" type="curve" smooth="yes"/>
      <point x="255" y="79"/>
      <point x="207" y="59"/>
      <point x="160" y="59" type="curve" smooth="yes"/>
      <point x="142" y="59"/>
      <point x="129" y="59"/>
      <point x="116" y="63" type="curve"/>
      <point x="78" y="131" type="line"/>
      <point x="38" y="131"/>
      <point x="25" y="111"/>
      <point x="22" y="95" type="curve" smooth="yes"/>
      <point x="14" y="58"/>
      <point x="42" y="35"/>
      <point x="77" y="23" type="curve"/>
      <point x="139" y="-99" type="line"/>
      <point x="193" y="-69" type="line"/>
      <point x="147" y="9" type="line"/>
      <point x="160" y="9" type="line" smooth="yes"/>
      <point x="240" y="9"/>
      <point x="303" y="48"/>
      <point x="315" y="110" type="curve" smooth="yes"/>
      <point x="329" y="182"/>
      <point x="282" y="215"/>
      <point x="218" y="215" type="curve" smooth="yes"/>
      <point x="206" y="215"/>
      <point x="193" y="214"/>
      <point x="178" y="214" type="curve" smooth="yes"/>
      <point x="128" y="214"/>
      <point x="107" y="222"/>
      <point x="113" y="251" type="curve" smooth="yes"/>
      <point x="119" y="280"/>
      <point x="147" y="294"/>
      <point x="199" y="294" type="curve" smooth="yes"/>
    </contour>
    <contour>
      <point x="321" y="447" type="move" name="top"/>
    </contour>
  </outline>
</glyph>
<glyph name="iideva" format="1">
  <advance width="381"/>
  <unicode hex="0908"/>
  <outline>
    <contour>
      <point x="259" y="294"/>
      <point x="275" y="289"/>
      <point x="309" y="285" type="curve"/>
      <point x="320" y="292" type="line"/>
      <point x="341" y="408" type="line"/>
      <point x="446" y="408" type="line"/>
      <point x="456" y="456" type="line"/>
      <point x="354" y="455" type="line"/>
      <point x="323" y="477"/>
      <point x="291" y="506"/>
      <point x="299" y="545" type="curve" smooth="yes"/>
      <point x="308" y="592"/>
      <point x="346" y="602"/>
      <point x="376" y="602" type="curve" smooth="yes"/>
      <point x="400" y="602"/>
      <point x="429" y="589"/>
      <point x="444" y="579" type="curve"/>
      <point x="477" y="621" type="line"/>
      <point x="455" y="636"/>
      <point x="420" y="654"/>
      <point x="379" y="654" type="curve" smooth="yes"/>
      <point x="320" y="654"/>
      <point x="261" y="624"/>
      <point x="249" y="562" type="curve" smooth="yes"/>
      <point x="241" y="519"/>
      <point x="257" y="483"/>
      <point x="285" y="458" type="curve"/>
      <point x="28" y="456" type="line"/>
      <point x="18" y="408" type="line"/>
      <point x="285" y="408" type="line"/>
      <point x="270" y="341" type="line"/>
      <point x="245" y="344"/>
      <point x="239" y="345"/>
      <point x="204" y="345" type="curve" smooth="yes"/>
      <point x="130" y="345"/>
      <point x="74" y="321"/>
      <point x="63" y="260" type="curve" smooth="yes"/>
      <point x="45" y="169"/>
      <point x="135" y="164"/>
      <point x="167" y="164" type="curve" smooth="yes"/>
      <point x="180" y="164"/>
      <point x="194" y="165"/>
      <point x="209" y="165" type="curve" smooth="yes"/>
      <point x="256" y="165"/>
      <point x="268" y="146"/>
      <point x="264" y="121" type="curve" smooth="yes"/>
      <point x="255" y="79"/>
      <point x="207" y="59"/>
      <point x="160" y="59" type="curve" smooth="yes"/>
      <point x="142" y="59"/>
      <point x="129" y="59"/>
      <point x="116" y="63" type="curve"/>
      <point x="78" y="131" type="line"/>
      <point x="38" y="131"/>
      <point x="25" y="111"/>
      <point x="22" y="95" type="curve" smooth="yes"/>
      <point x="14" y="58"/>
      <point x="42" y="35"/>
      <point x="77" y="23" type="curve"/>
      <point x="139" y="-99" type="line"/>
      <point x="193" y="-69" type="line"/>
      <point x="147" y="9" type="line"/>
      <point x="160" y="9" type="line" smooth="yes"/>
      <point x="240" y="9"/>
      <point x="303" y="48"/>
      <point x="315" y="110" type="curve" smooth="yes"/>
      <point x="329" y="182"/>
      <point x="282" y="215"/>
      <point x="218" y="215" type="curve" smooth="yes"/>
      <point x="206" y="215"/>
      <point x="193" y="214"/>
      <point x="178" y="214" type="curve" smooth="yes"/>
      <point x="128" y="214"/>
      <point x="107" y="222"/>
      <point x="113" y="251" type="curve" smooth="yes"/>
      <point x="119" y="280"/>
      <point x="147" y="294"/>
      <point x="199" y="294" type="curve" smooth="yes"/>
    </contour>
    <contour>
      <point x="321" y="447" type="move" name="top"/>
    </contour>
  </outline>
</glyph>
<glyph name="uudeva" format="1">
  <advance width="583"/>
  <unicode hex="090A"/>
  <outline>
    <contour>
      <point x="658" y="456" type="line"/>
      <point x="28" y="456" type="line"/>
      <point x="18" y="408" type="line"/>
      <point x="274" y="408" type="line"/>
      <point x="319" y="400"/>
      <point x="331" y="380"/>
      <point x="324" y="344" type="curve" smooth="yes"/>
      <point x="318" y="315"/>
      <point x="298" y="264"/>
      <point x="195" y="265" type="curve" smooth="yes"/>
      <point x="184" y="265" type="line"/>
      <point x="174" y="216" type="line"/>
      <point x="185" y="216" type="line"/>
      <point x="294" y="220"/>
      <point x="304" y="179"/>
      <point x="296" y="137" type="curve" smooth="yes"/>
      <point x="285" y="82"/>
      <point x="241" y="57"/>
      <point x="191" y="57" type="curve" smooth="yes"/>
      <point x="120" y="57"/>
      <point x="88" y="105"/>
      <point x="60" y="185" type="curve"/>
      <point x="14" y="162" type="line"/>
      <point x="50" y="63"/>
      <point x="93" y="5"/>
      <point x="190" y="5" type="curve" smooth="yes"/>
      <point x="264" y="5"/>
      <point x="331" y="52"/>
      <point x="345" y="121" type="curve" smooth="yes"/>
      <point x="349" y="143"/>
      <point x="349" y="160"/>
      <point x="348" y="173" type="curve"/>
      <point x="372" y="199"/>
      <point x="407" y="227"/>
      <point x="443" y="227" type="curve" smooth="yes"/>
      <point x="482" y="227"/>
      <point x="486" y="200"/>
      <point x="482" y="180" type="curve" smooth="yes"/>
      <point x="473" y="132"/>
      <point x="438" y="114"/>
      <point x="408" y="93" type="curve"/>
      <point x="439" y="52" type="line"/>
      <point x="473" y="74"/>
      <point x="521" y="111"/>
      <point x="532" y="170" type="curve" smooth="yes"/>
      <point x="545" y="236"/>
      <point x="504" y="277"/>
      <point x="443" y="277" type="curve" smooth="yes"/>
      <point x="396" y="277"/>
      <point x="347" y="241"/>
      <point x="324" y="220" type="curve"/>
      <point x="315" y="228"/>
      <point x="303" y="236"/>
      <point x="290" y="240" type="curve"/>
      <point x="341" y="264"/>
      <point x="363" y="294"/>
      <point x="371" y="334" type="curve" smooth="yes"/>
      <point x="377" y="363"/>
      <point x="372" y="387"/>
      <point x="358" y="406" type="curve"/>
      <point x="648" y="408" type="line"/>
    </contour>
    <contour>
      <point x="304" y="447" type="move" name="top"/>
    </contour>
  </outline>
</glyph>
<glyph name="odeva" format="1">
  <advance width="792"/>
  <unicode hex="0913"/>
  <outline>
    <contour>
      <point x="867" y="456" type="line"/>
      <point x="771" y="456" type="line"/>
      <point x="691" y="586" type="line" smooth="yes"/>
      <point x="669" y="622"/>
      <point x="652" y="637"/>
      <point x="613" y="637" type="curve" smooth="yes"/>
      <point x="582" y="637"/>
      <point x="550" y="620"/>
      <point x="550" y="620" type="curve"/>
      <point x="562" y="575" type="line"/>
      <point x="561" y="575"/>
      <point x="586" y="586"/>
      <point x="611" y="586" type="curve" smooth="yes"/>
      <point x="631" y="586"/>
      <point x="638" y="580"/>
      <point x="648" y="561" type="curve"/>
      <point x="710" y="456" type="line"/>
      <point x="411" y="456" type="line"/>
      <point x="401" y="408" type="line"/>
      <point x="495" y="408" type="line"/>
      <point x="463" y="251" type="line"/>
      <point x="439" y="240"/>
      <point x="415" y="230"/>
      <point x="375" y="230" type="curve" smooth="yes"/>
      <point x="350" y="230"/>
      <point x="320" y="237"/>
      <point x="287" y="252" type="curve"/>
      <point x="337" y="275"/>
      <point x="362" y="309"/>
      <point x="370" y="348" type="curve" smooth="yes"/>
      <point x="382" y="411"/>
      <point x="340" y="457"/>
      <point x="266" y="457" type="curve" smooth="yes"/>
      <point x="206" y="457"/>
      <point x="162" y="425"/>
      <point x="139" y="409" type="curve"/>
      <point x="164" y="364" type="line"/>
      <point x="189" y="383"/>
      <point x="217" y="406"/>
      <point x="263" y="406" type="curve" smooth="yes"/>
      <point x="301" y="406"/>
      <point x="326" y="388"/>
      <point x="319" y="352" type="curve" smooth="yes"/>
      <point x="314" y="328"/>
      <point x="296" y="274"/>
      <point x="193" y="275" type="curve" smooth="yes"/>
      <point x="172" y="275" type="line"/>
      <point x="162" y="226" type="line"/>
      <point x="183" y="226" type="line"/>
      <point x="292" y="230"/>
      <point x="302" y="189"/>
      <point x="295" y="152" type="curve" smooth="yes"/>
      <point x="285" y="102"/>
      <point x="241" y="77"/>
      <point x="191" y="77" type="curve" smooth="yes"/>
      <point x="120" y="77"/>
      <point x="88" y="125"/>
      <point x="60" y="205" type="curve"/>
      <point x="14" y="182" type="line"/>
      <point x="50" y="83"/>
      <point x="93" y="25"/>
      <point x="190" y="25" type="curve" smooth="yes"/>
      <point x="264" y="25"/>
      <point x="331" y="72"/>
      <point x="343" y="132" type="curve" smooth="yes"/>
      <point x="347" y="154"/>
      <point x="347" y="170"/>
      <point x="345" y="184" type="curve"/>
      <point x="359" y="183"/>
      <point x="373" y="182"/>
      <point x="387" y="182" type="curve" smooth="yes"/>
      <point x="413" y="182"/>
      <point x="437" y="187"/>
      <point x="456" y="193" type="curve"/>
      <point x="416" y="0" type="line"/>
      <point x="470" y="0" type="line"/>
      <point x="549" y="408" type="line"/>
      <point x="705" y="408" type="line"/>
      <point x="626" y="0" type="line"/>
      <point x="681" y="0" type="line"/>
      <point x="760" y="408" type="line"/>
      <point x="857" y="408" type="line"/>
    </contour>
    <contour>
      <point x="741" y="447" type="move" name="top"/>
    </contour>
  </outline>
</glyph>
<glyph name="ghadeva" format="1">
  <advance width="494"/>
  <unicode hex="0918"/>
  <outline>
    <contour>
      <point x="569" y="456" type="line"/>
      <point x="28" y="456" type="line"/>
      <point x="18" y="408" type="line"/>
      <point x="108" y="410" type="line"/>
      <point x="97" y="396"/>
      <point x="89" y="378"/>
      <point x="85" y="359" type="curve" smooth="yes"/>
      <point x="75" y="306"/>
      <point x="99" y="275"/>
      <point x="117" y="259" type="curve"/>
      <point x="94" y="239"/>
      <point x="83" y="218"/>
      <point x="79" y="196" type="curve" smooth="yes"/>
      <point x="65" y="124"/>
      <point x="121" y="75"/>
      <point x="209" y="75" type="curve" smooth="yes"/>
      <point x="279" y="75"/>
      <point x="335" y="108"/>
      <point x="351" y="118" type="curve"/>
      <point x="326" y="0" type="line"/>
      <point x="382" y="0" type="line"/>
      <point x="461" y="408" type="line"/>
      <point x="559" y="408" type="line"/>
    </contour>
    <contour>
      <point x="361" y="188" type="line"/>
      <point x="345" y="174"/>
      <point x="285" y="128"/>
      <point x="208" y="128" type="curve" smooth="yes"/>
      <point x="172" y="128"/>
      <point x="125" y="145"/>
      <point x="133" y="183" type="curve" smooth="yes"/>
      <point x="141" y="228"/>
      <point x="194" y="243"/>
      <point x="262" y="248" type="curve"/>
      <point x="253" y="298" type="line"/>
      <point x="221" y="296"/>
      <point x="193" y="292"/>
      <point x="167" y="283" type="curve"/>
      <point x="150" y="296"/>
      <point x="134" y="317"/>
      <point x="140" y="349" type="curve" smooth="yes"/>
      <point x="145" y="373"/>
      <point x="156" y="392"/>
      <point x="169" y="406" type="curve"/>
      <point x="405" y="408" type="line"/>
    </contour>
    <contour>
      <point x="441" y="447" type="move" name="top"/>
    </contour>
    <contour>
      <point x="355" y="5" type="move" name="bottom"/>
    </contour>
  </outline>
</glyph>
<glyph name="ngadeva" format="1">
  <advance width="477"/>
  <unicode hex="0919"/>
  <outline>
    <contour>
      <point x="28" y="456" type="line"/>
      <point x="18" y="408" type="line"/>
      <point x="316" y="408" type="line"/>
      <point x="302" y="343" type="line"/>
      <point x="281" y="345"/>
      <point x="269" y="346"/>
      <point x="234" y="346" type="curve" smooth="yes"/>
      <point x="159" y="346"/>
      <point x="106" y="324"/>
      <point x="94" y="264" type="curve" smooth="yes"/>
      <point x="75" y="164"/>
      <point x="178" y="161"/>
      <point x="219" y="164" type="curve" smooth="yes"/>
      <point x="278" y="171"/>
      <point x="302" y="155"/>
      <point x="296" y="121" type="curve" smooth="yes"/>
      <point x="287" y="75"/>
      <point x="239" y="52"/>
      <point x="193" y="52" type="curve" smooth="yes"/>
      <point x="136" y="52"/>
      <point x="92" y="79"/>
      <point x="54" y="126" type="curve"/>
      <point x="16" y="93" type="line"/>
      <point x="59" y="40"/>
      <point x="114" y="0"/>
      <point x="192" y="0" type="curve" smooth="yes"/>
      <point x="271" y="0"/>
      <point x="335" y="44"/>
      <point x="348" y="115" type="curve" smooth="yes"/>
      <point x="361" y="179"/>
      <point x="314" y="220"/>
      <point x="239" y="216" type="curve" smooth="yes"/>
      <point x="188" y="213"/>
      <point x="137" y="210"/>
      <point x="145" y="251" type="curve" smooth="yes"/>
      <point x="151" y="282"/>
      <point x="178" y="294"/>
      <point x="230" y="294" type="curve" smooth="yes"/>
      <point x="290" y="294"/>
      <point x="306" y="289"/>
      <point x="340" y="285" type="curve"/>
      <point x="351" y="292" type="line"/>
      <point x="372" y="408" type="line"/>
      <point x="542" y="408" type="line"/>
      <point x="552" y="456" type="line"/>
    </contour>
    <contour>
      <point x="395" y="271"/>
      <point x="380" y="259"/>
      <point x="377" y="241" type="curve" smooth="yes"/>
      <point x="372" y="218"/>
      <point x="385" y="202"/>
      <point x="407" y="202" type="curve" smooth="yes"/>
      <point x="426" y="202"/>
      <point x="441" y="214"/>
      <point x="444" y="231" type="curve" smooth="yes"/>
      <point x="449" y="255"/>
      <point x="436" y="271"/>
      <point x="413" y="271" type="curve" smooth="yes"/>
    </contour>
    <contour>
      <point x="352" y="447" type="move" name="top"/>
    </contour>
    <contour>
      <point x="183" y="-25" type="move" name="bottom"/>
    </contour>
  </outline>
</glyph>
<glyph name="ddhadeva" format="1">
  <advance width="397"/>
  <unicode hex="0922"/>
  <outline>
    <contour>
      <point x="261" y="264"/>
      <point x="285" y="259"/>
      <point x="321" y="255" type="curve"/>
      <point x="330" y="262" type="line"/>
      <point x="357" y="408" type="line"/>
      <point x="462" y="408" type="line"/>
      <point x="472" y="456" type="line"/>
      <point x="28" y="456" type="line"/>
      <point x="18" y="408" type="line"/>
      <point x="301" y="408" type="line"/>
      <point x="281" y="315" type="line"/>
      <point x="256" y="317"/>
      <point x="240" y="317"/>
      <point x="224" y="317" type="curve" smooth="yes"/>
      <point x="117" y="317"/>
      <point x="52" y="246"/>
      <point x="36" y="163" type="curve" smooth="yes"/>
      <point x="17" y="69"/>
      <point x="75" y="0"/>
      <point x="182" y="0" type="curve" smooth="yes"/>
      <point x="251" y="0"/>
      <point x="324" y="28"/>
      <point x="338" y="102" type="curve" smooth="yes"/>
      <point x="345" y="138"/>
      <point x="329" y="190"/>
      <point x="265" y="190" type="curve" smooth="yes"/>
      <point x="218" y="190"/>
      <point x="177" y="159"/>
      <point x="167" y="109" type="curve" smooth="yes"/>
      <point x="162" y="84"/>
      <point x="165" y="66"/>
      <point x="166" y="52" type="curve"/>
      <point x="109" y="58"/>
      <point x="78" y="97"/>
      <point x="89" y="156" type="curve" smooth="yes"/>
      <point x="102" y="223"/>
      <point x="149" y="264"/>
      <point x="226" y="264" type="curve" smooth="yes"/>
    </contour>
    <contour>
      <point x="280" y="138"/>
      <point x="290" y="126"/>
      <point x="286" y="106" type="curve" smooth="yes"/>
      <point x="281" y="80"/>
      <point x="256" y="59"/>
      <point x="216" y="50" type="curve"/>
      <point x="214" y="60"/>
      <point x="212" y="76"/>
      <point x="216" y="96" type="curve" smooth="yes"/>
      <point x="222" y="128"/>
      <point x="241" y="138"/>
      <point x="263" y="138" type="curve" smooth="yes"/>
    </contour>
    <contour>
      <point x="337" y="447" type="move" name="top"/>
    </contour>
    <contour>
      <point x="173" y="-25" type="move" name="bottom"/>
    </contour>
  </outline>
</glyph>
<glyph name="nnadeva" format="1">
  <advance width="551"/>
  <unicode hex="0923"/>
  <outline>
    <contour>
      <point x="626" y="456" type="line"/>
      <point x="28" y="456" type="line"/>
      <point x="18" y="408" type="line"/>
      <point x="105" y="408" type="line"/>
      <point x="70" y="226" type="line" smooth="yes"/>
      <point x="51" y="129"/>
      <point x="89" y="80"/>
      <point x="174" y="80" type="curve" smooth="yes"/>
      <point x="249" y="80"/>
      <point x="305" y="126"/>
      <point x="323" y="222" type="curve" smooth="yes"/>
      <point x="359" y="408" type="line"/>
      <point x="462" y="408" type="line"/>
      <point x="383" y="0" type="line"/>
      <point x="439" y="0" type="line"/>
      <point x="518" y="408" type="line"/>
      <point x="616" y="408" type="line"/>
    </contour>
    <contour>
      <point x="269" y="230" type="line" smooth="yes"/>
      <point x="256" y="166"/>
      <point x="228" y="133"/>
      <point x="175" y="133" type="curve" smooth="yes"/>
      <point x="126" y="133"/>
      <point x="114" y="162"/>
      <point x="126" y="226" type="curve" smooth="yes"/>
      <point x="161" y="408" type="line"/>
      <point x="303" y="408" type="line"/>
    </contour>
    <contour>
      <point x="498" y="447" type="move" name="top"/>
    </contour>
    <contour>
      <point x="412" y="5" type="move" name="bottom"/>
    </contour>
  </outline>
</glyph>
<glyph name="thadeva" format="1">
  <advance width="469"/>
  <unicode hex="0925"/>
  <outline>
    <contour>
      <point x="545" y="456" type="line"/>
      <point x="321" y="456" type="line"/>
      <point x="311" y="408" type="line"/>
      <point x="381" y="408" type="line"/>
      <point x="337" y="187" type="line"/>
      <point x="303" y="157"/>
      <point x="252" y="138"/>
      <point x="205" y="138" type="curve" smooth="yes"/>
      <point x="166" y="138"/>
      <point x="128" y="151"/>
      <point x="110" y="180" type="curve"/>
      <point x="156" y="209"/>
      <point x="245" y="251"/>
      <point x="262" y="337" type="curve" smooth="yes"/>
      <point x="274" y="400"/>
      <point x="254" y="467"/>
      <point x="180" y="467" type="curve" smooth="yes"/>
      <point x="137" y="467"/>
      <point x="83" y="438"/>
      <point x="73" y="384" type="curve" smooth="yes"/>
      <point x="65" y="342"/>
      <point x="82" y="303"/>
      <point x="126" y="280" type="curve"/>
      <point x="160" y="320" type="line"/>
      <point x="138" y="334"/>
      <point x="120" y="349"/>
      <point x="125" y="374" type="curve" smooth="yes"/>
      <point x="129" y="397"/>
      <point x="155" y="414"/>
      <point x="176" y="414" type="curve" smooth="yes"/>
      <point x="209" y="414"/>
      <point x="218" y="382"/>
      <point x="212" y="347" type="curve" smooth="yes"/>
      <point x="197" y="271"/>
      <point x="94" y="231"/>
      <point x="59" y="214" type="curve"/>
      <point x="45" y="184" type="line"/>
      <point x="63" y="138"/>
      <point x="114" y="84"/>
      <point x="207" y="84" type="curve" smooth="yes"/>
      <point x="259" y="84"/>
      <point x="305" y="105"/>
      <point x="327" y="117" type="curve"/>
      <point x="302" y="0" type="line"/>
      <point x="358" y="0" type="line"/>
      <point x="437" y="408" type="line"/>
      <point x="535" y="408" type="line"/>
    </contour>
    <contour>
      <point x="417" y="447" type="move" name="top"/>
    </contour>
    <contour>
      <point x="331" y="5" type="move" name="bottom"/>
    </contour>
  </outline>
</glyph>
<glyph name="dadeva" format="1">
  <advance width="406"/>
  <unicode hex="0926"/>
  <outline>
    <contour>
      <point x="263" y="264"/>
      <point x="287" y="259"/>
      <point x="323" y="255" type="curve"/>
      <point x="332" y="262" type="line"/>
      <point x="359" y="408" type="line"/>
      <point x="471" y="408" type="line"/>
      <point x="481" y="456" type="line"/>
      <point x="28" y="456" type="line"/>
      <point x="18" y="408" type="line"/>
      <point x="303" y="408" type="line"/>
      <point x="283" y="315" type="line"/>
      <point x="258" y="316"/>
      <point x="239" y="317"/>
      <point x="223" y="317" type="curve" smooth="yes"/>
      <point x="123" y="317"/>
      <point x="55" y="260"/>
      <point x="38" y="177" type="curve" smooth="yes"/>
      <point x="18" y="73"/>
      <point x="81" y="17"/>
      <point x="181" y="17" type="curve" smooth="yes"/>
      <point x="211" y="17"/>
      <point x="242" y="25"/>
      <point x="263" y="35" type="curve"/>
      <point x="272" y="5"/>
      <point x="288" y="-52"/>
      <point x="288" y="-52" type="curve"/>
      <point x="345" y="-25" type="line"/>
      <point x="307" y="60" type="line"/>
      <point x="320" y="70"/>
      <point x="329" y="84"/>
      <point x="332" y="98" type="curve" smooth="yes"/>
      <point x="339" y="133"/>
      <point x="320" y="158"/>
      <point x="285" y="158" type="curve" smooth="yes"/>
      <point x="254" y="158"/>
      <point x="228" y="128"/>
      <point x="228" y="128" type="curve"/>
      <point x="241" y="81" type="line"/>
      <point x="227" y="76"/>
      <point x="210" y="70"/>
      <point x="186" y="70" type="curve" smooth="yes"/>
      <point x="113" y="70"/>
      <point x="78" y="104"/>
      <point x="89" y="161" type="curve" smooth="yes"/>
      <point x="102" y="228"/>
      <point x="151" y="264"/>
      <point x="228" y="264" type="curve" smooth="yes"/>
    </contour>
    <contour>
      <point x="339" y="447" type="move" name="top"/>
    </contour>
    <contour>
      <point x="263" y="-8" type="move" name="bottom"/>
    </contour>
  </outline>
</glyph>
<glyph name="shadeva" format="1">
  <advance width="538"/>
  <unicode hex="0936"/>
  <outline>
    <contour>
      <point x="325" y="412"/>
      <point x="280" y="466"/>
      <point x="214" y="466" type="curve" smooth="yes"/>
      <point x="157" y="466"/>
      <point x="108" y="427"/>
      <point x="97" y="373" type="curve" smooth="yes"/>
      <point x="89" y="331"/>
      <point x="108" y="298"/>
      <point x="151" y="269" type="curve"/>
      <point x="185" y="310" type="line"/>
      <point x="163" y="325"/>
      <point x="144" y="341"/>
      <point x="148" y="363" type="curve" smooth="yes"/>
      <point x="155" y="396"/>
      <point x="182" y="413"/>
      <point x="212" y="413" type="curve" smooth="yes"/>
      <point x="246" y="413"/>
      <point x="263" y="381"/>
      <point x="257" y="334" type="curve" smooth="yes"/>
      <point x="245" y="254"/>
      <point x="170" y="212"/>
      <point x="122" y="189" type="curve"/>
      <point x="82" y="240" type="line"/>
      <point x="54" y="231"/>
      <point x="39" y="213"/>
      <point x="36" y="196" type="curve" smooth="yes"/>
      <point x="28" y="157"/>
      <point x="56" y="130"/>
      <point x="100" y="131" type="curve"/>
      <point x="205" y="-15" type="line"/>
      <point x="248" y="21" type="line"/>
      <point x="153" y="148" type="line"/>
      <point x="219" y="185"/>
      <point x="290" y="232"/>
      <point x="308" y="327" type="curve"/>
    </contour>
    <contour>
      <point x="612" y="456" type="line"/>
      <point x="366" y="456" type="line"/>
      <point x="356" y="408" type="line"/>
      <point x="448" y="408" type="line"/>
      <point x="369" y="0" type="line"/>
      <point x="425" y="0" type="line"/>
      <point x="504" y="408" type="line"/>
      <point x="602" y="408" type="line"/>
    </contour>
    <contour>
      <point x="484" y="447" type="move" name="top"/>
    </contour>
    <contour>
      <point x="398" y="5" type="move" name="bottom"/>
    </contour>
  </outline>
</glyph>
<glyph name="uni093F" format="1">
  <advance width="208"/>
  <unicode hex="093F"/>
  <outline>
    <contour>
      <point x="191" y="649"/>
      <point x="129" y="591"/>
      <point x="118" y="522" type="curve"/>
      <point x="112" y="493"/>
      <point x="117" y="470"/>
      <point x="122" y="456" type="curve"/>
      <point x="28" y="456" type="line"/>
      <point x="18" y="408" type="line"/>
      <point x="118" y="408" type="line"/>
      <point x="38" y="0" type="line"/>
      <point x="93" y="0" type="line"/>
      <point x="173" y="408" type="line"/>
      <point x="273" y="408" type="line"/>
      <point x="283" y="456" type="line"/>
      <point x="180" y="456" type="line"/>
      <point x="171" y="470"/>
      <point x="165" y="488"/>
      <point x="170" y="512" type="curve" smooth="yes"/>
      <point x="179" y="562"/>
      <point x="226" y="599"/>
      <point x="300" y="599" type="curve" smooth="yes"/>
      <point x="424" y="599"/>
      <point x="512" y="542"/>
      <point x="574" y="438" type="curve"/>
      <point x="639" y="434" type="line"/>
      <point x="559" y="574"/>
      <point x="461" y="649"/>
      <point x="300" y="649" type="curve" smooth="yes"/>
    </contour>
  </outline>
</glyph>
<glyph name="uuvowelsigndeva" format="1">
  <advance width="0"/>
  <unicode hex="0942"/>
  <outline>
    <contour>
      <point x="-211" y="-127"/>
      <point x="-227" y="-134"/>
      <point x="-248" y="-134" type="curve" smooth="yes"/>
      <point x="-269" y="-134"/>
      <point x="-283" y="-120"/>
      <point x="-278" y="-92" type="curve" smooth="yes"/>
      <point x="-271" y="-58"/>
      <point x="-242" y="-41"/>
      <point x="-211" y="-41" type="curve" smooth="yes"/>
      <point x="-166" y="-41"/>
      <point x="-129" y="-100"/>
      <point x="-84" y="-175" type="curve"/>
      <point x="-40" y="-147" type="line"/>
      <point x="-64" y="-108"/>
      <point x="-125" y="11"/>
      <point x="-209" y="11" type="curve" smooth="yes"/>
      <point x="-259" y="11"/>
      <point x="-315" y="-16"/>
      <point x="-328" y="-82" type="curve" smooth="yes"/>
      <point x="-338" y="-135"/>
      <point x="-311" y="-185"/>
      <point x="-251" y="-185" type="curve" smooth="yes"/>
      <point x="-219" y="-185"/>
      <point x="-195" y="-175"/>
      <point x="-180" y="-167" type="curve"/>
      <point x="-197" y="-119" type="line"/>
    </contour>
    <contour>
      <point x="-207" y="8" type="move" name="_bottom"/>
    </contour>
  </outline>
</glyph>
<glyph name="rrvocalicvowelsigndeva" format="1">
  <advance width="227"/>
  <unicode hex="0944"/>
  <outline>
    <contour>
      <point x="-6" y="-325"/>
      <point x="20" y="-316"/>
      <point x="50" y="-301" type="curve"/>
      <point x="29" y="-257" type="line"/>
      <point x="8" y="-269"/>
      <point x="-14" y="-277"/>
      <point x="-42" y="-277" type="curve" smooth="yes"/>
      <point x="-70" y="-277"/>
      <point x="-93" y="-270"/>
      <point x="-87" y="-235" type="curve" smooth="yes"/>
      <point x="-79" y="-195"/>
      <point x="-44" y="-180"/>
      <point x="-7" y="-180" type="curve" smooth="yes"/>
      <point x="28" y="-180" type="line"/>
      <point x="38" y="-130" type="line"/>
      <point x="-1" y="-130" type="line" smooth="yes"/>
      <point x="-35" y="-130"/>
      <point x="-63" y="-118"/>
      <point x="-57" y="-88" type="curve" smooth="yes"/>
      <point x="-50" y="-54"/>
      <point x="-23" y="-42"/>
      <point x="20" y="-42" type="curve" smooth="yes"/>
      <point x="75" y="-42" type="line"/>
      <point x="85" y="10" type="line"/>
      <point x="26" y="10" type="line" smooth="yes"/>
      <point x="-52" y="10"/>
      <point x="-97" y="-23"/>
      <point x="-107" y="-71" type="curve" smooth="yes"/>
      <point x="-115" y="-115"/>
      <point x="-95" y="-140"/>
      <point x="-69" y="-155" type="curve"/>
      <point x="-105" y="-170"/>
      <point x="-130" y="-192"/>
      <point x="-138" y="-230" type="curve" smooth="yes"/>
      <point x="-148" y="-285"/>
      <point x="-115" y="-325"/>
      <point x="-50" y="-325" type="curve" smooth="yes"/>
    </contour>
    <contour>
      <point x="57" y="5" type="move" name="_bottom"/>
    </contour>
  </outline>
</glyph>
<glyph name="eshortvowelsigndeva" format="1">
  <advance width="0"/>
  <unicode hex="0946"/>
  <outline>
    <contour>
      <point x="-71" y="540"/>
      <point x="-151" y="564"/>
      <point x="-204" y="564" type="curve"/>
      <point x="-214" y="564"/>
      <point x="-225" y="564"/>
      <point x="-237" y="564" type="curve" smooth="yes"/>
      <point x="-279" y="570"/>
      <point x="-297" y="579"/>
      <point x="-294" y="636" type="curve"/>
      <point x="-344" y="623" type="line"/>
      <point x="-356" y="522"/>
      <point x="-266" y="516"/>
      <point x="-228" y="516" type="curve"/>
      <point x="-154" y="516"/>
      <point x="-132" y="492"/>
      <point x="-143" y="439" type="curve"/>
      <point x="-91" y="435" type="line"/>
    </contour>
    <contour>
      <point x="-124" y="447" type="move" name="_top"/>
    </contour>
  </outline>
</glyph>
<glyph name="omdeva" format="1">
  <advance width="683"/>
  <unicode hex="0950"/>
  <outline>
    <contour>
      <point x="359" y="200"/>
      <point x="328" y="235"/>
      <point x="281" y="248" type="curve"/>
      <point x="332" y="264"/>
      <point x="365" y="307"/>
      <point x="373" y="348" type="curve" smooth="yes"/>
      <point x="385" y="411"/>
      <point x="343" y="457"/>
      <point x="269" y="457" type="curve" smooth="yes"/>
      <point x="209" y="457"/>
      <point x="165" y="425"/>
      <point x="142" y="409" type="curve"/>
      <point x="167" y="364" type="line"/>
      <point x="192" y="383"/>
      <point x="220" y="406"/>
      <point x="266" y="406" type="curve" smooth="yes"/>
      <point x="304" y="406"/>
      <point x="329" y="388"/>
      <point x="322" y="352" type="curve" smooth="yes"/>
      <point x="317" y="328"/>
      <point x="299" y="274"/>
      <point x="196" y="275" type="curve" smooth="yes"/>
      <point x="175" y="275" type="line"/>
      <point x="165" y="226" type="line"/>
      <point x="186" y="226" type="line"/>
      <point x="295" y="230"/>
      <point x="305" y="189"/>
      <point x="298" y="152" type="curve" smooth="yes"/>
      <point x="288" y="102"/>
      <point x="244" y="77"/>
      <point x="194" y="77" type="curve" smooth="yes"/>
      <point x="123" y="77"/>
      <point x="91" y="125"/>
      <point x="63" y="205" type="curve"/>
      <point x="17" y="182" type="line"/>
      <point x="53" y="83"/>
      <point x="96" y="25"/>
      <point x="193" y="25" type="curve" smooth="yes"/>
      <point x="275" y="25"/>
      <point x="334" y="72"/>
      <point x="346" y="132" type="curve" smooth="yes"/>
    </contour>
    <contour>
      <point x="585" y="47"/>
      <point x="649" y="109"/>
      <point x="664" y="185" type="curve" smooth="yes"/>
      <point x="679" y="264"/>
      <point x="650" y="341"/>
      <point x="582" y="341" type="curve"/>
      <point x="499" y="341"/>
      <point x="474" y="211"/>
      <point x="383" y="211" type="curve"/>
      <point x="345" y="211"/>
      <point x="329" y="226"/>
      <point x="293" y="244" type="curve"/>
      <point x="305" y="192" type="line"/>
      <point x="323" y="178"/>
      <point x="342" y="162"/>
      <point x="383" y="162" type="curve"/>
      <point x="495" y="162"/>
      <point x="530" y="282"/>
      <point x="576" y="282" type="curve"/>
      <point x="605" y="282"/>
      <point x="620" y="245"/>
      <point x="610" y="195" type="curve" smooth="yes"/>
      <point x="600" y="145"/>
      <point x="563" y="103"/>
      <point x="522" y="103" type="curve"/>
      <point x="477" y="103"/>
      <point x="474" y="166"/>
      <point x="470" y="218" type="curve"/>
      <point x="422" y="191" type="line"/>
      <point x="422" y="113"/>
      <point x="453" y="47"/>
      <point x="520" y="47" type="curve"/>
    </contour>
    <component base="candrabindudeva" xOffset="364" yOffset="-130"/>
  </outline>
</glyph>
<glyph name="udattadeva" format="1">
  <advance width="74"/>
  <unicode hex="0951"/>
  <outline>
    <contour>
      <point x="-11" y="440" type="line"/>
      <point x="43" y="440" type="line"/>
      <point x="74" y="600" type="line"/>
      <point x="20" y="600" type="line"/>
    </contour>
  </outline>
</glyph>
<glyph name="anudattadeva" format="1">
  <advance width="409"/>
  <unicode hex="0952"/>
  <outline>
    <contour>
      <point x="-97" y="-50" type="line"/>
      <point x="-106" y="-98" type="line"/>
      <point x="263" y="-98" type="line"/>
      <point x="272" y="-50" type="line"/>
    </contour>
  </outline>
</glyph>
<glyph name="uni0955" format="1">
  <advance width="268"/>
  <unicode hex="0955"/>
  <outline>
    <contour>
      <point x="286" y="589"/>
      <point x="337" y="628"/>
      <point x="364" y="686" type="curve"/>
      <point x="325" y="709" type="line"/>
      <point x="298" y="664"/>
      <point x="270" y="637"/>
      <point x="217" y="637" type="curve" smooth="yes"/>
      <point x="169" y="637"/>
      <point x="151" y="660"/>
      <point x="143" y="705" type="curve"/>
      <point x="97" y="690" type="line"/>
      <point x="104" y="632"/>
      <point x="143" y="589"/>
      <point x="216" y="589" type="curve" smooth="yes"/>
    </contour>
    <contour>
      <point x="70" y="551" type="line"/>
      <point x="62" y="508" type="line"/>
      <point x="329" y="508" type="line"/>
      <point x="337" y="551" type="line"/>
    </contour>
    <contour>
      <point x="184" y="447" type="move" name="_top"/>
    </contour>
  </outline>
</glyph>
<glyph name="uni0957" format="1">
  <advance width="290"/>
  <unicode hex="0957"/>
  <outline>
    <contour>
      <point x="71" y="-131"/>
      <point x="124" y="-108"/>
      <point x="153" y="-59" type="curve"/>
      <point x="116" y="-31" type="line"/>
      <point x="91" y="-66"/>
      <point x="61" y="-83"/>
      <point x="18" y="-83" type="curve" smooth="yes"/>
      <point x="-21" y="-83"/>
      <point x="-44" y="-70"/>
      <point x="-55" y="-35" type="curve"/>
      <point x="-98" y="-55" type="line"/>
      <point x="-87" y="-104"/>
      <point x="-41" y="-131"/>
      <point x="17" y="-131" type="curve" smooth="yes"/>
    </contour>
    <contour>
      <point x="51" y="-231"/>
      <point x="105" y="-208"/>
      <point x="133" y="-159" type="curve"/>
      <point x="97" y="-131" type="line"/>
      <point x="72" y="-166"/>
      <point x="42" y="-183"/>
      <point x="-1" y="-183" type="curve" smooth="yes"/>
      <point x="-40" y="-183"/>
      <point x="-63" y="-170"/>
      <point x="-74" y="-135" type="curve"/>
      <point x="-117" y="-155" type="line"/>
      <point x="-107" y="-204"/>
      <point x="-61" y="-231"/>
      <point x="-3" y="-231" type="curve" smooth="yes"/>
    </contour>
  </outline>
</glyph>
<glyph name="danda-deva" format="1">
  <advance width="245"/>
  <unicode hex="0964"/>
  <outline>
    <contour>
      <point x="97" y="-30" type="line"/>
      <point x="152" y="-30" type="line"/>
      <point x="250" y="473" type="line"/>
      <point x="195" y="473" type="line"/>
    </contour>
  </outline>
</glyph>
<glyph name="dbldanda-deva" format="1">
  <advance width="391"/>
  <unicode hex="0965"/>
  <outline>
    <contour>
      <point x="97" y="-30" type="line"/>
      <point x="152" y="-30" type="line"/>
      <point x="251" y="476" type="line"/>
      <point x="196" y="476" type="line"/>
    </contour>
    <contour>
      <point x="242" y="-30" type="line"/>
      <point x="297" y="-30" type="line"/>
      <point x="396" y="476" type="line"/>
      <point x="341" y="476" type="line"/>
    </contour>
  </outline>
</glyph>
<glyph name="threedeva" format="1">
  <advance width="346"/>
  <unicode hex="0969"/>
  <outline>
    <contour>
      <point x="48" y="66"/>
      <point x="56" y="67"/>
      <point x="66" y="67" type="curve" smooth="yes"/>
      <point x="157" y="62"/>
      <point x="221" y="111"/>
      <point x="230" y="159" type="curve" smooth="yes"/>
      <point x="242" y="221"/>
      <point x="202" y="259"/>
      <point x="152" y="262" type="curve"/>
      <point x="210" y="275"/>
      <point x="247" y="305"/>
      <point x="257" y="353" type="curve" smooth="yes"/>
      <point x="271" y="429"/>
      <point x="214" y="457"/>
      <point x="154" y="457" type="curve" smooth="yes"/>
      <point x="108" y="457"/>
      <point x="70" y="446"/>
      <point x="29" y="426" type="curve"/>
      <point x="50" y="380" type="line"/>
      <point x="76" y="394"/>
      <point x="108" y="406"/>
      <point x="146" y="406" type="curve" smooth="yes"/>
      <point x="179" y="406"/>
      <point x="208" y="393"/>
      <point x="201" y="356" type="curve" smooth="yes"/>
      <point x="192" y="307"/>
      <point x="133" y="287"/>
      <point x="82" y="287" type="curve"/>
      <point x="64" y="287" type="line"/>
      <point x="54" y="237" type="line"/>
      <point x="76" y="237" type="line"/>
      <point x="144" y="237"/>
      <point x="186" y="220"/>
      <point x="177" y="174" type="curve" smooth="yes"/>
      <point x="170" y="140"/>
      <point x="126" y="104"/>
      <point x="47" y="115" type="curve"/>
      <point x="3" y="176" type="line"/>
      <point x="-23" y="171"/>
      <point x="-36" y="157"/>
      <point x="-40" y="140" type="curve" smooth="yes"/>
      <point x="-47" y="103"/>
      <point x="-15" y="76"/>
      <point x="41" y="66" type="curve"/>
    </contour>
    <contour>
      <point x="18" y="90" type="line"/>
      <point x="101" y="-33" type="line"/>
      <point x="151" y="0" type="line"/>
      <point x="70" y="94" type="line"/>
    </contour>
  </outline>
</glyph>
<glyph name="eightdeva" format="1">
  <advance width="321"/>
  <unicode hex="096E"/>
  <outline>
    <contour>
      <point x="197" y="94" type="line"/>
      <point x="173" y="82"/>
      <point x="129" y="62"/>
      <point x="80" y="62" type="curve" smooth="yes"/>
      <point x="27" y="62"/>
      <point x="-3" y="90"/>
      <point x="7" y="146" type="curve" smooth="yes"/>
      <point x="27" y="248"/>
      <point x="186" y="350"/>
      <point x="264" y="407" type="curve"/>
      <point x="232" y="448" type="line"/>
      <point x="159" y="395"/>
      <point x="-23" y="279"/>
      <point x="-47" y="155" type="curve" smooth="yes"/>
      <point x="-63" y="70"/>
      <point x="-20" y="10"/>
      <point x="77" y="10" type="curve" smooth="yes"/>
      <point x="138" y="10"/>
      <point x="183" y="32"/>
      <point x="215" y="46" type="curve"/>
    </contour>
  </outline>
</glyph>
<glyph name="uni0975" format="1">
  <advance width="791"/>
  <unicode hex="0975"/>
  <outline>
    <contour>
      <point x="798" y="454" type="line"/>
      <point x="809" y="471"/>
      <point x="814" y="486"/>
      <point x="816" y="498" type="curve" smooth="yes"/>
      <point x="832" y="582"/>
      <point x="773" y="601"/>
      <point x="720" y="627" type="curve" smooth="yes"/>
      <point x="694" y="643"/>
      <point x="682" y="657"/>
      <point x="688" y="687" type="curve" smooth="yes"/>
      <point x="690" y="698"/>
      <point x="694" y="709"/>
      <point x="699" y="721" type="curve"/>
      <point x="649" y="727" type="line"/>
      <point x="642" y="712"/>
      <point x="638" y="699"/>
      <point x="636" y="689" type="curve" smooth="yes"/>
      <point x="622" y="619"/>
      <point x="683" y="590"/>
      <point x="712" y="580" type="curve" smooth="yes"/>
      <point x="759" y="559"/>
      <point x="776" y="541"/>
      <point x="770" y="506" type="curve" smooth="yes"/>
      <point x="767" y="493"/>
      <point x="762" y="481"/>
      <point x="754" y="469" type="curve"/>
      <point x="746" y="454" type="line"/>
      <point x="756" y="558"/>
      <point x="655" y="562"/>
      <point x="598" y="565" type="curve" smooth="yes"/>
      <point x="555" y="567"/>
      <point x="538" y="579"/>
      <point x="541" y="636" type="curve"/>
      <point x="491" y="623" type="line"/>
      <point x="479" y="522"/>
      <point x="569" y="516"/>
      <point x="607" y="516" type="curve" smooth="yes"/>
      <point x="676" y="516"/>
      <point x="704" y="502"/>
      <point x="702" y="458" type="curve"/>
      <point x="411" y="456" type="line"/>
      <point x="401" y="408" type="line"/>
      <point x="495" y="408" type="line"/>
      <point x="463" y="251" type="line"/>
      <point x="439" y="239"/>
      <point x="415" y="230"/>
      <point x="375" y="230" type="curve" smooth="yes"/>
      <point x="350" y="230"/>
      <point x="320" y="237"/>
      <point x="287" y="252" type="curve"/>
      <point x="337" y="275"/>
      <point x="362" y="309"/>
      <point x="370" y="348" type="curve" smooth="yes"/>
      <point x="382" y="411"/>
      <point x="340" y="457"/>
      <point x="266" y="457" type="curve" smooth="yes"/>
      <point x="206" y="457"/>
      <point x="162" y="425"/>
      <point x="139" y="409" type="curve"/>
      <point x="164" y="364" type="line"/>
      <point x="189" y="383"/>
      <point x="217" y="406"/>
      <point x="263" y="406" type="curve" smooth="yes"/>
      <point x="301" y="406"/>
      <point x="326" y="388"/>
      <point x="319" y="352" type="curve" smooth="yes"/>
      <point x="314" y="328"/>
      <point x="296" y="274"/>
      <point x="193" y="275" type="curve" smooth="yes"/>
      <point x="172" y="275" type="line"/>
      <point x="162" y="226" type="line"/>
      <point x="183" y="226" type="line"/>
      <point x="292" y="230"/>
      <point x="302" y="189"/>
      <point x="295" y="152" type="curve" smooth="yes"/>
      <point x="285" y="102"/>
      <point x="241" y="77"/>
      <point x="191" y="77" type="curve" smooth="yes"/>
      <point x="120" y="77"/>
      <point x="88" y="125"/>
      <point x="60" y="205" type="curve"/>
      <point x="14" y="182" type="line"/>
      <point x="50" y="83"/>
      <point x="93" y="25"/>
      <point x="190" y="25" type="curve" smooth="yes"/>
      <point x="264" y="25"/>
      <point x="331" y="72"/>
      <point x="343" y="132" type="curve" smooth="yes"/>
      <point x="347" y="154"/>
      <point x="347" y="170"/>
      <point x="344" y="184" type="curve"/>
      <point x="359" y="183"/>
      <point x="372" y="182"/>
      <point x="387" y="182" type="curve" smooth="yes"/>
      <point x="413" y="182"/>
      <point x="437" y="187"/>
      <point x="455" y="192" type="curve"/>
      <point x="416" y="0" type="line"/>
      <point x="470" y="0" type="line"/>
      <point x="549" y="408" type="line"/>
      <point x="704" y="408" type="line"/>
      <point x="625" y="0" type="line"/>
      <point x="680" y="0" type="line"/>
      <point x="759" y="408" type="line"/>
      <point x="856" y="408" type="line"/>
      <point x="866" y="456" type="line"/>
    </contour>
    <contour>
      <point x="741" y="447" type="move" name="top"/>
    </contour>
  </outline>
</glyph>
<glyph name="endash" format="1">
  <advance width="435"/>
  <unicode hex="2013"/>
  <outline>
    <contour>
      <point x="33" y="190" type="line"/>
      <point x="369" y="190" type="line"/>
      <point x="378" y="237" type="line"/>
      <point x="42" y="237" type="line"/>
    </contour>
  </outline>
</glyph>
<glyph name="quotesinglbase" format="1">
  <advance width="201"/>
  <unicode hex="201A"/>
  <outline>
    <contour>
      <point x="57" y="-21"/>
      <point x="29" y="-55"/>
      <point x="19" y="-69" type="curve"/>
      <point x="42" y="-89" type="line"/>
      <point x="81" y="-60"/>
      <point x="120" y="-20"/>
      <point x="127" y="17" type="curve" smooth="yes"/>
      <point x="134" y="49"/>
      <point x="118" y="70"/>
      <point x="90" y="70" type="curve" smooth="yes"/>
      <point x="66" y="70"/>
      <point x="47" y="53"/>
      <point x="44" y="35" type="curve" smooth="yes"/>
      <point x="39" y="9"/>
      <point x="49" y="-8"/>
      <point x="73" y="-13" type="curve"/>
      <point x="69" y="0" type="line"/>
    </contour>
  </outline>
</glyph>
<glyph name="guilsinglright" format="1">
  <advance width="215"/>
  <unicode hex="203A"/>
  <outline>
    <contour>
      <point x="196" y="241" type="line"/>
      <point x="73" y="100" type="line"/>
      <point x="2" y="100" type="line"/>
      <point x="127" y="246" type="line"/>
      <point x="62" y="384" type="line"/>
      <point x="127" y="384" type="line"/>
    </contour>
  </outline>
</glyph>
<glyph name="fraction" format="1">
  <advance width="280"/>
  <unicode hex="2044"/>
  <outline>
    <contour>
      <point x="334" y="550" type="line"/>
      <point x="-88" y="0" type="line"/>
      <point x="-156" y="0" type="line"/>
      <point x="269" y="550" type="line"/>
    </contour>
  </outline>
</glyph>
<glyph name="product" format="1">
  <advance width="534"/>
  <unicode hex="220F"/>
  <outline>
    <contour>
      <point x="417" y="-64" type="line"/>
      <point x="357" y="-64" type="line"/>
      <point x="451" y="421" type="line"/>
      <point x="172" y="421" type="line"/>
      <point x="78" y="-64" type="line"/>
      <point x="17" y="-64" type="line"/>
      <point x="122" y="477" type="line"/>
      <point x="522" y="477" type="line"/>
    </contour>
  </outline>
</glyph>
<glyph name="infinity" format="1">
  <advance width="638"/>
  <unicode hex="221E"/>
  <outline>
    <contour>
      <point x="356" y="48"/>
      <point x="314" y="104"/>
      <point x="281" y="163" type="curve"/>
      <point x="244" y="123"/>
      <point x="193" y="71"/>
      <point x="129" y="71" type="curve" smooth="yes"/>
      <point x="66" y="71"/>
      <point x="30" y="115"/>
      <point x="30" y="173" type="curve" smooth="yes"/>
      <point x="30" y="255"/>
      <point x="85" y="343"/>
      <point x="187" y="343" type="curve" smooth="yes"/>
      <point x="235" y="343"/>
      <point x="270" y="305"/>
      <point x="296" y="260" type="curve"/>
      <point x="354" y="328"/>
      <point x="410" y="378"/>
      <point x="495" y="378" type="curve" smooth="yes"/>
      <point x="573" y="378"/>
      <point x="614" y="316"/>
      <point x="614" y="243" type="curve" smooth="yes"/>
      <point x="614" y="157"/>
      <point x="558" y="48"/>
      <point x="437" y="48" type="curve" smooth="yes"/>
    </contour>
    <contour>
      <point x="424" y="317"/>
      <point x="369" y="262"/>
      <point x="323" y="206" type="curve"/>
      <point x="349" y="158"/>
      <point x="384" y="107"/>
      <point x="433" y="107" type="curve" smooth="yes"/>
      <point x="507" y="107"/>
      <point x="544" y="174"/>
      <point x="544" y="239" type="curve" smooth="yes"/>
      <point x="544" y="288"/>
      <point x="525" y="317"/>
      <point x="476" y="317" type="curve" smooth="yes"/>
    </contour>
    <contour>
      <point x="181" y="130"/>
      <point x="228" y="183"/>
      <point x="255" y="215" type="curve"/>
      <point x="238" y="247"/>
      <point x="220" y="284"/>
      <point x="176" y="284" type="curve" smooth="yes"/>
      <point x="126" y="284"/>
      <point x="95" y="230"/>
      <point x="95" y="182" type="curve" smooth="yes"/>
      <point x="95" y="152"/>
      <point x="109" y="130"/>
      <point x="143" y="130" type="curve" smooth="yes"/>
    </contour>
  </outline>
</glyph>
<glyph name="dottedcircle" format="1">
  <advance width="498"/>
  <unicode hex="25CC"/>
  <outline>
    <contour>
      <point x="64" y="204"/>
      <point x="74" y="214"/>
      <point x="74" y="227" type="curve" smooth="yes"/>
      <point x="74" y="240"/>
      <point x="64" y="250"/>
      <point x="51" y="250" type="curve" smooth="yes"/>
      <point x="38" y="250"/>
      <point x="28" y="240"/>
      <point x="28" y="227" type="curve" smooth="yes"/>
      <point x="28" y="214"/>
      <point x="38" y="204"/>
      <point x="51" y="204" type="curve" smooth="yes"/>
    </contour>
    <contour>
      <point x="472" y="204"/>
      <point x="482" y="214"/>
      <point x="482" y="227" type="curve" smooth="yes"/>
      <point x="482" y="240"/>
      <point x="472" y="250"/>
      <point x="459" y="250" type="curve" smooth="yes"/>
      <point x="446" y="250"/>
      <point x="436" y="240"/>
      <point x="436" y="227" type="curve" smooth="yes"/>
      <point x="436" y="214"/>
      <point x="446" y="204"/>
      <point x="459" y="204" type="curve" smooth="yes"/>
    </contour>
    <contour>
      <point x="268" y="408"/>
      <point x="278" y="418"/>
      <point x="278" y="431" type="curve" smooth="yes"/>
      <point x="278" y="444"/>
      <point x="268" y="454"/>
      <point x="255" y="454" type="curve" smooth="yes"/>
      <point x="242" y="454"/>
      <point x="232" y="444"/>
      <point x="232" y="431" type="curve" smooth="yes"/>
      <point x="232" y="418"/>
      <point x="242" y="408"/>
      <point x="255" y="408" type="curve" smooth="yes"/>
    </contour>
    <contour>
      <point x="414" y="349"/>
      <point x="424" y="359"/>
      <point x="424" y="372" type="curve" smooth="yes"/>
      <point x="424" y="385"/>
      <point x="414" y="395"/>
      <point x="401" y="395" type="curve" smooth="yes"/>
      <point x="388" y="395"/>
      <point x="378" y="385"/>
      <point x="378" y="372" type="curve" smooth="yes"/>
      <point x="378" y="359"/>
      <point x="388" y="349"/>
      <point x="401" y="349" type="curve" smooth="yes"/>
    </contour>
    <contour>
      <point x="349" y="393"/>
      <point x="359" y="403"/>
      <point x="359" y="416" type="curve" smooth="yes"/>
      <point x="359" y="429"/>
      <point x="349" y="439"/>
      <point x="336" y="439" type="curve" smooth="yes"/>
      <point x="323" y="439"/>
      <point x="313" y="429"/>
      <point x="313" y="416" type="curve" smooth="yes"/>
      <point x="313" y="403"/>
      <point x="323" y="393"/>
      <point x="336" y="393" type="curve" smooth="yes"/>
    </contour>
    <contour>
      <point x="459" y="282"/>
      <point x="469" y="292"/>
      <point x="469" y="305" type="curve" smooth="yes"/>
      <point x="469" y="318"/>
      <point x="459" y="328"/>
      <point x="446" y="328" type="curve" smooth="yes"/>
      <point x="433" y="328"/>
      <point x="423" y="318"/>
      <point x="423" y="305" type="curve" smooth="yes"/>
      <point x="423" y="292"/>
      <point x="433" y="282"/>
      <point x="446" y="282" type="curve" smooth="yes"/>
    </contour>
    <contour>
      <point x="123" y="349"/>
      <point x="133" y="359"/>
      <point x="133" y="372" type="curve" smooth="yes"/>
      <point x="133" y="385"/>
      <point x="123" y="395"/>
      <point x="110" y="395" type="curve" smooth="yes"/>
      <point x="96" y="395"/>
      <point x="87" y="385"/>
      <point x="87" y="372" type="curve" smooth="yes"/>
      <point x="87" y="359"/>
      <point x="96" y="349"/>
      <point x="110" y="349" type="curve" smooth="yes"/>
    </contour>
    <contour>
      <point x="187" y="393"/>
      <point x="198" y="403"/>
      <point x="198" y="416" type="curve" smooth="yes"/>
      <point x="198" y="429"/>
      <point x="187" y="439"/>
      <point x="175" y="439" type="curve" smooth="yes"/>
      <point x="162" y="439"/>
      <point x="152" y="429"/>
      <point x="152" y="416" type="curve" smooth="yes"/>
      <point x="152" y="403"/>
      <point x="162" y="393"/>
      <point x="175" y="393" type="curve" smooth="yes"/>
    </contour>
    <contour>
      <point x="78" y="282"/>
      <point x="88" y="292"/>
      <point x="88" y="305" type="curve" smooth="yes"/>
      <point x="88" y="318"/>
      <point x="78" y="328"/>
      <point x="65" y="328" type="curve" smooth="yes"/>
      <point x="52" y="328"/>
      <point x="42" y="318"/>
      <point x="42" y="305" type="curve" smooth="yes"/>
      <point x="42" y="292"/>
      <point x="52" y="282"/>
      <point x="65" y="282" type="curve" smooth="yes"/>
    </contour>
    <contour>
      <point x="242" y="46"/>
      <point x="232" y="36"/>
      <point x="232" y="24" type="curve" smooth="yes"/>
      <point x="232" y="10"/>
      <point x="242" y="0"/>
      <point x="255" y="0" type="curve" smooth="yes"/>
      <point x="268" y="0"/>
      <point x="278" y="10"/>
      <point x="278" y="24" type="curve" smooth="yes"/>
      <point x="278" y="36"/>
      <point x="268" y="46"/>
      <point x="255" y="46" type="curve" smooth="yes"/>
    </contour>
    <contour>
      <point x="388" y="106"/>
      <point x="378" y="95"/>
      <point x="378" y="82" type="curve" smooth="yes"/>
      <point x="378" y="70"/>
      <point x="388" y="60"/>
      <point x="401" y="60" type="curve" smooth="yes"/>
      <point x="414" y="60"/>
      <point x="424" y="70"/>
      <point x="424" y="82" type="curve" smooth="yes"/>
      <point x="424" y="95"/>
      <point x="414" y="106"/>
      <point x="401" y="106" type="curve" smooth="yes"/>
    </contour>
    <contour>
      <point x="323" y="62"/>
      <point x="313" y="51"/>
      <point x="313" y="38" type="curve" smooth="yes"/>
      <point x="313" y="26"/>
      <point x="323" y="15"/>
      <point x="336" y="15" type="curve" smooth="yes"/>
      <point x="349" y="15"/>
      <point x="359" y="26"/>
      <point x="359" y="38" type="curve" smooth="yes"/>
      <point x="359" y="51"/>
      <point x="349" y="62"/>
      <point x="336" y="62" type="curve" smooth="yes"/>
    </contour>
    <contour>
      <point x="433" y="172"/>
      <point x="423" y="162"/>
      <point x="423" y="150" type="curve" smooth="yes"/>
      <point x="423" y="136"/>
      <point x="433" y="126"/>
      <point x="446" y="126" type="curve" smooth="yes"/>
      <point x="459" y="126"/>
      <point x="469" y="136"/>
      <point x="469" y="150" type="curve" smooth="yes"/>
      <point x="469" y="162"/>
      <point x="459" y="172"/>
      <point x="446" y="172" type="curve" smooth="yes"/>
    </contour>
    <contour>
      <point x="96" y="106"/>
      <point x="87" y="95"/>
      <point x="87" y="82" type="curve" smooth="yes"/>
      <point x="87" y="70"/>
      <point x="96" y="60"/>
      <point x="110" y="60" type="curve" smooth="yes"/>
      <point x="123" y="60"/>
      <point x="133" y="70"/>
      <point x="133" y="82" type="curve" smooth="yes"/>
      <point x="133" y="95"/>
      <point x="123" y="106"/>
      <point x="110" y="106" type="curve" smooth="yes"/>
    </contour>
    <contour>
      <point x="162" y="62"/>
      <point x="152" y="51"/>
      <point x="152" y="38" type="curve" smooth="yes"/>
      <point x="152" y="26"/>
      <point x="162" y="15"/>
      <point x="175" y="15" type="curve" smooth="yes"/>
      <point x="187" y="15"/>
      <point x="198" y="26"/>
      <point x="198" y="38" type="curve" smooth="yes"/>
      <point x="198" y="51"/>
      <point x="187" y="62"/>
      <point x="175" y="62" type="curve" smooth="yes"/>
    </contour>
    <contour>
      <point x="52" y="172"/>
      <point x="42" y="162"/>
      <point x="42" y="150" type="curve" smooth="yes"/>
      <point x="42" y="136"/>
      <point x="52" y="126"/>
      <point x="65" y="126" type="curve" smooth="yes"/>
      <point x="78" y="126"/>
      <point x="88" y="136"/>
      <point x="88" y="150" type="curve" smooth="yes"/>
      <point x="88" y="162"/>
      <point x="78" y="172"/>
      <point x="65" y="172" type="curve" smooth="yes"/>
    </contour>
    <contour>
      <point x="255" y="445" type="move" name="top"/>
    </contour>
    <contour>
      <point x="255" y="-28" type="move" name="bottom"/>
    </contour>
  </outline>
</glyph>
<glyph name=".notdef" format="1">
  <advance width="407"/>
  <outline>
    <contour>
      <point x="101" y="456" type="line"/>
      <point x="13" y="0" type="line"/>
      <point x="320" y="0" type="line"/>
      <point x="408" y="456" type="line"/>
    </contour>
    <contour>
      <point x="276" y="45" type="line"/>
      <point x="74" y="45" type="line"/>
      <point x="145" y="411" type="line"/>
      <point x="347" y="411" type="line"/>
    </contour>
  </outline>
</glyph>
<glyph name="aideva_candrabindudeva" format="1">
  <advance width="467"/>
  <outline>
    <contour>
      <point x="314" y="586" type="line"/>
      <point x="291" y="622"/>
      <point x="275" y="637"/>
      <point x="235" y="637" type="curve" smooth="yes"/>
      <point x="205" y="637"/>
      <point x="173" y="620"/>
      <point x="173" y="620" type="curve"/>
      <point x="185" y="575" type="line"/>
      <point x="184" y="575"/>
      <point x="209" y="586"/>
      <point x="233" y="586" type="curve" smooth="yes"/>
      <point x="252" y="586"/>
      <point x="259" y="580"/>
      <point x="271" y="561" type="curve" smooth="yes"/>
      <point x="333" y="456" type="line"/>
      <point x="28" y="456" type="line"/>
      <point x="18" y="408" type="line"/>
      <point x="93" y="408" type="line"/>
      <point x="49" y="172" type="line"/>
      <point x="270" y="-44" type="line"/>
      <point x="310" y="-5" type="line"/>
      <point x="105" y="194" type="line"/>
      <point x="147" y="408" type="line"/>
      <point x="332" y="408" type="line"/>
      <point x="304" y="261" type="line"/>
      <point x="293" y="214"/>
      <point x="290" y="191"/>
      <point x="232" y="171" type="curve"/>
      <point x="253" y="123" type="line"/>
      <point x="322" y="149"/>
      <point x="341" y="186"/>
      <point x="353" y="246" type="curve" smooth="yes"/>
      <point x="384" y="408" type="line"/>
      <point x="474" y="408" type="line"/>
      <point x="484" y="456" type="line"/>
      <point x="393" y="456" type="line"/>
    </contour>
    <contour>
      <point x="483" y="592"/>
      <point x="492" y="603"/>
      <point x="494" y="612" type="curve" smooth="yes"/>
      <point x="497" y="628"/>
      <point x="489" y="642"/>
      <point x="471" y="642" type="curve" smooth="yes"/>
      <point x="457" y="642"/>
      <point x="448" y="632"/>
      <point x="446" y="622" type="curve" smooth="yes"/>
      <point x="443" y="607"/>
      <point x="451" y="592"/>
      <point x="469" y="592" type="curve" smooth="yes"/>
    </contour>
    <contour>
      <point x="536" y="607" type="line"/>
      <point x="517" y="574"/>
      <point x="489" y="556"/>
      <point x="460" y="556" type="curve" smooth="yes"/>
      <point x="436" y="556"/>
      <point x="416" y="570"/>
      <point x="410" y="603" type="curve"/>
      <point x="374" y="592" type="line"/>
      <point x="381" y="550"/>
      <point x="408" y="519"/>
      <point x="461" y="519" type="curve" smooth="yes"/>
      <point x="505" y="519"/>
      <point x="545" y="544"/>
      <point x="569" y="586" type="curve"/>
    </contour>
  </outline>
</glyph>
<glyph name="aivowelsigndeva_anusvaradeva" format="1">
  <advance width="0"/>
  <outline>
    <contour>
      <point x="-110" y="599" type="line" smooth="yes"/>
      <point x="-119" y="637"/>
      <point x="-132" y="679"/>
      <point x="-185" y="679" type="curve" smooth="yes"/>
      <point x="-208" y="679"/>
      <point x="-237" y="669"/>
      <point x="-237" y="669" type="curve"/>
      <point x="-232" y="622" type="line"/>
      <point x="-233" y="622"/>
      <point x="-207" y="629"/>
      <point x="-190" y="629" type="curve" smooth="yes"/>
      <point x="-163" y="629"/>
      <point x="-157" y="596"/>
      <point x="-149" y="568" type="curve" smooth="yes"/>
      <point x="-121" y="467" type="line"/>
      <point x="-194" y="539" type="line"/>
      <point x="-229" y="572"/>
      <point x="-243" y="595"/>
      <point x="-282" y="595" type="curve" smooth="yes"/>
      <point x="-302" y="595"/>
      <point x="-339" y="585"/>
      <point x="-339" y="585" type="curve"/>
      <point x="-335" y="536" type="line"/>
      <point x="-335" y="536"/>
      <point x="-304" y="545"/>
      <point x="-287" y="545" type="curve" smooth="yes"/>
      <point x="-268" y="545"/>
      <point x="-249" y="525"/>
      <point x="-218" y="499" type="curve" smooth="yes"/>
      <point x="-144" y="437" type="line"/>
      <point x="-75" y="437" type="line"/>
    </contour>
    <contour>
      <point x="0" y="539"/>
      <point x="15" y="553"/>
      <point x="18" y="570" type="curve" smooth="yes"/>
      <point x="23" y="594"/>
      <point x="10" y="612"/>
      <point x="-15" y="612" type="curve" smooth="yes"/>
      <point x="-35" y="612"/>
      <point x="-50" y="598"/>
      <point x="-53" y="580" type="curve" smooth="yes"/>
      <point x="-58" y="557"/>
      <point x="-45" y="539"/>
      <point x="-21" y="539" type="curve" smooth="yes"/>
    </contour>
    <contour>
      <point x="-123" y="447" type="move" name="_top"/>
    </contour>
  </outline>
</glyph>
<glyph name="aivowelsigndeva_uni0930094D_anu" format="1">
  <advance width="0"/>
  <outline>
    <contour>
      <point x="-12" y="512"/>
      <point x="-1" y="523"/>
      <point x="1" y="535" type="curve" smooth="yes"/>
      <point x="5" y="554"/>
      <point x="-5" y="569"/>
      <point x="-25" y="569" type="curve" smooth="yes"/>
      <point x="-40" y="569"/>
      <point x="-51" y="558"/>
      <point x="-54" y="545" type="curve" smooth="yes"/>
      <point x="-57" y="527"/>
      <point x="-47" y="512"/>
      <point x="-28" y="512" type="curve" smooth="yes"/>
    </contour>
    <contour>
      <point x="-81" y="456"/>
      <point x="-95" y="505"/>
      <point x="-95" y="533" type="curve" smooth="yes"/>
      <point x="-95" y="577"/>
      <point x="-68" y="606"/>
      <point x="-20" y="606" type="curve" smooth="yes"/>
      <point x="9" y="606"/>
      <point x="33" y="590"/>
      <point x="48" y="579" type="curve"/>
      <point x="79" y="619" type="line"/>
      <point x="58" y="635"/>
      <point x="27" y="654"/>
      <point x="-17" y="654" type="curve" smooth="yes"/>
      <point x="-51" y="654"/>
      <point x="-88" y="636"/>
      <point x="-112" y="599" type="curve"/>
      <point x="-120" y="635"/>
      <point x="-133" y="679"/>
      <point x="-185" y="679" type="curve" smooth="yes"/>
      <point x="-209" y="679"/>
      <point x="-237" y="669"/>
      <point x="-237" y="669" type="curve"/>
      <point x="-232" y="622" type="line"/>
      <point x="-233" y="622"/>
      <point x="-207" y="629"/>
      <point x="-190" y="629" type="curve" smooth="yes"/>
      <point x="-163" y="629"/>
      <point x="-156" y="596"/>
      <point x="-149" y="568" type="curve" smooth="yes"/>
      <point x="-122" y="467" type="line"/>
      <point x="-195" y="539" type="line"/>
      <point x="-230" y="573"/>
      <point x="-243" y="595"/>
      <point x="-282" y="595" type="curve" smooth="yes"/>
      <point x="-302" y="595"/>
      <point x="-339" y="584"/>
      <point x="-339" y="584" type="curve"/>
      <point x="-335" y="536" type="line"/>
      <point x="-335" y="536"/>
      <point x="-304" y="545"/>
      <point x="-287" y="545" type="curve" smooth="yes"/>
      <point x="-268" y="545"/>
      <point x="-247" y="523"/>
      <point x="-218" y="499" type="curve" smooth="yes"/>
      <point x="-144" y="437" type="line"/>
      <point x="-75" y="435" type="line"/>
    </contour>
    <contour>
      <point x="-123" y="447" type="move" name="_top"/>
    </contour>
  </outline>
</glyph>
<glyph name="anusvaradeva.alt1" format="1">
  <advance width="0"/>
  <outline>
    <contour>
      <point x="-10" y="539"/>
      <point x="5" y="553"/>
      <point x="8" y="570" type="curve" smooth="yes"/>
      <point x="13" y="594"/>
      <point x="0" y="612"/>
      <point x="-25" y="612" type="curve" smooth="yes"/>
      <point x="-45" y="612"/>
      <point x="-60" y="598"/>
      <point x="-63" y="580" type="curve" smooth="yes"/>
      <point x="-68" y="557"/>
      <point x="-55" y="539"/>
      <point x="-31" y="539" type="curve" smooth="yes"/>
    </contour>
    <contour>
      <point x="-103" y="447" type="move" name="_top"/>
    </contour>
  </outline>
</glyph>
<glyph name="breve.cap" format="1">
  <advance width="250"/>
  <outline>
    <contour>
      <point x="188" y="598"/>
      <point x="235" y="624"/>
      <point x="271" y="668" type="curve"/>
      <point x="234" y="700" type="line"/>
      <point x="204" y="670"/>
      <point x="175" y="646"/>
      <point x="140" y="646" type="curve" smooth="yes"/>
      <point x="108" y="646"/>
      <point x="89" y="666"/>
      <point x="69" y="696" type="curve"/>
      <point x="27" y="672" type="line"/>
      <point x="50" y="628"/>
      <point x="84" y="598"/>
      <point x="138" y="598" type="curve" smooth="yes"/>
    </contour>
    <contour>
      <point x="124" y="550" type="move" name="_top.cap"/>
    </contour>
  </outline>
</glyph>
<glyph name="candrabindudeva.alt2" format="1">
  <advance width="600"/>
  <outline>
    <contour>
      <point x="290" y="582"/>
      <point x="299" y="593"/>
      <point x="301" y="602" type="curve" smooth="yes"/>
      <point x="304" y="618"/>
      <point x="296" y="632"/>
      <point x="278" y="632" type="curve" smooth="yes"/>
      <point x="264" y="632"/>
      <point x="255" y="622"/>
      <point x="253" y="612" type="curve" smooth="yes"/>
      <point x="250" y="597"/>
      <point x="258" y="582"/>
      <point x="276" y="582" type="curve" smooth="yes"/>
    </contour>
    <contour>
      <point x="343" y="597" type="line"/>
      <point x="324" y="564"/>
      <point x="296" y="546"/>
      <point x="267" y="546" type="curve" smooth="yes"/>
      <point x="243" y="546"/>
      <point x="223" y="560"/>
      <point x="217" y="593" type="curve"/>
      <point x="181" y="582" type="line"/>
      <point x="188" y="540"/>
      <point x="215" y="509"/>
      <point x="268" y="509" type="curve" smooth="yes"/>
      <point x="312" y="509"/>
      <point x="352" y="534"/>
      <point x="376" y="576" type="curve"/>
    </contour>
    <contour>
      <point x="129" y="447" type="move" name="_top"/>
    </contour>
  </outline>
</glyph>
<glyph name="dddh_ra-deva" format="1">
  <advance width="410"/>
  <outline>
    <contour>
      <point x="15" y="-215" type="line"/>
      <point x="40" y="-252" type="line"/>
      <point x="143" y="-186" type="line"/>
      <point x="220" y="-252" type="line"/>
      <point x="259" y="-215" type="line"/>
      <point x="165" y="-136" type="line"/>
      <point x="137" y="-136" type="line"/>
    </contour>
    <component base="dddhadeva"/>
    <contour>
      <point x="357" y="447" type="move" name="top"/>
    </contour>
    <contour>
      <point x="126" y="-255" type="move" name="bottom"/>
    </contour>
  </outline>
</glyph>
<glyph name="evowelsigndeva_uni0930094D_anus" format="1">
  <advance width="600"/>
  <outline>
    <contour>
      <point x="-54" y="512"/>
      <point x="-43" y="523"/>
      <point x="-41" y="535" type="curve" smooth="yes"/>
      <point x="-37" y="554"/>
      <point x="-47" y="569"/>
      <point x="-67" y="569" type="curve" smooth="yes"/>
      <point x="-82" y="569"/>
      <point x="-93" y="558"/>
      <point x="-96" y="545" type="curve" smooth="yes"/>
      <point x="-99" y="527"/>
      <point x="-89" y="512"/>
      <point x="-70" y="512" type="curve" smooth="yes"/>
    </contour>
    <contour>
      <point x="-99" y="458"/>
      <point x="-137" y="495"/>
      <point x="-137" y="539" type="curve" smooth="yes"/>
      <point x="-137" y="575"/>
      <point x="-109" y="604"/>
      <point x="-66" y="604" type="curve" smooth="yes"/>
      <point x="-35" y="604"/>
      <point x="-12" y="590"/>
      <point x="4" y="579" type="curve"/>
      <point x="35" y="619" type="line"/>
      <point x="13" y="634"/>
      <point x="-17" y="654"/>
      <point x="-61" y="654" type="curve" smooth="yes"/>
      <point x="-100" y="654"/>
      <point x="-146" y="632"/>
      <point x="-165" y="583" type="curve"/>
      <point x="-169" y="583" type="line"/>
      <point x="-192" y="619"/>
      <point x="-216" y="643"/>
      <point x="-255" y="643" type="curve" smooth="yes"/>
      <point x="-285" y="643"/>
      <point x="-319" y="629"/>
      <point x="-319" y="629" type="curve"/>
      <point x="-301" y="580" type="line"/>
      <point x="-302" y="580"/>
      <point x="-281" y="592"/>
      <point x="-256" y="592" type="curve" smooth="yes"/>
      <point x="-240" y="592"/>
      <point x="-232" y="586"/>
      <point x="-219" y="567" type="curve"/>
      <point x="-142" y="437" type="line"/>
      <point x="-82" y="435" type="line"/>
    </contour>
    <contour>
      <point x="-124" y="447" type="move" name="_top"/>
    </contour>
  </outline>
</glyph>
<glyph name="iiMatra_reph-deva" format="1">
  <advance width="205"/>
  <outline>
    <contour>
      <point x="179" y="456" type="line"/>
      <point x="174" y="475"/>
      <point x="167" y="507"/>
      <point x="167" y="534" type="curve" smooth="yes"/>
      <point x="167" y="571"/>
      <point x="191" y="602"/>
      <point x="243" y="602" type="curve" smooth="yes"/>
      <point x="270" y="602"/>
      <point x="297" y="591"/>
      <point x="313" y="580" type="curve"/>
      <point x="345" y="619" type="line"/>
      <point x="323" y="636"/>
      <point x="282" y="654"/>
      <point x="242" y="654" type="curve" smooth="yes"/>
      <point x="198" y="654"/>
      <point x="159" y="637"/>
      <point x="134" y="595" type="curve"/>
      <point x="106" y="626"/>
      <point x="70" y="649"/>
      <point x="28" y="648" type="curve" smooth="yes"/>
      <point x="-52" y="648"/>
      <point x="-95" y="599"/>
      <point x="-106" y="543" type="curve" smooth="yes"/>
      <point x="-119" y="477"/>
      <point x="-79" y="438"/>
      <point x="-79" y="438" type="curve"/>
      <point x="-12" y="438" type="line"/>
      <point x="-27" y="451"/>
      <point x="-64" y="486"/>
      <point x="-55" y="533" type="curve" smooth="yes"/>
      <point x="-48" y="571"/>
      <point x="-21" y="597"/>
      <point x="24" y="597" type="curve" smooth="yes"/>
      <point x="65" y="597"/>
      <point x="117" y="563"/>
      <point x="127" y="456" type="curve"/>
      <point x="24" y="456" type="line"/>
      <point x="14" y="408" type="line"/>
      <point x="119" y="408" type="line"/>
      <point x="39" y="0" type="line"/>
      <point x="94" y="0" type="line"/>
      <point x="173" y="408" type="line"/>
      <point x="271" y="408" type="line"/>
      <point x="280" y="456" type="line"/>
    </contour>
  </outline>
</glyph>
<glyph name="iiMatra_reph_anusvara-deva.alt3" format="1">
  <advance width="208"/>
  <outline>
    <contour>
      <point x="261" y="499"/>
      <point x="273" y="511"/>
      <point x="276" y="525" type="curve" smooth="yes"/>
      <point x="280" y="545"/>
      <point x="269" y="560"/>
      <point x="248" y="560" type="curve" smooth="yes"/>
      <point x="232" y="560"/>
      <point x="220" y="548"/>
      <point x="217" y="534" type="curve" smooth="yes"/>
      <point x="213" y="515"/>
      <point x="224" y="499"/>
      <point x="243" y="499" type="curve" smooth="yes"/>
    </contour>
    <component base="iiMatra_reph-deva.alt3"/>
  </outline>
</glyph>
<glyph name="iiMatra_reph_anusvara-deva.alt4" format="1">
  <advance width="210"/>
  <outline>
    <contour>
      <point x="256" y="499"/>
      <point x="268" y="511"/>
      <point x="271" y="525" type="curve" smooth="yes"/>
      <point x="275" y="545"/>
      <point x="264" y="560"/>
      <point x="243" y="560" type="curve" smooth="yes"/>
      <point x="227" y="560"/>
      <point x="214" y="548"/>
      <point x="212" y="534" type="curve" smooth="yes"/>
      <point x="209" y="515"/>
      <point x="219" y="499"/>
      <point x="238" y="499" type="curve" smooth="yes"/>
    </contour>
    <component base="iiMatra_reph-deva.alt4"/>
  </outline>
</glyph>
<glyph name="iiMatra_reph_anusvara-deva.alt5" format="1">
  <advance width="208"/>
  <outline>
    <contour>
      <point x="253" y="499"/>
      <point x="265" y="511"/>
      <point x="268" y="525" type="curve" smooth="yes"/>
      <point x="272" y="545"/>
      <point x="261" y="560"/>
      <point x="240" y="560" type="curve" smooth="yes"/>
      <point x="224" y="560"/>
      <point x="211" y="548"/>
      <point x="209" y="534" type="curve" smooth="yes"/>
      <point x="206" y="515"/>
      <point x="216" y="499"/>
      <point x="235" y="499" type="curve" smooth="yes"/>
    </contour>
    <component base="iiMatra_reph-deva.alt5"/>
  </outline>
</glyph>
<glyph name="odeva_anusvaradeva" format="1">
  <advance width="795"/>
  <outline>
    <contour>
      <point x="870" y="456" type="line"/>
      <point x="774" y="456" type="line"/>
      <point x="694" y="586" type="line" smooth="yes"/>
      <point x="672" y="622"/>
      <point x="655" y="637"/>
      <point x="616" y="637" type="curve" smooth="yes"/>
      <point x="585" y="637"/>
      <point x="553" y="620"/>
      <point x="553" y="620" type="curve"/>
      <point x="565" y="575" type="line"/>
      <point x="564" y="575"/>
      <point x="589" y="586"/>
      <point x="614" y="586" type="curve" smooth="yes"/>
      <point x="634" y="586"/>
      <point x="641" y="580"/>
      <point x="651" y="561" type="curve"/>
      <point x="713" y="456" type="line"/>
      <point x="414" y="456" type="line"/>
      <point x="404" y="408" type="line"/>
      <point x="498" y="408" type="line"/>
      <point x="466" y="251" type="line"/>
      <point x="442" y="240"/>
      <point x="418" y="230"/>
      <point x="378" y="230" type="curve" smooth="yes"/>
      <point x="353" y="230"/>
      <point x="323" y="237"/>
      <point x="290" y="252" type="curve"/>
      <point x="340" y="275"/>
      <point x="365" y="309"/>
      <point x="373" y="348" type="curve" smooth="yes"/>
      <point x="385" y="411"/>
      <point x="343" y="457"/>
      <point x="269" y="457" type="curve" smooth="yes"/>
      <point x="209" y="457"/>
      <point x="165" y="425"/>
      <point x="142" y="409" type="curve"/>
      <point x="167" y="364" type="line"/>
      <point x="192" y="383"/>
      <point x="220" y="406"/>
      <point x="266" y="406" type="curve" smooth="yes"/>
      <point x="304" y="406"/>
      <point x="329" y="388"/>
      <point x="322" y="352" type="curve" smooth="yes"/>
      <point x="317" y="328"/>
      <point x="299" y="274"/>
      <point x="196" y="275" type="curve" smooth="yes"/>
      <point x="175" y="275" type="line"/>
      <point x="165" y="226" type="line"/>
      <point x="186" y="226" type="line"/>
      <point x="295" y="230"/>
      <point x="305" y="189"/>
      <point x="298" y="152" type="curve" smooth="yes"/>
      <point x="288" y="102"/>
      <point x="244" y="77"/>
      <point x="194" y="77" type="curve" smooth="yes"/>
      <point x="123" y="77"/>
      <point x="91" y="125"/>
      <point x="63" y="205" type="curve"/>
      <point x="17" y="182" type="line"/>
      <point x="53" y="83"/>
      <point x="96" y="25"/>
      <point x="193" y="25" type="curve" smooth="yes"/>
      <point x="267" y="25"/>
      <point x="334" y="72"/>
      <point x="346" y="132" type="curve" smooth="yes"/>
      <point x="350" y="154"/>
      <point x="350" y="170"/>
      <point x="348" y="184" type="curve"/>
      <point x="362" y="183"/>
      <point x="376" y="182"/>
      <point x="390" y="182" type="curve" smooth="yes"/>
      <point x="416" y="182"/>
      <point x="440" y="187"/>
      <point x="459" y="193" type="curve"/>
      <point x="419" y="0" type="line"/>
      <point x="473" y="0" type="line"/>
      <point x="552" y="408" type="line"/>
      <point x="708" y="408" type="line"/>
      <point x="629" y="0" type="line"/>
      <point x="684" y="0" type="line"/>
      <point x="763" y="408" type="line"/>
      <point x="860" y="408" type="line"/>
    </contour>
    <contour>
      <point x="837" y="519"/>
      <point x="852" y="533"/>
      <point x="855" y="550" type="curve" smooth="yes"/>
      <point x="860" y="574"/>
      <point x="847" y="592"/>
      <point x="822" y="592" type="curve" smooth="yes"/>
      <point x="802" y="592"/>
      <point x="787" y="578"/>
      <point x="784" y="560" type="curve" smooth="yes"/>
      <point x="780" y="537"/>
      <point x="792" y="519"/>
      <point x="816" y="519" type="curve" smooth="yes"/>
    </contour>
  </outline>
</glyph>
<glyph name="odeva_candrabindudeva" format="1">
  <advance width="795"/>
  <outline>
    <contour>
      <point x="862" y="592"/>
      <point x="871" y="603"/>
      <point x="873" y="612" type="curve" smooth="yes"/>
      <point x="876" y="628"/>
      <point x="868" y="642"/>
      <point x="850" y="642" type="curve" smooth="yes"/>
      <point x="836" y="642"/>
      <point x="827" y="632"/>
      <point x="825" y="622" type="curve" smooth="yes"/>
      <point x="822" y="607"/>
      <point x="830" y="592"/>
      <point x="848" y="592" type="curve" smooth="yes"/>
    </contour>
    <contour>
      <point x="693" y="586" type="line"/>
      <point x="670" y="622"/>
      <point x="654" y="637"/>
      <point x="614" y="637" type="curve" smooth="yes"/>
      <point x="584" y="637"/>
      <point x="552" y="620"/>
      <point x="552" y="620" type="curve"/>
      <point x="564" y="575" type="line"/>
      <point x="563" y="575"/>
      <point x="588" y="586"/>
      <point x="612" y="586" type="curve" smooth="yes"/>
      <point x="631" y="586"/>
      <point x="638" y="580"/>
      <point x="650" y="561" type="curve" smooth="yes"/>
      <point x="712" y="456" type="line"/>
      <point x="414" y="456" type="line"/>
      <point x="404" y="408" type="line"/>
      <point x="498" y="408" type="line"/>
      <point x="466" y="251" type="line"/>
      <point x="442" y="240"/>
      <point x="418" y="230"/>
      <point x="378" y="230" type="curve" smooth="yes"/>
      <point x="353" y="230"/>
      <point x="323" y="237"/>
      <point x="290" y="252" type="curve"/>
      <point x="340" y="275"/>
      <point x="365" y="309"/>
      <point x="373" y="348" type="curve" smooth="yes"/>
      <point x="385" y="411"/>
      <point x="343" y="457"/>
      <point x="269" y="457" type="curve" smooth="yes"/>
      <point x="209" y="457"/>
      <point x="165" y="425"/>
      <point x="142" y="409" type="curve"/>
      <point x="167" y="364" type="line"/>
      <point x="192" y="383"/>
      <point x="220" y="406"/>
      <point x="266" y="406" type="curve" smooth="yes"/>
      <point x="304" y="406"/>
      <point x="329" y="388"/>
      <point x="322" y="352" type="curve" smooth="yes"/>
      <point x="317" y="328"/>
      <point x="299" y="274"/>
      <point x="196" y="275" type="curve" smooth="yes"/>
      <point x="175" y="275" type="line"/>
      <point x="165" y="226" type="line"/>
      <point x="186" y="226" type="line"/>
      <point x="295" y="230"/>
      <point x="305" y="189"/>
      <point x="298" y="152" type="curve" smooth="yes"/>
      <point x="288" y="102"/>
      <point x="244" y="77"/>
      <point x="194" y="77" type="curve" smooth="yes"/>
      <point x="123" y="77"/>
      <point x="91" y="125"/>
      <point x="63" y="205" type="curve"/>
      <point x="17" y="182" type="line"/>
      <point x="53" y="83"/>
      <point x="96" y="25"/>
      <point x="193" y="25" type="curve" smooth="yes"/>
      <point x="267" y="25"/>
      <point x="334" y="72"/>
      <point x="346" y="132" type="curve" smooth="yes"/>
      <point x="350" y="154"/>
      <point x="350" y="170"/>
      <point x="348" y="184" type="curve"/>
      <point x="362" y="183"/>
      <point x="376" y="182"/>
      <point x="390" y="182" type="curve" smooth="yes"/>
      <point x="416" y="182"/>
      <point x="440" y="187"/>
      <point x="459" y="193" type="curve"/>
      <point x="419" y="0" type="line"/>
      <point x="473" y="0" type="line"/>
      <point x="552" y="408" type="line"/>
      <point x="708" y="408" type="line"/>
      <point x="629" y="0" type="line"/>
      <point x="684" y="0" type="line"/>
      <point x="763" y="408" type="line"/>
      <point x="860" y="408" type="line"/>
      <point x="870" y="456" type="line"/>
      <point x="772" y="456" type="line"/>
    </contour>
    <contour>
      <point x="915" y="607" type="line"/>
      <point x="896" y="574"/>
      <point x="868" y="556"/>
      <point x="839" y="556" type="curve" smooth="yes"/>
      <point x="815" y="556"/>
      <point x="795" y="570"/>
      <point x="789" y="603" type="curve"/>
      <point x="753" y="592" type="line"/>
      <point x="760" y="550"/>
      <point x="787" y="519"/>
      <point x="840" y="519" type="curve" smooth="yes"/>
      <point x="884" y="519"/>
      <point x="924" y="544"/>
      <point x="948" y="586" type="curve"/>
    </contour>
  </outline>
</glyph>
<glyph name="rvocalicvowelsigndeva.alt" format="1">
  <advance width="219"/>
  <outline>
    <contour>
      <point x="-132" y="-182"/>
      <point x="-101" y="-230"/>
      <point x="-29" y="-230" type="curve" smooth="yes"/>
      <point x="8" y="-230"/>
      <point x="34" y="-222"/>
      <point x="64" y="-206" type="curve"/>
      <point x="45" y="-162" type="line"/>
      <point x="22" y="-174"/>
      <point x="2" y="-182"/>
      <point x="-27" y="-182" type="curve" smooth="yes"/>
      <point x="-55" y="-182"/>
      <point x="-76" y="-167"/>
      <point x="-70" y="-132" type="curve" smooth="yes"/>
      <point x="-62" y="-91"/>
      <point x="-30" y="-72"/>
      <point x="12" y="-72" type="curve" smooth="yes"/>
      <point x="31" y="-72"/>
      <point x="55" y="-75"/>
      <point x="70" y="-81" type="curve"/>
      <point x="70" y="-31" type="line"/>
      <point x="58" y="-28"/>
      <point x="40" y="-22"/>
      <point x="6" y="-22" type="curve" smooth="yes"/>
      <point x="-56" y="-22"/>
      <point x="-109" y="-63"/>
      <point x="-121" y="-124" type="curve" smooth="yes"/>
      <point x="-121" y="-126" type="line" smooth="yes"/>
    </contour>
    <contour>
      <point x="27" y="-25" type="move" name="_bottom"/>
    </contour>
  </outline>
</glyph>
<glyph name="shadeva.MAR" format="1">
  <advance width="520"/>
  <outline>
    <contour>
      <point x="302" y="301"/>
      <point x="265" y="355"/>
      <point x="191" y="355" type="curve" smooth="yes"/>
      <point x="143" y="355"/>
      <point x="99" y="327"/>
      <point x="67" y="283" type="curve"/>
      <point x="108" y="253" type="line"/>
      <point x="126" y="279"/>
      <point x="159" y="303"/>
      <point x="189" y="303" type="curve" smooth="yes"/>
      <point x="233" y="303"/>
      <point x="243" y="270"/>
      <point x="237" y="243" type="curve" smooth="yes"/>
      <point x="225" y="182"/>
      <point x="130" y="150"/>
      <point x="92" y="134" type="curve"/>
      <point x="132" y="97" type="line"/>
      <point x="218" y="133"/>
      <point x="277" y="174"/>
      <point x="289" y="234" type="curve" smooth="yes"/>
    </contour>
    <contour>
      <point x="29" y="116"/>
      <point x="64" y="89"/>
      <point x="113" y="90" type="curve"/>
      <point x="200" y="-15" type="line"/>
      <point x="199" y="-15"/>
      <point x="249" y="23"/>
      <point x="249" y="23" type="curve"/>
      <point x="82" y="199" type="line"/>
      <point x="54" y="190"/>
      <point x="39" y="172"/>
      <point x="36" y="155" type="curve" smooth="yes"/>
    </contour>
    <contour>
      <point x="28" y="456" type="line"/>
      <point x="18" y="408" type="line"/>
      <point x="585" y="408" type="line"/>
      <point x="595" y="456" type="line"/>
    </contour>
    <contour>
      <point x="352" y="0" type="line"/>
      <point x="408" y="0" type="line"/>
      <point x="497" y="456" type="line"/>
      <point x="441" y="456" type="line"/>
    </contour>
    <contour>
      <point x="164" y="325" type="line"/>
      <point x="216" y="325" type="line"/>
      <point x="242" y="456" type="line"/>
      <point x="190" y="456" type="line"/>
    </contour>
    <contour>
      <point x="467" y="447" type="move" name="top"/>
    </contour>
    <contour>
      <point x="381" y="5" type="move" name="bottom"/>
    </contour>
  </outline>
</glyph>
<glyph name="uni0915094D0930094D" format="1">
  <advance width="425"/>
  <outline>
    <contour>
      <point x="28" y="456" type="line"/>
      <point x="18" y="408" type="line"/>
      <point x="493" y="408" type="line"/>
      <point x="503" y="456" type="line"/>
    </contour>
    <contour>
      <point x="540" y="267" type="line"/>
      <point x="510" y="313"/>
      <point x="473" y="333"/>
      <point x="414" y="333" type="curve" smooth="yes"/>
      <point x="364" y="333"/>
      <point x="306" y="297"/>
      <point x="275" y="279" type="curve"/>
      <point x="283" y="225" type="line"/>
      <point x="301" y="237"/>
      <point x="363" y="282"/>
      <point x="411" y="282" type="curve" smooth="yes"/>
      <point x="463" y="282"/>
      <point x="488" y="269"/>
      <point x="510" y="216" type="curve"/>
    </contour>
    <contour>
      <point x="225" y="0" type="line"/>
      <point x="278" y="0" type="line"/>
      <point x="367" y="456" type="line"/>
      <point x="314" y="456" type="line"/>
    </contour>
    <contour>
      <point x="20" y="130"/>
      <point x="72" y="77"/>
      <point x="157" y="77" type="curve" smooth="yes"/>
      <point x="217" y="77"/>
      <point x="254" y="99"/>
      <point x="285" y="117" type="curve"/>
      <point x="277" y="171" type="line"/>
      <point x="259" y="159"/>
      <point x="226" y="124"/>
      <point x="167" y="124" type="curve" smooth="yes"/>
      <point x="110" y="124"/>
      <point x="80" y="149"/>
      <point x="90" y="200" type="curve" smooth="yes"/>
      <point x="101" y="256"/>
      <point x="146" y="286"/>
      <point x="202" y="286" type="curve" smooth="yes"/>
      <point x="252" y="286"/>
      <point x="281" y="254"/>
      <point x="295" y="242" type="curve"/>
      <point x="316" y="291" type="line"/>
      <point x="291" y="309"/>
      <point x="254" y="337"/>
      <point x="200" y="337" type="curve" smooth="yes"/>
      <point x="119" y="337"/>
      <point x="51" y="288"/>
      <point x="36" y="210" type="curve" smooth="yes"/>
    </contour>
    <contour>
      <point x="33" y="18"/>
      <point x="57" y="-20"/>
      <point x="57" y="-20" type="curve"/>
      <point x="294" y="125" type="line"/>
      <point x="268" y="151" type="line"/>
      <point x="33" y="18" type="line"/>
    </contour>
    <contour>
      <point x="338" y="447" type="move" name="top"/>
    </contour>
  </outline>
</glyph>
<glyph name="uni0915094D_madeva" format="1">
  <advance width="868"/>
  <outline>
    <contour>
      <point x="943" y="456" type="line"/>
      <point x="28" y="456" type="line"/>
      <point x="18" y="408" type="line"/>
      <point x="304" y="408" type="line"/>
      <point x="284" y="313" type="line"/>
      <point x="262" y="325"/>
      <point x="236" y="337"/>
      <point x="201" y="337" type="curve" smooth="yes"/>
      <point x="120" y="337"/>
      <point x="52" y="288"/>
      <point x="37" y="210" type="curve" smooth="yes"/>
      <point x="21" y="126"/>
      <point x="72" y="73"/>
      <point x="157" y="73" type="curve" smooth="yes"/>
      <point x="193" y="73"/>
      <point x="221" y="82"/>
      <point x="245" y="94" type="curve"/>
      <point x="225" y="0" type="line"/>
      <point x="278" y="0" type="line"/>
      <point x="329" y="254" type="line"/>
      <point x="355" y="268"/>
      <point x="388" y="282"/>
      <point x="419" y="282" type="curve" smooth="yes"/>
      <point x="456" y="282"/>
      <point x="488" y="261"/>
      <point x="512" y="239" type="curve"/>
      <point x="503" y="204" type="line"/>
      <point x="441" y="204" type="line"/>
      <point x="435" y="171" type="line"/>
      <point x="496" y="76" type="line"/>
      <point x="533" y="76" type="line"/>
      <point x="548" y="156" type="line"/>
      <point x="730" y="156" type="line"/>
      <point x="700" y="0" type="line"/>
      <point x="756" y="0" type="line"/>
      <point x="835" y="408" type="line"/>
      <point x="933" y="408" type="line"/>
    </contour>
    <contour>
      <point x="391" y="333"/>
      <point x="362" y="325"/>
      <point x="337" y="313" type="curve"/>
      <point x="357" y="408" type="line"/>
      <point x="542" y="408" type="line"/>
      <point x="519" y="298" type="line"/>
      <point x="496" y="316"/>
      <point x="466" y="333"/>
      <point x="420" y="333" type="curve" smooth="yes"/>
    </contour>
    <contour>
      <point x="740" y="204" type="line"/>
      <point x="558" y="204" type="line"/>
      <point x="597" y="408" type="line"/>
      <point x="779" y="408" type="line"/>
    </contour>
    <contour>
      <point x="111" y="124"/>
      <point x="81" y="149"/>
      <point x="91" y="200" type="curve" smooth="yes"/>
      <point x="102" y="256"/>
      <point x="147" y="286"/>
      <point x="203" y="286" type="curve" smooth="yes"/>
      <point x="236" y="286"/>
      <point x="260" y="272"/>
      <point x="277" y="259" type="curve"/>
      <point x="253" y="152" type="line"/>
      <point x="234" y="139"/>
      <point x="206" y="124"/>
      <point x="168" y="124" type="curve" smooth="yes"/>
    </contour>
    <contour>
      <point x="815" y="447" type="move" name="top"/>
    </contour>
    <contour>
      <point x="729" y="5" type="move" name="bottom"/>
    </contour>
  </outline>
</glyph>
<glyph name="uni0915094D_radeva.NEP" format="1">
  <advance width="622"/>
  <outline>
    <contour>
      <point x="687" y="408" type="line"/>
      <point x="18" y="408" type="line"/>
      <point x="28" y="456" type="line"/>
      <point x="697" y="456" type="line"/>
    </contour>
    <contour>
      <point x="418" y="456" type="line"/>
      <point x="329" y="0" type="line"/>
      <point x="275" y="0" type="line"/>
      <point x="364" y="456" type="line"/>
    </contour>
    <contour>
      <point x="305" y="234" type="line"/>
      <point x="330" y="193" type="line"/>
      <point x="329" y="193"/>
      <point x="85" y="14"/>
      <point x="85" y="16" type="curve" smooth="yes"/>
      <point x="83" y="14"/>
      <point x="52" y="54"/>
      <point x="52" y="54" type="curve"/>
    </contour>
    <contour>
      <point x="312" y="167" type="line"/>
      <point x="305" y="180"/>
      <point x="297" y="199"/>
      <point x="286" y="211" type="curve" smooth="yes"/>
      <point x="265" y="251"/>
      <point x="233" y="283"/>
      <point x="191" y="283" type="curve"/>
      <point x="147" y="285"/>
      <point x="103" y="246"/>
      <point x="62" y="211" type="curve"/>
      <point x="31" y="244" type="line"/>
      <point x="87" y="294"/>
      <point x="139" y="337"/>
      <point x="212" y="337" type="curve"/>
      <point x="267" y="337"/>
      <point x="305" y="304"/>
      <point x="346" y="244" type="curve"/>
    </contour>
    <contour>
      <point x="585" y="135"/>
      <point x="528" y="88"/>
      <point x="486" y="59" type="curve"/>
      <point x="456" y="94" type="line"/>
      <point x="492" y="121"/>
      <point x="532" y="149"/>
      <point x="541" y="197" type="curve" smooth="yes"/>
      <point x="551" y="247"/>
      <point x="524" y="277"/>
      <point x="468" y="277" type="curve" smooth="yes"/>
      <point x="414" y="277"/>
      <point x="374" y="235"/>
      <point x="355" y="223" type="curve"/>
      <point x="355" y="276" type="line"/>
      <point x="386" y="294"/>
      <point x="426" y="328"/>
      <point x="490" y="328" type="curve" smooth="yes"/>
      <point x="571" y="328"/>
      <point x="613" y="277"/>
      <point x="598" y="201" type="curve" smooth="yes"/>
    </contour>
    <contour>
      <point x="388" y="447" type="move" name="top"/>
    </contour>
    <contour>
      <point x="303" y="5" type="move" name="bottom"/>
    </contour>
  </outline>
</glyph>
<glyph name="uni0915094D_sadeva" format="1">
  <advance width="963"/>
  <outline>
    <contour>
      <point x="1038" y="456" type="line"/>
      <point x="28" y="456" type="line"/>
      <point x="18" y="408" type="line"/>
      <point x="304" y="408" type="line"/>
      <point x="284" y="313" type="line"/>
      <point x="262" y="325"/>
      <point x="236" y="337"/>
      <point x="201" y="337" type="curve" smooth="yes"/>
      <point x="120" y="337"/>
      <point x="52" y="288"/>
      <point x="37" y="210" type="curve" smooth="yes"/>
      <point x="21" y="126"/>
      <point x="72" y="73"/>
      <point x="157" y="73" type="curve" smooth="yes"/>
      <point x="193" y="73"/>
      <point x="221" y="82"/>
      <point x="245" y="94" type="curve"/>
      <point x="225" y="0" type="line"/>
      <point x="278" y="0" type="line"/>
      <point x="329" y="253" type="line"/>
      <point x="349" y="263"/>
      <point x="374" y="272"/>
      <point x="399" y="272" type="curve" smooth="yes"/>
      <point x="431" y="272"/>
      <point x="451" y="240"/>
      <point x="466" y="216" type="curve"/>
      <point x="465" y="214"/>
      <point x="591" y="-17"/>
      <point x="591" y="-17" type="curve"/>
      <point x="646" y="14" type="line"/>
      <point x="558" y="166" type="line"/>
      <point x="570" y="170"/>
      <point x="581" y="175"/>
      <point x="595" y="182" type="curve"/>
      <point x="637" y="170"/>
      <point x="677" y="162"/>
      <point x="714" y="162" type="curve" smooth="yes"/>
      <point x="766" y="162"/>
      <point x="808" y="169"/>
      <point x="831" y="174" type="curve"/>
      <point x="795" y="0" type="line"/>
      <point x="851" y="0" type="line"/>
      <point x="930" y="408" type="line"/>
      <point x="1028" y="408" type="line"/>
    </contour>
    <contour>
      <point x="510" y="242" type="line"/>
      <point x="481" y="288"/>
      <point x="461" y="323"/>
      <point x="402" y="323" type="curve" smooth="yes"/>
      <point x="380" y="323"/>
      <point x="357" y="318"/>
      <point x="336" y="310" type="curve"/>
      <point x="357" y="408" type="line"/>
      <point x="609" y="410" type="line"/>
      <point x="624" y="392"/>
      <point x="638" y="362"/>
      <point x="629" y="311" type="curve" smooth="yes"/>
      <point x="616" y="248"/>
      <point x="564" y="222"/>
      <point x="529" y="213" type="curve"/>
    </contour>
    <contour>
      <point x="838" y="230" type="line"/>
      <point x="817" y="224"/>
      <point x="779" y="216"/>
      <point x="727" y="216" type="curve" smooth="yes"/>
      <point x="705" y="216"/>
      <point x="672" y="217"/>
      <point x="641" y="222" type="curve"/>
      <point x="661" y="243"/>
      <point x="674" y="269"/>
      <point x="680" y="299" type="curve" smooth="yes"/>
      <point x="690" y="351"/>
      <point x="681" y="384"/>
      <point x="668" y="406" type="curve"/>
      <point x="874" y="408" type="line"/>
    </contour>
    <contour>
      <point x="111" y="124"/>
      <point x="81" y="149"/>
      <point x="91" y="200" type="curve" smooth="yes"/>
      <point x="102" y="256"/>
      <point x="147" y="286"/>
      <point x="203" y="286" type="curve" smooth="yes"/>
      <point x="236" y="286"/>
      <point x="260" y="272"/>
      <point x="277" y="259" type="curve"/>
      <point x="253" y="152" type="line"/>
      <point x="234" y="139"/>
      <point x="206" y="124"/>
      <point x="168" y="124" type="curve" smooth="yes"/>
    </contour>
    <contour>
      <point x="909" y="447" type="move" name="top"/>
    </contour>
    <contour>
      <point x="824" y="5" type="move" name="bottom"/>
    </contour>
  </outline>
</glyph>
<glyph name="uni0915094D_ssadeva.alt" format="1">
  <advance width="500"/>
  <outline>
    <contour>
      <point x="566" y="408" type="line"/>
      <point x="360" y="408" type="line"/>
      <point x="369" y="456" type="line"/>
      <point x="575" y="456" type="line"/>
    </contour>
    <contour>
      <point x="497" y="456" type="line"/>
      <point x="408" y="0" type="line"/>
      <point x="352" y="0" type="line"/>
      <point x="441" y="456" type="line"/>
    </contour>
    <contour>
      <point x="203" y="202"/>
      <point x="85" y="266"/>
      <point x="104" y="363" type="curve"/>
      <point x="118" y="434"/>
      <point x="182" y="467"/>
      <point x="232" y="467" type="curve" smooth="yes"/>
      <point x="280" y="467"/>
      <point x="326" y="438"/>
      <point x="313" y="373" type="curve" smooth="yes"/>
      <point x="302" y="317"/>
      <point x="269" y="293"/>
      <point x="226" y="265" type="curve" smooth="yes"/>
      <point x="225" y="261"/>
      <point x="209" y="255"/>
      <point x="205" y="255" type="curve" smooth="yes"/>
      <point x="162" y="226"/>
      <point x="96" y="201"/>
      <point x="86" y="149" type="curve"/>
      <point x="79" y="110"/>
      <point x="92" y="81"/>
      <point x="141" y="81" type="curve"/>
      <point x="181" y="81"/>
      <point x="204" y="97"/>
      <point x="232" y="135" type="curve"/>
      <point x="259" y="96" type="line"/>
      <point x="226" y="58"/>
      <point x="179" y="28"/>
      <point x="119" y="28" type="curve"/>
      <point x="35" y="28"/>
      <point x="20" y="90"/>
      <point x="28" y="132" type="curve"/>
      <point x="43" y="211"/>
      <point x="119" y="254"/>
      <point x="175" y="277" type="curve" smooth="yes"/>
      <point x="182" y="282"/>
      <point x="191" y="285"/>
      <point x="199" y="289" type="curve" smooth="yes"/>
      <point x="233" y="313"/>
      <point x="254" y="330"/>
      <point x="260" y="362" type="curve"/>
      <point x="265" y="398"/>
      <point x="238" y="415"/>
      <point x="215" y="415" type="curve" smooth="yes"/>
      <point x="193" y="415"/>
      <point x="164" y="399"/>
      <point x="159" y="372" type="curve" smooth="yes"/>
      <point x="144" y="295"/>
      <point x="250" y="248"/>
      <point x="317" y="248" type="curve" smooth="yes"/>
      <point x="412" y="248"/>
      <point x="453" y="303"/>
      <point x="453" y="303" type="curve"/>
      <point x="439" y="241" type="line"/>
      <point x="439" y="241"/>
      <point x="381" y="202"/>
      <point x="301" y="202" type="curve" smooth="yes"/>
    </contour>
    <contour>
      <point x="187" y="149" type="line"/>
      <point x="187" y="149"/>
      <point x="207" y="167"/>
      <point x="232" y="167" type="curve" smooth="yes"/>
      <point x="263" y="167"/>
      <point x="278" y="150"/>
      <point x="272" y="121" type="curve" smooth="yes"/>
      <point x="265" y="86"/>
      <point x="230" y="58"/>
      <point x="208" y="58" type="curve" smooth="yes"/>
      <point x="197" y="58"/>
      <point x="198" y="59"/>
      <point x="190" y="64" type="curve"/>
    </contour>
    <contour>
      <point x="263" y="-1" type="line"/>
      <point x="201" y="-24" type="line"/>
      <point x="201" y="-24"/>
      <point x="190" y="75"/>
      <point x="190" y="75" type="curve"/>
      <point x="229" y="95" type="line"/>
    </contour>
    <contour>
      <point x="467" y="447" type="move" name="top"/>
    </contour>
    <contour>
      <point x="382" y="5" type="move" name="bottom"/>
    </contour>
  </outline>
</glyph>
<glyph name="uni0916094D" format="1">
  <advance width="423"/>
  <outline>
    <contour>
      <point x="24" y="456" type="line"/>
      <point x="14" y="408" type="line"/>
      <point x="487" y="408" type="line"/>
      <point x="497" y="456" type="line"/>
    </contour>
    <contour>
      <point x="134" y="428"/>
      <point x="199" y="405"/>
      <point x="181" y="311" type="curve" smooth="yes"/>
      <point x="161" y="211"/>
      <point x="45" y="204"/>
      <point x="45" y="201" type="curve" smooth="yes"/>
      <point x="47" y="204"/>
      <point x="57" y="157"/>
      <point x="59" y="157" type="curve"/>
      <point x="100" y="157"/>
      <point x="213" y="189"/>
      <point x="234" y="299" type="curve" smooth="yes"/>
      <point x="256" y="410"/>
      <point x="191" y="442"/>
      <point x="191" y="442" type="curve"/>
      <point x="134" y="428" type="line"/>
    </contour>
    <contour>
      <point x="19" y="212"/>
      <point x="166" y="-15"/>
      <point x="168" y="-14" type="curve" smooth="yes"/>
      <point x="170" y="-15"/>
      <point x="220" y="20"/>
      <point x="220" y="20" type="curve"/>
      <point x="63" y="246" type="line"/>
      <point x="18" y="212" type="line"/>
    </contour>
    <contour>
      <point x="525" y="280"/>
      <point x="478" y="334"/>
      <point x="400" y="334" type="curve" smooth="yes"/>
      <point x="327" y="334"/>
      <point x="259" y="285"/>
      <point x="244" y="207" type="curve" smooth="yes"/>
      <point x="228" y="123"/>
      <point x="280" y="70"/>
      <point x="357" y="70" type="curve" smooth="yes"/>
      <point x="431" y="70"/>
      <point x="495" y="121"/>
      <point x="509" y="197" type="curve"/>
    </contour>
    <contour>
      <point x="445" y="150"/>
      <point x="402" y="121"/>
      <point x="358" y="121" type="curve" smooth="yes"/>
      <point x="318" y="121"/>
      <point x="288" y="146"/>
      <point x="298" y="197" type="curve" smooth="yes"/>
      <point x="309" y="253"/>
      <point x="353" y="283"/>
      <point x="397" y="283" type="curve" smooth="yes"/>
      <point x="437" y="283"/>
      <point x="466" y="257"/>
      <point x="456" y="207" type="curve"/>
    </contour>
  </outline>
</glyph>
<glyph name="uni0916094D_khadeva" format="1">
  <advance width="1034"/>
  <outline>
    <contour>
      <point x="1109" y="456" type="line"/>
      <point x="28" y="456" type="line"/>
      <point x="18" y="408" type="line"/>
      <point x="165" y="410" type="line"/>
      <point x="180" y="392"/>
      <point x="194" y="362"/>
      <point x="185" y="311" type="curve" smooth="yes"/>
      <point x="173" y="250"/>
      <point x="124" y="224"/>
      <point x="89" y="214" type="curve"/>
      <point x="66" y="246" type="line"/>
      <point x="22" y="212" type="line"/>
      <point x="23" y="212"/>
      <point x="170" y="-15"/>
      <point x="170" y="-15" type="curve"/>
      <point x="223" y="18" type="line"/>
      <point x="121" y="169" type="line"/>
      <point x="168" y="187"/>
      <point x="222" y="226"/>
      <point x="236" y="299" type="curve" smooth="yes"/>
      <point x="246" y="351"/>
      <point x="237" y="384"/>
      <point x="224" y="406" type="curve"/>
      <point x="615" y="410" type="line"/>
      <point x="630" y="392"/>
      <point x="644" y="362"/>
      <point x="635" y="311" type="curve" smooth="yes"/>
      <point x="623" y="250"/>
      <point x="574" y="224"/>
      <point x="539" y="214" type="curve"/>
      <point x="517" y="246" type="line"/>
      <point x="516" y="243" type="line"/>
      <point x="510" y="298"/>
      <point x="467" y="334"/>
      <point x="404" y="334" type="curve" smooth="yes"/>
      <point x="331" y="334"/>
      <point x="263" y="285"/>
      <point x="248" y="207" type="curve" smooth="yes"/>
      <point x="232" y="123"/>
      <point x="284" y="70"/>
      <point x="361" y="70" type="curve" smooth="yes"/>
      <point x="422" y="70"/>
      <point x="476" y="104"/>
      <point x="504" y="164" type="curve"/>
      <point x="544" y="107"/>
      <point x="620" y="-15"/>
      <point x="620" y="-15" type="curve"/>
      <point x="673" y="18" type="line"/>
      <point x="571" y="169" type="line"/>
      <point x="618" y="187"/>
      <point x="672" y="226"/>
      <point x="686" y="299" type="curve" smooth="yes"/>
      <point x="696" y="351"/>
      <point x="687" y="384"/>
      <point x="674" y="406" type="curve"/>
      <point x="948" y="408" type="line"/>
      <point x="928" y="312" type="line"/>
      <point x="907" y="323"/>
      <point x="881" y="334"/>
      <point x="843" y="334" type="curve" smooth="yes"/>
      <point x="772" y="334"/>
      <point x="706" y="285"/>
      <point x="691" y="207" type="curve" smooth="yes"/>
      <point x="675" y="123"/>
      <point x="725" y="70"/>
      <point x="800" y="70" type="curve" smooth="yes"/>
      <point x="834" y="70"/>
      <point x="863" y="76"/>
      <point x="888" y="86" type="curve"/>
      <point x="869" y="0" type="line"/>
      <point x="922" y="0" type="line"/>
      <point x="1001" y="408" type="line"/>
      <point x="1099" y="408" type="line"/>
    </contour>
    <contour>
      <point x="322" y="121"/>
      <point x="292" y="146"/>
      <point x="302" y="197" type="curve" smooth="yes"/>
      <point x="313" y="253"/>
      <point x="357" y="283"/>
      <point x="401" y="283" type="curve" smooth="yes"/>
      <point x="441" y="283"/>
      <point x="470" y="257"/>
      <point x="460" y="207" type="curve" smooth="yes"/>
      <point x="449" y="150"/>
      <point x="406" y="121"/>
      <point x="362" y="121" type="curve" smooth="yes"/>
    </contour>
    <contour>
      <point x="764" y="121"/>
      <point x="735" y="146"/>
      <point x="745" y="197" type="curve" smooth="yes"/>
      <point x="756" y="253"/>
      <point x="799" y="283"/>
      <point x="845" y="283" type="curve" smooth="yes"/>
      <point x="883" y="283"/>
      <point x="907" y="270"/>
      <point x="921" y="257" type="curve"/>
      <point x="895" y="145" type="line"/>
      <point x="876" y="134"/>
      <point x="849" y="121"/>
      <point x="811" y="121" type="curve" smooth="yes"/>
    </contour>
    <contour>
      <point x="983" y="447" type="move" name="top"/>
    </contour>
    <contour>
      <point x="898" y="5" type="move" name="bottom"/>
    </contour>
  </outline>
</glyph>
<glyph name="uni0917094D_nadeva" format="1">
  <advance width="444"/>
  <outline>
    <contour>
      <point x="519" y="456" type="line"/>
      <point x="28" y="456" type="line"/>
      <point x="18" y="408" type="line"/>
      <point x="134" y="408" type="line"/>
      <point x="107" y="265" type="line"/>
      <point x="49" y="265" type="line"/>
      <point x="43" y="231" type="line"/>
      <point x="100" y="140" type="line"/>
      <point x="137" y="140" type="line"/>
      <point x="189" y="408" type="line"/>
      <point x="355" y="408" type="line"/>
      <point x="319" y="224" type="line"/>
      <point x="56" y="34" type="line"/>
      <point x="74" y="6" type="line"/>
      <point x="175" y="-25" type="line"/>
      <point x="206" y="-2" type="line"/>
      <point x="167" y="56" type="line"/>
      <point x="308" y="161" type="line"/>
      <point x="276" y="0" type="line"/>
      <point x="332" y="0" type="line"/>
      <point x="411" y="408" type="line"/>
      <point x="509" y="408" type="line"/>
    </contour>
    <contour>
      <point x="391" y="447" type="move" name="top"/>
    </contour>
    <contour>
      <point x="297" y="-35" type="move" name="bottom"/>
    </contour>
  </outline>
</glyph>
<glyph name="uni0918094D0930094D" format="1">
  <advance width="297"/>
  <outline>
    <contour>
      <point x="28" y="456" type="line"/>
      <point x="18" y="408" type="line"/>
      <point x="382" y="408" type="line"/>
      <point x="392" y="456" type="line"/>
    </contour>
    <contour>
      <point x="138" y="238"/>
      <point x="220" y="259"/>
      <point x="220" y="257" type="curve"/>
      <point x="221" y="260"/>
      <point x="126" y="279"/>
      <point x="140" y="349" type="curve" smooth="yes"/>
      <point x="154" y="424"/>
      <point x="242" y="456"/>
      <point x="242" y="456" type="curve" smooth="yes"/>
      <point x="162" y="457" type="line" smooth="yes"/>
      <point x="162" y="457"/>
      <point x="97" y="424"/>
      <point x="85" y="359" type="curve" smooth="yes"/>
      <point x="70" y="281"/>
      <point x="129" y="250"/>
      <point x="141" y="240" type="curve"/>
    </contour>
    <contour>
      <point x="132" y="290"/>
      <point x="89" y="247"/>
      <point x="79" y="196" type="curve" smooth="yes"/>
      <point x="65" y="124"/>
      <point x="121" y="79"/>
      <point x="207" y="79" type="curve"/>
      <point x="380" y="140" type="line"/>
      <point x="365" y="190" type="line"/>
      <point x="366" y="190"/>
      <point x="300" y="128"/>
      <point x="208" y="128" type="curve" smooth="yes"/>
      <point x="172" y="128"/>
      <point x="125" y="145"/>
      <point x="133" y="183" type="curve" smooth="yes"/>
      <point x="141" y="228"/>
      <point x="194" y="243"/>
      <point x="262" y="248" type="curve"/>
      <point x="253" y="298" type="line"/>
    </contour>
    <contour>
      <point x="66" y="32"/>
      <point x="92" y="-8"/>
      <point x="92" y="-8" type="curve"/>
      <point x="381" y="140" type="line"/>
      <point x="217" y="100" type="line"/>
      <point x="66" y="32" type="line"/>
    </contour>
  </outline>
</glyph>
<glyph name="uni0918094D_nadeva" format="1">
  <advance width="494"/>
  <outline>
    <contour>
      <point x="569" y="456" type="line"/>
      <point x="28" y="456" type="line"/>
      <point x="18" y="408" type="line"/>
      <point x="108" y="410" type="line"/>
      <point x="97" y="396"/>
      <point x="89" y="378"/>
      <point x="85" y="359" type="curve" smooth="yes"/>
      <point x="75" y="306"/>
      <point x="99" y="275"/>
      <point x="117" y="259" type="curve"/>
      <point x="94" y="239"/>
      <point x="83" y="218"/>
      <point x="79" y="196" type="curve" smooth="yes"/>
      <point x="67" y="133"/>
      <point x="110" y="90"/>
      <point x="178" y="81" type="curve"/>
      <point x="142" y="66" type="line"/>
      <point x="50" y="23" type="line"/>
      <point x="61" y="-9" type="line"/>
      <point x="148" y="-63" type="line"/>
      <point x="181" y="-47" type="line"/>
      <point x="157" y="23" type="line"/>
      <point x="349" y="119" type="line"/>
      <point x="326" y="0" type="line"/>
      <point x="382" y="0" type="line"/>
      <point x="461" y="408" type="line"/>
      <point x="559" y="408" type="line"/>
    </contour>
    <contour>
      <point x="361" y="188" type="line"/>
      <point x="345" y="174"/>
      <point x="285" y="128"/>
      <point x="208" y="128" type="curve" smooth="yes"/>
      <point x="172" y="128"/>
      <point x="125" y="145"/>
      <point x="133" y="183" type="curve" smooth="yes"/>
      <point x="141" y="228"/>
      <point x="194" y="243"/>
      <point x="262" y="248" type="curve"/>
      <point x="253" y="298" type="line"/>
      <point x="221" y="296"/>
      <point x="193" y="292"/>
      <point x="167" y="283" type="curve"/>
      <point x="150" y="296"/>
      <point x="134" y="317"/>
      <point x="140" y="349" type="curve" smooth="yes"/>
      <point x="145" y="373"/>
      <point x="156" y="392"/>
      <point x="169" y="406" type="curve"/>
      <point x="405" y="408" type="line"/>
    </contour>
    <contour>
      <point x="441" y="447" type="move" name="top"/>
    </contour>
    <contour>
      <point x="348" y="-35" type="move" name="bottom"/>
    </contour>
  </outline>
</glyph>
<glyph name="uni091A094D_radeva" format="1">
  <advance width="471"/>
  <outline>
    <contour>
      <point x="546" y="456" type="line"/>
      <point x="28" y="456" type="line"/>
      <point x="18" y="408" type="line"/>
      <point x="382" y="408" type="line"/>
      <point x="334" y="167" type="line"/>
      <point x="308" y="149"/>
      <point x="271" y="130"/>
      <point x="222" y="130" type="curve" smooth="yes"/>
      <point x="170" y="130"/>
      <point x="136" y="153"/>
      <point x="144" y="195" type="curve" smooth="yes"/>
      <point x="149" y="223"/>
      <point x="166" y="241"/>
      <point x="180" y="251" type="curve"/>
      <point x="265" y="253" type="line"/>
      <point x="275" y="301" type="line"/>
      <point x="43" y="301" type="line"/>
      <point x="33" y="253" type="line"/>
      <point x="114" y="255" type="line"/>
      <point x="103" y="243"/>
      <point x="94" y="226"/>
      <point x="89" y="199" type="curve" smooth="yes"/>
      <point x="78" y="143"/>
      <point x="111" y="95"/>
      <point x="186" y="85" type="curve"/>
      <point x="79" y="32" type="line"/>
      <point x="79" y="32"/>
      <point x="105" y="-8"/>
      <point x="105" y="-8" type="curve"/>
      <point x="324" y="106" type="line"/>
      <point x="303" y="0" type="line"/>
      <point x="359" y="0" type="line"/>
      <point x="438" y="408" type="line"/>
      <point x="536" y="408" type="line"/>
    </contour>
    <contour>
      <point x="417" y="447" type="move" name="top"/>
    </contour>
    <contour>
      <point x="332" y="5" type="move" name="bottom"/>
    </contour>
  </outline>
</glyph>
<glyph name="uni091C094D" format="1">
  <advance width="388"/>
  <outline>
    <contour>
      <point x="28" y="456" type="line"/>
      <point x="18" y="408" type="line"/>
      <point x="454" y="408" type="line"/>
      <point x="464" y="456" type="line"/>
    </contour>
    <contour>
      <point x="461" y="284"/>
      <point x="311" y="284"/>
      <point x="247" y="284" type="curve"/>
      <point x="238" y="236" type="line"/>
      <point x="310" y="236"/>
      <point x="454" y="238"/>
      <point x="454" y="238" type="curve"/>
      <point x="461" y="284" type="line"/>
    </contour>
    <contour>
      <point x="333" y="184"/>
      <point x="330" y="230"/>
      <point x="287" y="262" type="curve" smooth="yes"/>
      <point x="279" y="271"/>
      <point x="269" y="275"/>
      <point x="257" y="283" type="curve"/>
      <point x="216" y="284" type="line"/>
      <point x="210" y="239" type="line"/>
      <point x="276" y="239"/>
      <point x="283" y="195"/>
      <point x="277" y="165" type="curve" smooth="yes"/>
      <point x="267" y="114"/>
      <point x="225" y="87"/>
      <point x="180" y="87" type="curve" smooth="yes"/>
      <point x="124" y="87"/>
      <point x="81" y="142"/>
      <point x="70" y="243" type="curve"/>
      <point x="21" y="227" type="line"/>
      <point x="36" y="106"/>
      <point x="88" y="35"/>
      <point x="179" y="35" type="curve" smooth="yes"/>
      <point x="228" y="35"/>
      <point x="309" y="62"/>
      <point x="326" y="151" type="curve" smooth="yes"/>
    </contour>
  </outline>
</glyph>
<glyph name="uni091C094D091C094D092F" format="1">
  <advance width="1047"/>
  <outline>
    <contour>
      <point x="1122" y="456" type="line"/>
      <point x="28" y="456" type="line"/>
      <point x="18" y="408" type="line"/>
      <point x="725" y="410" type="line"/>
      <point x="745" y="377"/>
      <point x="754" y="342"/>
      <point x="748" y="312" type="curve" smooth="yes"/>
      <point x="746" y="301"/>
      <point x="742" y="293"/>
      <point x="739" y="286" type="curve"/>
      <point x="215" y="284" type="line"/>
      <point x="209" y="239" type="line"/>
      <point x="275" y="239"/>
      <point x="282" y="195"/>
      <point x="276" y="165" type="curve" smooth="yes"/>
      <point x="266" y="114"/>
      <point x="224" y="87"/>
      <point x="179" y="87" type="curve" smooth="yes"/>
      <point x="123" y="87"/>
      <point x="80" y="142"/>
      <point x="69" y="243" type="curve"/>
      <point x="20" y="227" type="line"/>
      <point x="35" y="106"/>
      <point x="87" y="35"/>
      <point x="178" y="35" type="curve" smooth="yes"/>
      <point x="216" y="35"/>
      <point x="272" y="51"/>
      <point x="306" y="103" type="curve"/>
      <point x="320" y="67"/>
      <point x="358" y="35"/>
      <point x="415" y="35" type="curve" smooth="yes"/>
      <point x="463" y="35"/>
      <point x="540" y="62"/>
      <point x="557" y="151" type="curve" smooth="yes"/>
      <point x="562" y="176"/>
      <point x="561" y="206"/>
      <point x="545" y="234" type="curve"/>
      <point x="690" y="238" type="line"/>
      <point x="676" y="228"/>
      <point x="662" y="220"/>
      <point x="649" y="214" type="curve"/>
      <point x="635" y="186" type="line"/>
      <point x="653" y="140"/>
      <point x="704" y="84"/>
      <point x="797" y="84" type="curve" smooth="yes"/>
      <point x="839" y="84"/>
      <point x="878" y="98"/>
      <point x="903" y="111" type="curve"/>
      <point x="879" y="0" type="line"/>
      <point x="935" y="0" type="line"/>
      <point x="1014" y="408" type="line"/>
      <point x="1112" y="408" type="line"/>
    </contour>
    <contour>
      <point x="911" y="176" type="line"/>
      <point x="878" y="151"/>
      <point x="836" y="137"/>
      <point x="795" y="137" type="curve" smooth="yes"/>
      <point x="756" y="137"/>
      <point x="723" y="153"/>
      <point x="704" y="179" type="curve"/>
      <point x="749" y="209"/>
      <point x="789" y="242"/>
      <point x="801" y="301" type="curve" smooth="yes"/>
      <point x="807" y="336"/>
      <point x="802" y="373"/>
      <point x="784" y="406" type="curve"/>
      <point x="958" y="408" type="line"/>
    </contour>
    <contour>
      <point x="355" y="87"/>
      <point x="333" y="138"/>
      <point x="323" y="234" type="curve"/>
      <point x="440" y="236" type="line" smooth="yes"/>
      <point x="506" y="236"/>
      <point x="514" y="195"/>
      <point x="508" y="165" type="curve" smooth="yes"/>
      <point x="498" y="114"/>
      <point x="459" y="87"/>
      <point x="414" y="87" type="curve" smooth="yes"/>
    </contour>
    <contour>
      <point x="994" y="447" type="move" name="top"/>
    </contour>
    <contour>
      <point x="908" y="5" type="move" name="bottom"/>
    </contour>
  </outline>
</glyph>
<glyph name="uni091C094D0930094D" format="1">
  <advance width="370"/>
  <outline>
    <contour>
      <point x="28" y="456" type="line"/>
      <point x="18" y="408" type="line"/>
      <point x="434" y="408" type="line"/>
      <point x="444" y="456" type="line"/>
    </contour>
    <contour>
      <point x="466" y="307"/>
      <point x="316" y="307"/>
      <point x="252" y="307" type="curve"/>
      <point x="242" y="259" type="line"/>
      <point x="314" y="259"/>
      <point x="459" y="261"/>
      <point x="459" y="261" type="curve"/>
      <point x="466" y="307" type="line"/>
    </contour>
    <contour>
      <point x="337" y="207"/>
      <point x="334" y="253"/>
      <point x="291" y="285" type="curve" smooth="yes"/>
      <point x="283" y="294"/>
      <point x="273" y="298"/>
      <point x="262" y="306" type="curve"/>
      <point x="221" y="307" type="line"/>
      <point x="214" y="262" type="line"/>
      <point x="280" y="262"/>
      <point x="287" y="218"/>
      <point x="282" y="188" type="curve" smooth="yes"/>
      <point x="272" y="137"/>
      <point x="229" y="110"/>
      <point x="184" y="110" type="curve" smooth="yes"/>
      <point x="128" y="110"/>
      <point x="85" y="165"/>
      <point x="75" y="266" type="curve"/>
      <point x="26" y="250" type="line"/>
      <point x="40" y="129"/>
      <point x="92" y="58"/>
      <point x="183" y="58" type="curve" smooth="yes"/>
      <point x="232" y="58"/>
      <point x="314" y="85"/>
      <point x="331" y="174" type="curve" smooth="yes"/>
    </contour>
    <contour>
      <point x="243" y="20"/>
      <point x="278" y="-7"/>
      <point x="280" y="-6" type="curve" smooth="yes"/>
      <point x="282" y="-7"/>
      <point x="458" y="131"/>
      <point x="458" y="131" type="curve"/>
      <point x="433" y="170" type="line"/>
      <point x="242" y="20" type="line"/>
    </contour>
  </outline>
</glyph>
<glyph name="uni091D094D.NEP" format="1">
  <advance width="451"/>
  <outline>
    <contour>
      <point x="452" y="333"/>
      <point x="423" y="324"/>
      <point x="398" y="312" type="curve"/>
      <point x="419" y="408" type="line"/>
      <point x="519" y="408" type="line"/>
      <point x="528" y="456" type="line"/>
      <point x="276" y="456" type="line"/>
      <point x="267" y="408" type="line"/>
      <point x="366" y="408" type="line"/>
      <point x="325" y="199" type="line"/>
      <point x="159" y="199" type="line"/>
      <point x="182" y="318" type="line" smooth="yes"/>
      <point x="200" y="410"/>
      <point x="184" y="466"/>
      <point x="111" y="466" type="curve" smooth="yes"/>
      <point x="68" y="466"/>
      <point x="23" y="436"/>
      <point x="13" y="384" type="curve" smooth="yes"/>
      <point x="5" y="345"/>
      <point x="24" y="307"/>
      <point x="68" y="281" type="curve"/>
      <point x="100" y="320" type="line"/>
      <point x="77" y="334"/>
      <point x="59" y="349"/>
      <point x="64" y="374" type="curve" smooth="yes"/>
      <point x="69" y="397"/>
      <point x="88" y="413"/>
      <point x="109" y="413" type="curve" smooth="yes"/>
      <point x="153" y="413"/>
      <point x="132" y="341"/>
      <point x="128" y="322" type="curve" smooth="yes"/>
      <point x="104" y="199" type="line"/>
      <point x="40" y="199" type="line"/>
      <point x="35" y="166" type="line"/>
      <point x="97" y="70" type="line"/>
      <point x="134" y="70" type="line"/>
      <point x="150" y="151" type="line"/>
      <point x="316" y="151" type="line"/>
      <point x="286" y="0" type="line"/>
      <point x="339" y="0" type="line"/>
      <point x="391" y="253" type="line"/>
      <point x="416" y="267"/>
      <point x="448" y="282"/>
      <point x="479" y="282" type="curve" smooth="yes"/>
      <point x="528" y="282"/>
      <point x="548" y="257"/>
      <point x="566" y="224" type="curve"/>
      <point x="603" y="267" type="line"/>
      <point x="573" y="313"/>
      <point x="536" y="333"/>
      <point x="477" y="333" type="curve" smooth="yes"/>
    </contour>
  </outline>
</glyph>
<glyph name="uni091E094D_radeva" format="1">
  <advance width="538"/>
  <outline>
    <contour>
      <point x="613" y="456" type="line"/>
      <point x="28" y="456" type="line"/>
      <point x="18" y="408" type="line"/>
      <point x="449" y="408" type="line"/>
      <point x="412" y="226" type="line"/>
      <point x="398" y="221"/>
      <point x="381" y="218"/>
      <point x="360" y="218" type="curve" smooth="yes"/>
      <point x="343" y="218"/>
      <point x="334" y="219"/>
      <point x="323" y="220" type="curve"/>
      <point x="325" y="276"/>
      <point x="292" y="320"/>
      <point x="226" y="320" type="curve" smooth="yes"/>
      <point x="191" y="320"/>
      <point x="162" y="310"/>
      <point x="136" y="295" type="curve"/>
      <point x="155" y="245" type="line"/>
      <point x="154" y="245"/>
      <point x="188" y="267"/>
      <point x="219" y="267" type="curve" smooth="yes"/>
      <point x="269" y="267"/>
      <point x="277" y="238"/>
      <point x="271" y="205" type="curve" smooth="yes"/>
      <point x="261" y="156"/>
      <point x="224" y="126"/>
      <point x="179" y="126" type="curve" smooth="yes"/>
      <point x="119" y="126"/>
      <point x="90" y="182"/>
      <point x="70" y="283" type="curve"/>
      <point x="21" y="268" type="line"/>
      <point x="43" y="147"/>
      <point x="87" y="73"/>
      <point x="178" y="73" type="curve" smooth="yes"/>
      <point x="234" y="73"/>
      <point x="291" y="104"/>
      <point x="319" y="173" type="curve"/>
      <point x="331" y="173"/>
      <point x="342" y="171"/>
      <point x="359" y="171" type="curve" smooth="yes"/>
      <point x="375" y="171"/>
      <point x="392" y="173"/>
      <point x="406" y="176" type="curve"/>
      <point x="217" y="26" type="line"/>
      <point x="218" y="26"/>
      <point x="251" y="-7"/>
      <point x="251" y="-7" type="curve"/>
      <point x="393" y="112" type="line"/>
      <point x="370" y="0" type="line"/>
      <point x="426" y="0" type="line"/>
      <point x="505" y="408" type="line"/>
      <point x="603" y="408" type="line"/>
    </contour>
    <contour>
      <point x="484" y="447" type="move" name="top"/>
    </contour>
    <contour>
      <point x="399" y="5" type="move" name="bottom"/>
    </contour>
  </outline>
</glyph>
<glyph name="uni091F094D_tthadeva" format="1">
  <advance width="391"/>
  <outline>
    <contour>
      <point x="268" y="297"/>
      <point x="292" y="292"/>
      <point x="327" y="288" type="curve"/>
      <point x="336" y="295" type="line"/>
      <point x="357" y="408" type="line"/>
      <point x="456" y="408" type="line"/>
      <point x="466" y="456" type="line"/>
      <point x="28" y="456" type="line"/>
      <point x="18" y="408" type="line"/>
      <point x="301" y="408" type="line"/>
      <point x="288" y="347" type="line"/>
      <point x="262" y="348"/>
      <point x="243" y="349"/>
      <point x="227" y="349" type="curve" smooth="yes"/>
      <point x="120" y="349"/>
      <point x="61" y="293"/>
      <point x="48" y="225" type="curve" smooth="yes"/>
      <point x="29" y="130"/>
      <point x="94" y="83"/>
      <point x="187" y="83" type="curve" smooth="yes"/>
      <point x="201" y="83"/>
      <point x="216" y="84"/>
      <point x="231" y="87" type="curve"/>
      <point x="217" y="24" type="line"/>
      <point x="166" y="24" type="line" smooth="yes"/>
      <point x="57" y="24"/>
      <point x="-2" y="-29"/>
      <point x="-16" y="-105" type="curve" smooth="yes"/>
      <point x="-32" y="-188"/>
      <point x="26" y="-241"/>
      <point x="125" y="-241" type="curve" smooth="yes"/>
      <point x="267" y="-241"/>
      <point x="311" y="-166"/>
      <point x="320" y="-117" type="curve" smooth="yes"/>
      <point x="330" y="-67"/>
      <point x="303" y="-22"/>
      <point x="267" y="7" type="curve"/>
      <point x="290" y="102" type="line"/>
      <point x="314" y="111"/>
      <point x="332" y="120"/>
      <point x="345" y="128" type="curve"/>
      <point x="325" y="176" type="line"/>
      <point x="297" y="161"/>
      <point x="251" y="135"/>
      <point x="191" y="135" type="curve" smooth="yes"/>
      <point x="128" y="135"/>
      <point x="90" y="158"/>
      <point x="100" y="213" type="curve" smooth="yes"/>
      <point x="111" y="267"/>
      <point x="153" y="297"/>
      <point x="233" y="297" type="curve" smooth="yes"/>
    </contour>
    <contour>
      <point x="55" y="-189"/>
      <point x="28" y="-159"/>
      <point x="37" y="-112" type="curve" smooth="yes"/>
      <point x="48" y="-55"/>
      <point x="93" y="-25"/>
      <point x="168" y="-27" type="curve" smooth="yes"/>
      <point x="228" y="-27" type="line"/>
      <point x="253" y="-42"/>
      <point x="273" y="-72"/>
      <point x="266" y="-108" type="curve" smooth="yes"/>
      <point x="256" y="-158"/>
      <point x="206" y="-189"/>
      <point x="133" y="-189" type="curve" smooth="yes"/>
    </contour>
    <contour>
      <point x="338" y="447" type="move" name="top"/>
    </contour>
    <contour>
      <point x="115" y="-266" type="move" name="bottom"/>
    </contour>
  </outline>
</glyph>
<glyph name="uni0921094D_ddadeva" format="1">
  <advance width="422"/>
  <outline>
    <contour>
      <point x="299" y="310"/>
      <point x="309" y="306"/>
      <point x="344" y="301" type="curve"/>
      <point x="353" y="309" type="line"/>
      <point x="371" y="408" type="line"/>
      <point x="487" y="408" type="line"/>
      <point x="497" y="456" type="line"/>
      <point x="28" y="456" type="line"/>
      <point x="18" y="408" type="line"/>
      <point x="320" y="408" type="line"/>
      <point x="308" y="356" type="line"/>
      <point x="283" y="359"/>
      <point x="277" y="359"/>
      <point x="241" y="359" type="curve" smooth="yes"/>
      <point x="167" y="359"/>
      <point x="114" y="335"/>
      <point x="104" y="284" type="curve" smooth="yes"/>
      <point x="87" y="194"/>
      <point x="186" y="196"/>
      <point x="228" y="196" type="curve" smooth="yes"/>
      <point x="287" y="196"/>
      <point x="311" y="188"/>
      <point x="304" y="155" type="curve" smooth="yes"/>
      <point x="297" y="119"/>
      <point x="251" y="106"/>
      <point x="209" y="106" type="curve" smooth="yes"/>
      <point x="145" y="106"/>
      <point x="108" y="127"/>
      <point x="71" y="179" type="curve"/>
      <point x="28" y="153" type="line"/>
      <point x="69" y="88"/>
      <point x="115" y="55"/>
      <point x="207" y="55" type="curve" smooth="yes"/>
      <point x="218" y="55"/>
      <point x="231" y="55"/>
      <point x="242" y="57" type="curve"/>
      <point x="227" y="0" type="line"/>
      <point x="203" y="3"/>
      <point x="196" y="3"/>
      <point x="161" y="3" type="curve" smooth="yes"/>
      <point x="86" y="3"/>
      <point x="32" y="-17"/>
      <point x="22" y="-68" type="curve" smooth="yes"/>
      <point x="3" y="-163"/>
      <point x="105" y="-158"/>
      <point x="147" y="-158" type="curve" smooth="yes"/>
      <point x="206" y="-158"/>
      <point x="230" y="-166"/>
      <point x="224" y="-195" type="curve" smooth="yes"/>
      <point x="217" y="-230"/>
      <point x="161" y="-242"/>
      <point x="128" y="-242" type="curve" smooth="yes"/>
      <point x="81" y="-242"/>
      <point x="29" y="-224"/>
      <point x="-8" y="-169" type="curve"/>
      <point x="-51" y="-196" type="line"/>
      <point x="-10" y="-260"/>
      <point x="45" y="-295"/>
      <point x="126" y="-295" type="curve" smooth="yes"/>
      <point x="200" y="-295"/>
      <point x="263" y="-266"/>
      <point x="275" y="-205" type="curve" smooth="yes"/>
      <point x="289" y="-134"/>
      <point x="232" y="-108"/>
      <point x="165" y="-108" type="curve" smooth="yes"/>
      <point x="115" y="-108"/>
      <point x="68" y="-115"/>
      <point x="74" y="-83" type="curve" smooth="yes"/>
      <point x="79" y="-57"/>
      <point x="106" y="-47"/>
      <point x="158" y="-47" type="curve" smooth="yes"/>
      <point x="218" y="-47"/>
      <point x="227" y="-50"/>
      <point x="261" y="-55" type="curve"/>
      <point x="272" y="-48" type="line"/>
      <point x="296" y="72" type="line"/>
      <point x="329" y="87"/>
      <point x="349" y="112"/>
      <point x="355" y="144" type="curve" smooth="yes"/>
      <point x="369" y="214"/>
      <point x="329" y="245"/>
      <point x="237" y="245" type="curve" smooth="yes"/>
      <point x="174" y="245"/>
      <point x="151" y="250"/>
      <point x="155" y="273" type="curve" smooth="yes"/>
      <point x="160" y="298"/>
      <point x="187" y="310"/>
      <point x="239" y="310" type="curve" smooth="yes"/>
    </contour>
    <contour>
      <point x="354" y="447" type="move" name="top"/>
    </contour>
    <contour>
      <point x="118" y="-315" type="move" name="bottom"/>
    </contour>
  </outline>
</glyph>
<glyph name="uni0921094D_ddhadeva" format="1">
  <advance width="422"/>
  <outline>
    <contour>
      <point x="299" y="310"/>
      <point x="309" y="306"/>
      <point x="344" y="301" type="curve"/>
      <point x="353" y="309" type="line"/>
      <point x="371" y="408" type="line"/>
      <point x="487" y="408" type="line"/>
      <point x="497" y="456" type="line"/>
      <point x="28" y="456" type="line"/>
      <point x="18" y="408" type="line"/>
      <point x="320" y="408" type="line"/>
      <point x="308" y="356" type="line"/>
      <point x="283" y="359"/>
      <point x="277" y="359"/>
      <point x="241" y="359" type="curve" smooth="yes"/>
      <point x="167" y="359"/>
      <point x="114" y="335"/>
      <point x="104" y="284" type="curve" smooth="yes"/>
      <point x="87" y="194"/>
      <point x="186" y="196"/>
      <point x="228" y="196" type="curve" smooth="yes"/>
      <point x="287" y="196"/>
      <point x="311" y="188"/>
      <point x="304" y="155" type="curve" smooth="yes"/>
      <point x="297" y="119"/>
      <point x="251" y="106"/>
      <point x="209" y="106" type="curve" smooth="yes"/>
      <point x="145" y="106"/>
      <point x="108" y="127"/>
      <point x="71" y="179" type="curve"/>
      <point x="28" y="153" type="line"/>
      <point x="69" y="88"/>
      <point x="115" y="55"/>
      <point x="207" y="55" type="curve" smooth="yes"/>
      <point x="218" y="55"/>
      <point x="230" y="55"/>
      <point x="241" y="57" type="curve"/>
      <point x="226" y="0" type="line"/>
      <point x="200" y="1"/>
      <point x="180" y="2"/>
      <point x="164" y="2" type="curve" smooth="yes"/>
      <point x="57" y="2"/>
      <point x="1" y="-54"/>
      <point x="-13" y="-122" type="curve" smooth="yes"/>
      <point x="-31" y="-217"/>
      <point x="32" y="-262"/>
      <point x="125" y="-262" type="curve" smooth="yes"/>
      <point x="194" y="-262"/>
      <point x="273" y="-241"/>
      <point x="287" y="-171" type="curve" smooth="yes"/>
      <point x="295" y="-131"/>
      <point x="277" y="-93"/>
      <point x="220" y="-93" type="curve" smooth="yes"/>
      <point x="177" y="-93"/>
      <point x="141" y="-120"/>
      <point x="132" y="-165" type="curve" smooth="yes"/>
      <point x="128" y="-186"/>
      <point x="131" y="-199"/>
      <point x="132" y="-210" type="curve"/>
      <point x="66" y="-212"/>
      <point x="28" y="-187"/>
      <point x="38" y="-132" type="curve" smooth="yes"/>
      <point x="49" y="-78"/>
      <point x="91" y="-48"/>
      <point x="171" y="-48" type="curve" smooth="yes"/>
      <point x="206" y="-48"/>
      <point x="228" y="-53"/>
      <point x="263" y="-57" type="curve"/>
      <point x="272" y="-50" type="line"/>
      <point x="297" y="72" type="line"/>
      <point x="330" y="88"/>
      <point x="349" y="112"/>
      <point x="355" y="144" type="curve" smooth="yes"/>
      <point x="369" y="214"/>
      <point x="329" y="245"/>
      <point x="237" y="245" type="curve" smooth="yes"/>
      <point x="174" y="245"/>
      <point x="151" y="250"/>
      <point x="155" y="273" type="curve" smooth="yes"/>
      <point x="160" y="298"/>
      <point x="187" y="310"/>
      <point x="239" y="310" type="curve" smooth="yes"/>
    </contour>
    <contour>
      <point x="182" y="-158"/>
      <point x="197" y="-141"/>
      <point x="219" y="-141" type="curve" smooth="yes"/>
      <point x="236" y="-141"/>
      <point x="242" y="-152"/>
      <point x="239" y="-164" type="curve" smooth="yes"/>
      <point x="235" y="-185"/>
      <point x="215" y="-201"/>
      <point x="180" y="-209" type="curve"/>
      <point x="178" y="-202"/>
      <point x="176" y="-192"/>
      <point x="178" y="-179" type="curve"/>
    </contour>
    <contour>
      <point x="354" y="447" type="move" name="top"/>
    </contour>
    <contour>
      <point x="116" y="-286" type="move" name="bottom"/>
    </contour>
  </outline>
</glyph>
<glyph name="uni0922094D092F" format="1">
  <advance width="801"/>
  <outline>
    <contour>
      <point x="876" y="456" type="line"/>
      <point x="28" y="456" type="line"/>
      <point x="18" y="408" type="line"/>
      <point x="301" y="408" type="line"/>
      <point x="281" y="315" type="line"/>
      <point x="256" y="317"/>
      <point x="240" y="317"/>
      <point x="224" y="317" type="curve" smooth="yes"/>
      <point x="117" y="317"/>
      <point x="52" y="246"/>
      <point x="36" y="163" type="curve" smooth="yes"/>
      <point x="17" y="69"/>
      <point x="75" y="0"/>
      <point x="182" y="0" type="curve" smooth="yes"/>
      <point x="251" y="0"/>
      <point x="324" y="28"/>
      <point x="338" y="102" type="curve" smooth="yes"/>
      <point x="345" y="138"/>
      <point x="329" y="190"/>
      <point x="265" y="190" type="curve" smooth="yes"/>
      <point x="218" y="190"/>
      <point x="177" y="159"/>
      <point x="167" y="109" type="curve" smooth="yes"/>
      <point x="162" y="84"/>
      <point x="165" y="66"/>
      <point x="166" y="52" type="curve"/>
      <point x="109" y="58"/>
      <point x="78" y="97"/>
      <point x="89" y="156" type="curve" smooth="yes"/>
      <point x="102" y="223"/>
      <point x="150" y="265"/>
      <point x="225" y="265" type="curve" smooth="yes"/>
      <point x="406" y="265" type="line" smooth="yes"/>
      <point x="479" y="265"/>
      <point x="494" y="257"/>
      <point x="490" y="236" type="curve" smooth="yes"/>
      <point x="485" y="212"/>
      <point x="441" y="196"/>
      <point x="407" y="185" type="curve"/>
      <point x="394" y="157" type="line"/>
      <point x="412" y="111"/>
      <point x="463" y="55"/>
      <point x="556" y="55" type="curve" smooth="yes"/>
      <point x="592" y="55"/>
      <point x="626" y="65"/>
      <point x="650" y="77" type="curve"/>
      <point x="633" y="0" type="line"/>
      <point x="689" y="0" type="line"/>
      <point x="768" y="408" type="line"/>
      <point x="866" y="408" type="line"/>
    </contour>
    <contour>
      <point x="658" y="139" type="line"/>
      <point x="627" y="118"/>
      <point x="589" y="107"/>
      <point x="553" y="107" type="curve" smooth="yes"/>
      <point x="514" y="107"/>
      <point x="480" y="123"/>
      <point x="461" y="149" type="curve"/>
      <point x="500" y="168"/>
      <point x="535" y="187"/>
      <point x="543" y="228" type="curve" smooth="yes"/>
      <point x="555" y="289"/>
      <point x="505" y="316"/>
      <point x="439" y="316" type="curve" smooth="yes"/>
      <point x="340" y="316" type="line"/>
      <point x="357" y="408" type="line"/>
      <point x="712" y="408" type="line"/>
    </contour>
    <contour>
      <point x="280" y="138"/>
      <point x="290" y="126"/>
      <point x="286" y="106" type="curve" smooth="yes"/>
      <point x="281" y="80"/>
      <point x="256" y="59"/>
      <point x="216" y="50" type="curve"/>
      <point x="214" y="60"/>
      <point x="212" y="76"/>
      <point x="216" y="96" type="curve" smooth="yes"/>
      <point x="222" y="128"/>
      <point x="241" y="138"/>
      <point x="263" y="138" type="curve" smooth="yes"/>
    </contour>
    <contour>
      <point x="747" y="447" type="move" name="top"/>
    </contour>
    <contour>
      <point x="662" y="5" type="move" name="bottom"/>
    </contour>
  </outline>
</glyph>
<glyph name="uni0924094D" format="1">
  <advance width="236"/>
  <outline>
    <contour>
      <point x="28" y="456" type="line"/>
      <point x="18" y="408" type="line"/>
      <point x="305" y="408" type="line"/>
      <point x="315" y="456" type="line"/>
    </contour>
    <contour>
      <point x="340" y="297"/>
      <point x="285" y="297"/>
      <point x="199" y="297" type="curve" smooth="yes"/>
      <point x="108" y="297"/>
      <point x="58" y="262"/>
      <point x="42" y="182" type="curve" smooth="yes"/>
      <point x="30" y="116"/>
      <point x="62" y="45"/>
      <point x="85" y="-13" type="curve"/>
      <point x="134" y="9" type="line"/>
      <point x="122" y="40"/>
      <point x="89" y="126"/>
      <point x="97" y="170" type="curve" smooth="yes"/>
      <point x="108" y="225"/>
      <point x="140" y="241"/>
      <point x="200" y="241" type="curve"/>
      <point x="331" y="241" type="line"/>
      <point x="340" y="297" type="line"/>
    </contour>
  </outline>
</glyph>
<glyph name="uni0924094D0928094D092F" format="1">
  <advance width="689"/>
  <outline>
    <contour>
      <point x="764" y="456" type="line"/>
      <point x="28" y="456" type="line"/>
      <point x="18" y="408" type="line"/>
      <point x="367" y="410" type="line"/>
      <point x="387" y="377"/>
      <point x="396" y="342"/>
      <point x="390" y="312" type="curve" smooth="yes"/>
      <point x="382" y="273"/>
      <point x="351" y="250"/>
      <point x="319" y="232" type="curve"/>
      <point x="288" y="259"/>
      <point x="261" y="286"/>
      <point x="201" y="286" type="curve" smooth="yes"/>
      <point x="116" y="286"/>
      <point x="54" y="242"/>
      <point x="41" y="174" type="curve" smooth="yes"/>
      <point x="30" y="116"/>
      <point x="62" y="45"/>
      <point x="85" y="-13" type="curve"/>
      <point x="134" y="10" type="line"/>
      <point x="121" y="41"/>
      <point x="87" y="119"/>
      <point x="95" y="159" type="curve" smooth="yes"/>
      <point x="104" y="205"/>
      <point x="142" y="231"/>
      <point x="201" y="231" type="curve" smooth="yes"/>
      <point x="229" y="231"/>
      <point x="250" y="218"/>
      <point x="272" y="197" type="curve"/>
      <point x="150" y="123" type="line"/>
      <point x="165" y="92" type="line"/>
      <point x="234" y="55" type="line"/>
      <point x="265" y="74" type="line"/>
      <point x="241" y="128" type="line"/>
      <point x="295" y="162" type="line"/>
      <point x="319" y="125"/>
      <point x="366" y="89"/>
      <point x="440" y="89" type="curve" smooth="yes"/>
      <point x="482" y="89"/>
      <point x="521" y="103"/>
      <point x="546" y="116" type="curve"/>
      <point x="521" y="0" type="line"/>
      <point x="577" y="0" type="line"/>
      <point x="656" y="408" type="line"/>
      <point x="754" y="408" type="line"/>
    </contour>
    <contour>
      <point x="554" y="181" type="line"/>
      <point x="521" y="156"/>
      <point x="479" y="142"/>
      <point x="438" y="142" type="curve" smooth="yes"/>
      <point x="399" y="142"/>
      <point x="366" y="158"/>
      <point x="347" y="184" type="curve"/>
      <point x="392" y="214"/>
      <point x="431" y="242"/>
      <point x="443" y="301" type="curve" smooth="yes"/>
      <point x="449" y="336"/>
      <point x="444" y="373"/>
      <point x="426" y="406" type="curve"/>
      <point x="600" y="408" type="line"/>
    </contour>
    <contour>
      <point x="635" y="447" type="move" name="top"/>
    </contour>
    <contour>
      <point x="550" y="5" type="move" name="bottom"/>
    </contour>
  </outline>
</glyph>
